<svg width="112" height="118" viewBox="0 0 112 118" fill="none" xmlns="http://www.w3.org/2000/svg">
<path d="M85.9275 44.7001C82.3352 41.8468 77.5215 40.0197 72.4094 39.0617C67.5666 38.1537 62.5684 38.1341 57.5251 39.0934C54.7796 39.616 51.8368 40.3318 49.353 41.4743C49.0059 41.634 49.1931 42.0156 49.5759 41.8956C51.9187 41.1606 54.1771 40.3587 56.6087 39.8386C59.0167 39.3235 61.4786 38.9974 63.9327 38.9079C69.0127 38.7227 74.0265 39.6393 78.4659 41.1991C81.1049 42.1262 83.5612 43.3547 85.6332 44.8829C85.791 44.9989 86.0853 44.8251 85.9275 44.7001Z" fill="black" fill-opacity="0.2"/>
<path d="M85.714 44.6172C80.9883 45.6123 76.1377 46.1135 71.3651 45.9152C68.9407 45.8141 66.5452 45.5411 64.2345 45.0737C61.913 44.604 59.7329 43.894 57.5379 43.1982C55.0195 42.4002 52.3153 41.5706 49.4782 41.5203C49.2375 41.516 49.1953 41.7777 49.4256 41.804C52.0218 42.0998 54.3898 42.7047 56.7737 43.449C59.0417 44.1574 61.2771 44.9159 63.662 45.4206C68.1398 46.367 72.931 46.6011 77.6888 46.2287C80.4119 46.0158 83.115 45.5903 85.7606 44.9223C86.0083 44.8601 85.9766 44.5621 85.714 44.6172Z" fill="black" fill-opacity="0.2"/>
<path d="M85.4412 44.5977C82.9273 44.0201 81.118 42.5423 78.7969 41.7022C76.6284 40.9175 74.1207 40.6351 71.7185 40.3579C67.1293 39.8296 62.4417 39.6432 57.7176 40.0837C56.409 40.2061 55.1148 40.3843 53.8198 40.6127C52.5145 40.8426 51.2039 41.0555 49.9501 41.4591C49.861 41.4876 49.8969 41.5932 49.9892 41.5771C51.1588 41.3719 52.311 41.0915 53.4829 40.8928C54.5888 40.7058 55.7157 40.5825 56.8297 40.47C59.179 40.2331 61.5381 40.1509 63.8763 40.1855C66.1802 40.2203 68.4779 40.3603 70.7366 40.6073C73.1461 40.8715 75.609 41.1841 77.8632 41.8237C80.5426 42.5837 82.5172 44.2609 85.2885 44.8774C85.5222 44.9295 85.6744 44.6513 85.4412 44.5977Z" fill="black" fill-opacity="0.2"/>
<path d="M84.9998 44.7384C80.7935 43.6331 76.4131 42.8488 71.9581 42.3305C67.4958 41.8118 62.9967 41.6506 58.4353 41.6249C55.8258 41.6103 53.1906 41.6086 50.6299 41.3319C50.5128 41.3195 50.4548 41.4743 50.5726 41.4915C54.9303 42.1309 59.4941 41.8411 63.9513 42.0251C68.5589 42.2154 73.11 42.6858 77.5522 43.4482C80.0283 43.8733 82.4683 44.3903 84.8759 44.9663C85.0646 45.0118 85.1871 44.7876 84.9998 44.7384Z" fill="black" fill-opacity="0.2"/>
<path d="M85.2791 44.657C81.0434 44.7222 76.7855 44.6849 72.5928 44.4507C68.3856 44.2157 64.2379 43.7809 60.116 43.2355C58.9796 43.0848 57.8459 42.9258 56.7127 42.7661C55.5225 42.5988 54.3441 42.3108 53.1366 42.2072C53.0467 42.1996 53.0162 42.3014 53.0946 42.3241C54.0518 42.6013 55.1329 42.7258 56.1391 42.9024C57.1607 43.0811 58.1802 43.2587 59.2116 43.4106C61.2284 43.7066 63.2579 43.9481 65.305 44.1493C69.4891 44.5603 73.7266 44.8897 77.9786 44.9959C80.3834 45.0556 82.7982 45.0469 85.2162 44.9902C85.494 44.9834 85.5606 44.6531 85.2791 44.657Z" fill="black" fill-opacity="0.2"/>
<path d="M69.2745 39.4239C71.3579 39.4037 73.4324 39.3806 75.5085 38.9857C77.1883 38.6659 78.8036 38.1216 80.3297 37.4547C83.5116 36.0644 86.2982 34.189 89.2863 32.5669C90.1661 32.0893 91.0591 31.6222 91.984 31.2009C92.8779 30.794 93.8099 30.4529 94.7208 30.0734C94.8932 30.0016 94.8451 29.7712 94.6357 29.8187C93.0255 30.183 91.5072 30.9086 90.0888 31.617C88.5453 32.388 87.086 33.265 85.6201 34.1236C82.7629 35.7972 79.7994 37.5262 76.395 38.392C74.0935 38.9775 71.6757 39.0749 69.324 39.1646C69.1071 39.1717 69.0517 39.4261 69.2745 39.4239Z" fill="black" fill-opacity="0.2"/>
<path d="M94.9932 29.6015C92.0904 29.6114 89.1829 29.6362 86.2753 29.6983C83.7629 29.7519 81.2644 29.9297 78.7821 30.4376C74.0809 31.3999 69.6844 33.2595 65.6776 35.4664C63.5049 36.6625 61.6025 38.1755 59.272 39.1831C59.0185 39.2922 59.161 39.5579 59.4291 39.481C60.4457 39.1885 61.3625 38.622 62.2171 38.1048C63.0859 37.5786 63.9346 37.0356 64.8224 36.5284C66.8507 35.3704 68.9254 34.2758 71.1305 33.3384C73.2847 32.4223 75.5399 31.6433 77.8674 31.0931C80.3393 30.5091 82.8457 30.2268 85.373 30.1315C88.5631 30.0106 91.7479 30.0027 94.9355 29.9118C95.1929 29.904 95.2567 29.6005 94.9932 29.6015Z" fill="black" fill-opacity="0.2"/>
<path d="M94.8991 29.5889C90.0859 30.3179 85.2215 30.7084 80.44 31.6408C78.1914 32.0794 75.9816 32.6495 73.8474 33.4023C71.6478 34.1782 69.5214 35.0875 67.3973 35.9902C64.9951 37.0107 62.5842 38.0029 60.1244 38.9288C59.9042 39.0115 60.0345 39.2436 60.2567 39.1786C62.4562 38.5324 64.5543 37.62 66.6234 36.7364C68.7644 35.8219 70.8953 34.8871 73.0899 34.0615C77.5292 32.3919 82.2101 31.5779 86.9588 30.9535C89.6214 30.6035 92.2899 30.2968 94.9454 29.8873C95.2012 29.8481 95.155 29.5498 94.8991 29.5889Z" fill="black" fill-opacity="0.2"/>
<path d="M94.8755 29.6724C90.235 30.5313 85.5371 31.4489 81.0932 32.9318C78.8577 33.6773 76.7084 34.5859 74.4794 35.3444C72.3068 36.0837 70.0959 36.7457 67.8572 37.3266C65.281 37.995 62.7277 38.4963 60.0943 38.9258C59.8697 38.9626 59.9101 39.2142 60.1344 39.1877C62.361 38.9243 64.6071 38.4084 66.7825 37.8989C69.0053 37.3782 71.1978 36.7438 73.3541 36.0497C75.5793 35.3335 77.7245 34.4873 79.9096 33.6946C82.1747 32.8728 84.5196 32.2096 86.8875 31.6347C89.5429 30.9906 92.2288 30.4536 94.9185 29.9455C95.1484 29.9011 95.1082 29.6295 94.8755 29.6724Z" fill="black" fill-opacity="0.2"/>
<path d="M94.8834 29.7488C91.054 30.6381 87.3061 31.981 83.8644 33.6287C81.9359 34.5521 80.0204 35.4086 77.9032 36.0113C75.8021 36.6096 73.6347 37.0061 71.476 37.396C70.192 37.6278 68.914 37.8863 67.6337 38.134C66.3922 38.3739 65.0441 38.5277 63.845 38.9017C63.7098 38.9437 63.78 39.0746 63.9006 39.0673C65.043 39.0002 66.2284 38.705 67.3593 38.5126C68.5104 38.3171 69.6631 38.1277 70.8136 37.9284C72.9243 37.5614 75.0389 37.1608 77.1082 36.6324C79.1745 36.1049 81.0945 35.3917 82.9608 34.4914C84.76 33.6236 86.5451 32.7821 88.4488 32.0715C90.5503 31.2864 92.7232 30.5928 94.9297 30.0477C95.1747 29.9865 95.1358 29.6898 94.8834 29.7488Z" fill="black" fill-opacity="0.2"/>
<path d="M90.8144 38.3434C89.1181 37.8495 87.3284 37.7699 85.4669 37.9205C83.7446 38.0596 82.0673 38.4247 80.3599 38.6696C77.039 39.1466 73.7352 39.2563 70.4098 39.3836C70.2249 39.3908 70.0994 39.6203 70.3132 39.6524C71.755 39.8693 73.3231 39.7936 74.812 39.7201C76.5107 39.6362 78.2119 39.4788 79.9039 39.2485C83.5132 38.7584 87.1436 37.7736 90.6661 38.6162C90.8916 38.6697 91.033 38.4073 90.8144 38.3434Z" fill="black" fill-opacity="0.2"/>
<path d="M50.0945 40.6224C45.8496 41.6273 42.1963 43.9354 38.8945 46.2286C35.3953 48.6586 32.2265 51.37 29.4072 54.2665C23.7074 60.1226 19.2806 66.6977 15.9606 73.4347C14.2317 76.9426 12.6735 80.7059 12.7823 84.3858C12.7886 84.5946 13.2409 84.5704 13.2626 84.3598C13.5944 81.0508 14.5818 77.8448 16.0806 74.6604C17.628 71.3719 19.4531 68.1351 21.524 64.9923C25.7034 58.6487 31.0618 52.6238 37.786 47.616C39.6501 46.2274 41.616 44.9094 43.6883 43.7129C45.6904 42.5576 47.8449 41.525 50.1889 40.9071C50.4042 40.8508 50.3137 40.5707 50.0945 40.6224Z" fill="black" fill-opacity="0.2"/>
<path d="M56.9453 48.369C52.7534 47.8085 48.3687 47.8493 44.0848 48.6886C39.5281 49.5808 35.4471 51.403 31.824 53.7982C29.6825 55.2133 27.5635 56.7673 25.7572 58.4366C25.5365 58.6408 25.9142 58.9249 26.1701 58.7361C27.9588 57.4142 29.605 55.993 31.4516 54.7136C33.2832 53.4452 35.2413 52.2683 37.3646 51.315C41.1915 49.5965 45.4662 48.6933 49.736 48.4638C52.139 48.3349 54.5489 48.3981 56.8965 48.6302C57.1151 48.6515 57.154 48.3971 56.9453 48.369Z" fill="black" fill-opacity="0.2"/>
<path d="M57.0436 48.4385C54.9442 48.95 53.2215 50.1298 51.4022 51.0735C49.5115 52.0543 47.5476 52.9523 45.5332 53.7588C41.5401 55.358 37.3243 56.5986 33.0204 57.4303C30.6149 57.8952 28.1795 58.2319 25.7414 58.4455C25.3405 58.4807 25.4157 58.9433 25.8126 58.9112C34.4197 58.1974 43.0161 55.8199 50.4567 52.0298C51.5178 51.4892 52.5482 50.9156 53.5696 50.3293C54.6873 49.6881 55.8239 49.0692 57.1401 48.7293C57.3609 48.6718 57.2673 48.3835 57.0436 48.4385Z" fill="black" fill-opacity="0.2"/>
<path d="M56.9532 48.4689C52.9364 48.2676 48.8428 48.9175 44.899 49.82C42.9054 50.2761 40.8655 50.7368 38.932 51.3599C36.8601 52.0274 35.0039 53.0671 33.2012 54.1079C31.0599 55.3434 29.0152 56.6768 27.07 58.0933C26.797 58.292 27.1292 58.6193 27.4039 58.419C29.0566 57.2167 30.78 56.0732 32.5758 55.0001C34.3675 53.929 36.2354 52.8182 38.2688 52.0544C40.194 51.3314 42.2899 50.8627 44.3112 50.3772C46.2227 49.9177 48.1525 49.5107 50.0991 49.2013C52.359 48.8425 54.6419 48.6724 56.9026 48.7353C57.1265 48.7412 57.176 48.4804 56.9532 48.4689Z" fill="black" fill-opacity="0.2"/>
<path d="M56.3729 48.6439C52.6669 48.7596 49.09 49.7454 45.6562 50.9654C41.6849 52.377 37.7834 53.9469 33.8701 55.4645C32.713 55.913 31.5573 56.3614 30.4002 56.81C29.1844 57.2816 27.9015 57.7059 26.7365 58.2535C26.4439 58.3912 26.5987 58.7142 26.9264 58.6128C27.9744 58.2878 28.9855 57.8388 29.9988 57.4466C31.0194 57.0513 32.0407 56.6564 33.0612 56.2611C35.1377 55.4574 37.21 54.648 39.2815 53.8374C42.8334 52.4482 46.3908 50.9779 50.1318 49.9685C52.1674 49.4189 54.2572 49.014 56.3682 48.8653C56.5342 48.854 56.5392 48.6388 56.3729 48.6439Z" fill="black" fill-opacity="0.2"/>
<path d="M55.9671 48.7243C52.1885 50.0911 48.4347 51.4982 44.6713 52.8933C41.0247 54.2452 37.3198 55.4172 33.5157 56.4151C31.3957 56.9709 29.2388 57.4408 27.1374 58.0465C26.9742 58.0932 27.0416 58.2945 27.2094 58.2616C29.0711 57.8959 30.9107 57.4107 32.7428 56.944C34.6652 56.4538 36.5789 55.9364 38.4711 55.3665C42.2763 54.2198 45.9433 52.7868 49.6314 51.4086C51.7902 50.6019 53.9367 49.7738 56.0838 48.9452C56.2737 48.8711 56.1602 48.6546 55.9671 48.7243Z" fill="black" fill-opacity="0.2"/>
<path d="M30.494 44.9402C30.3288 47.3569 29.4222 49.7346 28.2464 52.035C27.6608 53.1808 27.0123 54.3107 26.3458 55.4344C25.6809 56.5563 24.8833 57.6832 24.3756 58.8444C24.2843 59.0531 24.6326 59.1336 24.7697 58.9462C25.5621 57.8647 26.166 56.684 26.8245 55.5577C27.5087 54.3877 28.1742 53.211 28.7663 52.0163C29.9017 49.7259 30.7707 47.3554 30.9114 44.9574C30.9226 44.7528 30.5084 44.7313 30.494 44.9402Z" fill="black" fill-opacity="0.2"/>
<path d="M30.695 44.7179C27.2597 47.8593 23.4946 50.8046 20.6066 54.2605C18.0529 57.3177 16.2136 60.7547 16.2182 64.2881C16.2208 66.0652 16.6929 67.8213 17.7409 69.346C17.9282 69.6179 18.5364 69.4022 18.3508 69.1252C14.103 62.7903 19.7401 55.3718 25.4026 50.0945C27.269 48.3553 29.2253 46.6731 31.0618 44.916C31.2591 44.7273 30.8951 44.535 30.695 44.7179Z" fill="black" fill-opacity="0.2"/>
<path d="M24.8419 59.2849C24.0229 61.0169 23.0606 62.7174 21.9754 64.3762C21.4269 65.2139 20.8511 66.0463 20.2183 66.8521C19.9059 67.2503 19.5766 67.6411 19.2543 68.0356C18.9461 68.4122 18.5543 68.7973 18.3592 69.2129C18.2952 69.35 18.5035 69.4935 18.6647 69.3782C19.0669 69.0902 19.3466 68.6965 19.6368 68.3426C19.9541 67.9556 20.2462 67.5566 20.5374 67.1597C21.1487 66.3253 21.7463 65.4867 22.2984 64.6313C23.4047 62.9173 24.3329 61.1539 25.1134 59.3558C25.1738 59.216 24.909 59.1436 24.8419 59.2849Z" fill="black" fill-opacity="0.2"/>
<path d="M18.5296 68.8141C19.2987 67.2437 20.0552 65.6862 20.9169 64.1385C21.7494 62.6435 22.5647 61.1434 23.3702 59.6415C25.0511 56.5076 26.6877 53.3617 28.3521 50.223C29.2921 48.451 30.3718 46.691 31.2121 44.8959C31.3084 44.6899 30.9369 44.5938 30.813 44.7926C29.8635 46.3246 29.1233 47.9432 28.3013 49.5107C27.4804 51.0771 26.6563 52.6435 25.8341 54.2101C24.2109 57.3032 22.5838 60.396 20.8881 63.4706C20.4336 64.2947 19.9505 65.1137 19.5211 65.9445C19.0459 66.8645 18.6415 67.8015 18.1939 68.7279C18.1113 68.8993 18.4442 68.9874 18.5296 68.8141Z" fill="black" fill-opacity="0.2"/>
<path d="M30.2944 45.3526C28.3063 48.4835 25.4768 51.2814 23.4479 54.398C21.5223 57.3553 20.1162 60.4759 19.0919 63.6332C18.8107 64.502 18.5623 65.3747 18.3435 66.2506C18.1292 67.11 17.8598 68.0023 17.8517 68.8669C17.8511 68.9746 18.0886 68.9855 18.128 68.8791C18.3989 68.1454 18.5044 67.3848 18.6904 66.6411C18.8843 65.8675 19.1034 65.0963 19.3423 64.3273C19.845 62.7119 20.4489 61.1091 21.1683 59.5293C22.6012 56.3812 24.5142 53.4205 26.8386 50.557C28.1946 48.886 29.5787 47.2249 30.6361 45.4413C30.738 45.2685 30.4014 45.1842 30.2944 45.3526Z" fill="black" fill-opacity="0.2"/>
<path d="M30.9623 45.0343C29.6519 46.1981 28.5413 47.4828 27.3038 48.6894C25.7462 50.2079 24.0978 51.6251 22.7707 53.2709C20.2153 56.4392 18.5155 59.9492 17.648 63.52C17.4156 64.4757 17.1442 65.5071 17.2598 66.4606C17.367 67.3471 17.8591 68.1296 17.8573 69.0395C17.8571 69.1327 18.0405 69.1128 18.0617 69.0283C18.2485 68.2956 17.8727 67.6075 17.7055 66.9157C17.4976 66.0528 17.7139 65.1613 17.9228 64.2838C18.3583 62.4534 18.9472 60.6435 19.7645 58.867C20.5733 57.1099 21.5617 55.3951 22.811 53.7699C24.0936 52.1018 25.6639 50.633 27.2661 49.1325C28.6421 47.844 29.7311 46.402 31.103 45.1112C31.1803 45.0382 31.0402 44.965 30.9623 45.0343Z" fill="black" fill-opacity="0.2"/>
<path d="M36.5077 67.9877C32.8099 68.0439 29.0692 68.9715 25.7992 70.4976C22.1497 72.2 19.1736 74.6815 16.7644 77.3646C16.0272 78.1848 15.3393 79.0291 14.6932 79.89C14.1265 80.6444 13.4422 81.446 13.3388 82.3072C13.3161 82.4984 13.6499 82.5507 13.7603 82.3691C15.5305 79.4424 17.8627 76.6586 20.7845 74.273C23.4804 72.0719 26.6678 70.3536 30.3056 69.2966C32.2962 68.7178 34.3855 68.3323 36.4641 68.2329C36.6635 68.223 36.7177 67.9843 36.5077 67.9877Z" fill="black" fill-opacity="0.2"/>
<path d="M36.2279 68.0449C31.3494 72.3274 26.1258 76.5402 19.5688 79.2665C18.7023 79.6266 17.8182 79.9592 16.9189 80.2587C15.9969 80.5664 15.0086 80.781 14.1088 81.1265C13.848 81.2267 13.9461 81.5166 14.2265 81.4818C15.06 81.3777 15.9071 81.0895 16.695 80.8363C17.5089 80.5747 18.3093 80.287 19.0964 79.975C20.6988 79.3405 22.2441 78.6099 23.7262 77.81C26.8087 76.1471 29.5737 74.1727 32.1647 72.071C33.694 70.8306 35.1515 69.5428 36.5828 68.2366C36.7803 68.0575 36.4255 67.8711 36.2279 68.0449Z" fill="black" fill-opacity="0.2"/>
<path d="M36.1728 68.1115C29.3047 69.5403 23.436 73.0839 18.5088 77.0536C17.7231 77.6866 16.9654 78.3407 16.2201 79.0016C15.4915 79.6474 14.6441 80.3037 14.0519 81.0249C13.921 81.1843 14.1559 81.403 14.3641 81.2519C15.0145 80.7784 15.5517 80.1983 16.1345 79.6763C16.7557 79.1192 17.3873 78.5686 18.031 78.0263C19.351 76.9146 20.7056 75.8301 22.1459 74.8091C24.7751 72.9455 27.6454 71.2833 30.8031 70.0218C32.5406 69.3278 34.3505 68.7519 36.2066 68.3323C36.3896 68.2904 36.3607 68.0722 36.1728 68.1115Z" fill="black" fill-opacity="0.2"/>
<path d="M35.9629 68.2324C29.7519 70.8025 24.3801 74.5286 18.9948 78.0295C18.2045 78.5429 17.4122 79.0552 16.6153 79.5625C15.8142 80.0719 14.9638 80.5519 14.1965 81.0915C13.9679 81.2529 14.2164 81.491 14.4683 81.3577C15.9301 80.5849 17.2809 79.6252 18.6416 78.7464C19.9983 77.8705 21.3475 76.9872 22.7006 76.1086C25.4172 74.3449 28.1596 72.6012 31.0483 71.0103C32.6936 70.1041 34.3857 69.2353 36.0933 68.4057C36.2289 68.34 36.1023 68.1746 35.9629 68.2324Z" fill="black" fill-opacity="0.2"/>
<path d="M35.89 68.3084C34.3026 69.1984 32.8929 70.2806 31.4487 71.303C29.9526 72.3625 28.4521 73.4189 26.9517 74.4752C24.5322 76.179 21.8451 77.6618 19.0294 78.9301C18.2389 79.2863 17.4352 79.6224 16.622 79.9423C15.8489 80.2461 15.0387 80.486 14.2701 80.7948C14.0886 80.8676 14.1437 81.1034 14.358 81.0586C15.8027 80.756 17.244 80.1211 18.5598 79.5523C20.0046 78.9278 21.4104 78.2427 22.7709 77.5066C25.7326 75.9042 28.2947 73.9641 30.9479 72.0732C32.633 70.8726 34.271 69.5806 36.1237 68.535C36.3349 68.4155 36.1018 68.1892 35.89 68.3084Z" fill="black" fill-opacity="0.2"/>
<path d="M60.0978 28.9329C58.1192 31.9815 55.2326 34.6702 51.9699 37.0008C50.3741 38.1402 48.6895 39.2042 46.969 40.2257C45.2693 41.2354 43.497 42.1692 41.8054 43.1867C40.9143 43.7234 40.0537 44.2996 39.3162 44.963C38.6919 45.5249 37.887 46.3128 37.7965 47.0498C37.7808 47.1768 37.997 47.2488 38.1051 47.1309C38.3783 46.8331 38.5323 46.4989 38.7734 46.1879C39.0485 45.8332 39.3745 45.4992 39.7274 45.185C40.4366 44.5549 41.2682 44.0064 42.1191 43.494C43.81 42.4752 45.5808 41.5407 47.2804 40.53C50.6796 38.5086 53.9392 36.2965 56.6319 33.7065C58.1431 32.2528 59.432 30.6948 60.4374 29.0198C60.54 28.8495 60.206 28.7665 60.0978 28.9329Z" fill="black" fill-opacity="0.2"/>
<path d="M60.113 28.8018C58.3616 29.7134 56.4163 30.3186 54.5576 31.0629C52.7433 31.7894 51.1028 32.6988 49.5953 33.7792C46.4151 36.0588 43.6499 38.7389 41.35 41.5516C40.0542 43.1357 38.7508 44.8386 37.9745 46.5941C37.8844 46.7979 38.2251 46.8766 38.3586 46.6938C39.434 45.2172 40.3618 43.6957 41.5029 42.2419C42.6172 40.8222 43.847 39.4515 45.1842 38.1415C47.8028 35.5757 50.8214 33.0609 54.5729 31.4952C56.5104 30.687 58.5369 30.0251 60.3556 29.0398C60.58 28.9173 60.3365 28.6856 60.113 28.8018Z" fill="black" fill-opacity="0.2"/>
<path d="M59.9757 29.0272C56.6355 31.1576 53.2936 33.2897 50.0925 35.5458C47.2081 37.5787 44.3628 39.7079 41.8995 42.0484C41.3248 42.5946 40.7584 43.1462 40.2243 43.7152C39.8002 44.1675 39.2822 44.6574 39.0942 45.1924C39.0465 45.3277 39.2921 45.3619 39.3911 45.2706C39.8241 44.8684 40.1413 44.3864 40.5273 43.9561C40.9696 43.4635 41.4335 42.9809 41.9135 42.5087C42.9717 41.4683 44.1306 40.4866 45.3136 39.5275C48.2619 37.137 51.4438 34.9233 54.6916 32.7795C56.5064 31.5813 58.344 30.4048 60.1816 29.2283C60.3607 29.1148 60.1553 28.9131 59.9757 29.0272Z" fill="black" fill-opacity="0.2"/>
<path d="M59.9206 29.1477C58.6527 30.4377 57.409 31.7263 56.0129 32.9417C54.5881 34.1825 53.0954 35.3737 51.5077 36.4938C49.9858 37.5677 48.3903 38.5796 46.7305 39.52C45.367 40.2927 44.0507 41.0944 42.8002 41.9778C41.4516 42.9299 40.052 43.9541 39.0179 45.1193C38.8594 45.2977 39.174 45.4708 39.3491 45.2988C41.42 43.2683 43.9415 41.4879 46.6505 39.9728C49.974 38.1138 53.0442 35.9777 55.7911 33.6204C57.3705 32.2655 58.9042 30.8135 60.1766 29.2864C60.2933 29.1467 60.0541 29.0112 59.9206 29.1477Z" fill="black" fill-opacity="0.2"/>
<path d="M91.2299 38.6668C91.2622 38.5676 91.4959 38.4529 91.5961 38.3964C91.7354 38.3182 91.8838 38.25 92.0294 38.1803C92.3218 38.0399 92.6129 37.8618 92.8199 37.6469C93.1874 37.2648 93.3191 36.7357 93.0289 36.3448C92.9539 36.2434 92.7107 36.2792 92.7378 36.4191C92.8193 36.8405 92.6913 37.2944 92.2292 37.5996C91.9774 37.7654 91.6896 37.8946 91.4303 38.053C91.1861 38.2023 90.8716 38.4055 90.8209 38.6491C90.7778 38.8556 91.165 38.8633 91.2299 38.6668Z" fill="black" fill-opacity="0.2"/>
<path d="M92.7936 36.4506C93.1223 36.6753 93.2977 37.0437 93.2343 37.3959C93.1988 37.5899 93.0927 37.7764 92.9351 37.9378C92.8582 38.0165 92.7718 38.0874 92.6734 38.151C92.5578 38.2254 92.4191 38.2787 92.3581 38.3894C92.3153 38.4672 92.3843 38.5314 92.4783 38.5436C92.6438 38.5649 92.8076 38.4608 92.9302 38.378C93.0539 38.294 93.1669 38.1991 93.2613 38.0959C93.4524 37.8882 93.584 37.645 93.6225 37.3995C93.6945 36.9389 93.4616 36.5021 93.0064 36.2328C92.8377 36.1315 92.6397 36.3451 92.7936 36.4506Z" fill="black" fill-opacity="0.2"/>
<path d="M92.691 38.5621C93.0689 38.4745 93.4322 38.5713 93.7868 38.6287C93.9672 38.6582 94.148 38.6907 94.3257 38.7285C94.5341 38.7731 94.6993 38.8888 94.927 38.8912C95.0167 38.8924 95.1043 38.8015 95.0353 38.7465C94.877 38.6203 94.7034 38.4974 94.4862 38.4293C94.3001 38.3709 94.1074 38.3125 93.9126 38.2708C93.5046 38.1828 93.0185 38.1445 92.5965 38.2796C92.388 38.3463 92.4703 38.6133 92.691 38.5621Z" fill="black" fill-opacity="0.2"/>
<path d="M94.8688 38.6541C94.4223 38.7454 93.969 38.8403 93.5143 38.8824C93.312 38.9011 93.1084 38.9033 92.9073 38.8954C92.807 38.8916 92.7068 38.8834 92.6087 38.8685C92.4994 38.8519 92.3906 38.8136 92.278 38.8612C92.215 38.888 92.185 38.9387 92.2075 38.9878C92.2475 39.0753 92.3657 39.0984 92.4742 39.118C92.5835 39.1381 92.6952 39.1534 92.8079 39.1621C93.0362 39.1811 93.2708 39.1692 93.5034 39.1439C93.9917 39.0908 94.4587 38.9585 94.9263 38.8257C95.0569 38.7895 95.0033 38.6261 94.8688 38.6541Z" fill="black" fill-opacity="0.2"/>
<path d="M92.299 39.0817C92.5204 39.1085 92.6225 39.2979 92.7128 39.4323C92.8184 39.5884 92.9393 39.7357 93.0927 39.8654C93.4018 40.127 93.8152 40.3009 94.286 40.3508C94.4913 40.3726 94.5375 40.149 94.3779 40.0916C93.9751 39.9478 93.586 39.7537 93.3004 39.494C93.0193 39.2376 92.869 38.8376 92.3481 38.8164C92.1235 38.8076 92.0864 39.056 92.299 39.0817Z" fill="black" fill-opacity="0.2"/>
<path d="M94.1988 40.0942C93.6867 40.0659 93.1848 40.0305 92.7168 39.8836C92.5113 39.8193 92.3273 39.7487 92.1609 39.6375C92.0836 39.586 92.0128 39.5299 91.9527 39.4653C91.8896 39.3982 91.8426 39.329 91.7496 39.2824C91.6809 39.248 91.5643 39.2684 91.5334 39.3385C91.4452 39.536 91.6183 39.743 91.7734 39.8794C91.9504 40.0339 92.1904 40.1508 92.4404 40.2292C92.6918 40.3085 93.0022 40.3238 93.2794 40.3248C93.5837 40.3261 93.8902 40.3026 94.1961 40.2797C94.3371 40.2681 94.3322 40.1017 94.1988 40.0942Z" fill="black" fill-opacity="0.2"/>
<path d="M91.0759 38.5993C90.381 38.8799 90.3756 39.484 90.5051 39.9619C90.5689 40.1985 90.677 40.4269 90.6801 40.6743C90.6818 40.7907 90.6671 40.9131 90.6196 41.0273C90.573 41.1385 90.4373 41.2556 90.4606 41.3707C90.4714 41.4242 90.5323 41.457 90.6035 41.4476C90.8897 41.4115 90.9812 41.0422 91.0036 40.8693C91.0344 40.6332 90.9974 40.391 90.9533 40.1615C90.911 39.9389 90.8493 39.7121 90.867 39.4828C90.8852 39.2486 90.9714 38.9755 91.2483 38.8276C91.4244 38.7348 91.263 38.5237 91.0759 38.5993Z" fill="black" fill-opacity="0.2"/>
<path d="M91.5713 39.2657C91.288 39.6216 91.3012 40.0081 91.2356 40.396C91.2042 40.5826 91.1476 40.771 91.0206 40.9405C90.8939 41.1084 90.7263 41.2293 90.5144 41.3315C90.423 41.3753 90.4111 41.4809 90.4559 41.5404C90.5093 41.6106 90.6121 41.6247 90.7142 41.5961C91.2512 41.4451 91.4863 40.9985 91.5831 40.6145C91.6795 40.2319 91.5927 39.7807 91.8699 39.4267C91.9984 39.2624 91.7039 39.0993 91.5713 39.2657Z" fill="black" fill-opacity="0.2"/>
<path d="M93.7086 37.8228C96.0567 35.9336 99.5618 35.3966 102.352 36.537C103.762 37.1131 104.792 38.0121 105.608 39.0471C106.485 40.1608 106.954 41.3886 107.629 42.5771C107.699 42.7007 107.974 42.6392 107.947 42.4966C107.684 41.1445 106.826 39.7895 105.94 38.6503C105.044 37.4978 103.87 36.5395 102.265 35.9579C99.4426 34.9359 95.3894 35.3981 93.3878 37.6499C93.2308 37.8278 93.524 37.9715 93.7086 37.8228Z" fill="black" fill-opacity="0.2"/>
<path d="M107.852 42.531C107.839 42.533 107.826 42.534 107.813 42.535C107.829 42.5345 107.844 42.5332 107.86 42.5322C107.78 42.536 107.7 42.5287 107.623 42.5173C107.638 42.5194 107.653 42.5221 107.668 42.5242C107.646 42.5208 107.622 42.517 107.599 42.5126C107.559 42.505 107.546 42.5041 107.503 42.5082C107.497 42.509 107.493 42.5092 107.488 42.51C107.478 42.511 107.468 42.5116 107.457 42.5122C107.471 42.5115 107.485 42.5109 107.498 42.5099C107.479 42.5113 107.46 42.5118 107.441 42.5103C107.437 42.5099 107.434 42.5099 107.43 42.5095C107.412 42.5082 107.464 42.5156 107.448 42.5122C107.435 42.5091 107.412 42.5 107.452 42.5164C107.413 42.5003 107.371 42.4958 107.328 42.5173C107.291 42.5352 107.26 42.5728 107.269 42.6064C107.279 42.6456 107.305 42.6787 107.338 42.7074C107.371 42.7339 107.406 42.763 107.452 42.7756C107.477 42.7821 107.505 42.7866 107.532 42.7904C107.645 42.808 107.771 42.8262 107.891 42.8078C107.986 42.7932 108.069 42.7157 108.053 42.6419C108.041 42.5679 107.954 42.5139 107.852 42.531Z" fill="black" fill-opacity="0.2"/>
<path d="M107.289 42.8487C107.498 43.0644 107.54 43.345 107.591 43.6109C107.619 43.7587 107.651 43.9049 107.702 44.0478C107.758 44.2071 107.86 44.3299 108.06 44.3983C108.156 44.4318 108.258 44.3487 108.252 44.2764C108.237 44.1284 108.172 44.0055 108.112 43.8694C108.055 43.7378 108.022 43.6124 107.981 43.4729C107.899 43.1895 107.806 42.9015 107.558 42.6819C107.424 42.5621 107.166 42.7217 107.289 42.8487Z" fill="black" fill-opacity="0.2"/>
<path d="M108.08 44.1264C107.829 44.3084 107.554 44.4388 107.233 44.5282C107.107 44.5636 106.934 44.5987 106.785 44.6192C106.622 44.6406 106.408 44.636 106.279 44.7329C106.231 44.7689 106.217 44.8167 106.254 44.8576C106.367 44.9805 106.626 44.9598 106.809 44.9411C106.998 44.9213 107.183 44.8824 107.364 44.8275C107.713 44.7217 108.04 44.5561 108.307 44.3488C108.383 44.2896 108.415 44.2061 108.349 44.1416C108.292 44.0848 108.159 44.0691 108.08 44.1264Z" fill="black" fill-opacity="0.2"/>
<path d="M106.316 44.9496C106.325 44.9523 106.333 44.9559 106.341 44.9586C106.324 44.9519 106.306 44.9451 106.29 44.9388C106.366 44.9692 106.436 45.007 106.498 45.0511C106.484 45.0408 106.47 45.0306 106.456 45.0204C106.509 45.0588 106.556 45.1017 106.596 45.1491C106.626 45.1837 106.694 45.2064 106.748 45.209C106.803 45.2116 106.872 45.1955 106.916 45.1666C106.963 45.1351 107.001 45.0916 107.007 45.0445C107.013 44.997 106.999 44.9575 106.966 44.92C106.849 44.7877 106.683 44.6903 106.494 44.6231C106.447 44.6069 106.372 44.615 106.324 44.6322C106.272 44.6511 106.219 44.6909 106.198 44.7332C106.178 44.7755 106.172 44.823 106.196 44.8625C106.206 44.8749 106.214 44.8874 106.224 44.8998C106.247 44.923 106.278 44.9396 106.316 44.9496Z" fill="black" fill-opacity="0.2"/>
<path d="M106.765 44.6875C103.439 44.9239 100.072 46.4212 96.7504 45.9731C93.6149 45.5496 91.3918 42.9606 91.7941 40.5052C91.8238 40.3243 91.4524 40.2525 91.3763 40.4439C90.9098 41.6214 91.5186 42.8722 92.1987 43.8567C92.9837 44.9931 94.1835 45.8818 95.8215 46.2841C99.4318 47.1718 103.167 45.3679 106.819 45.0463C107.13 45.0199 107.068 44.6659 106.765 44.6875Z" fill="black" fill-opacity="0.2"/>
<path d="M107.394 42.4744C105.785 40.463 103.848 38.6325 100.807 37.8646C99.5455 37.5459 98.1853 37.3959 96.8174 37.4553C96.1334 37.4844 95.4505 37.5645 94.7782 37.705C94.2979 37.8055 93.4852 37.9035 93.2256 38.2685C93.1885 38.3202 93.2361 38.389 93.3 38.4037C93.5441 38.4619 93.6791 38.4002 93.9315 38.33C94.2849 38.2319 94.641 38.1468 95.0045 38.0801C95.6575 37.9606 96.3243 37.8925 96.9844 37.8755C98.2761 37.8424 99.548 37.9959 100.734 38.3102C101.86 38.6086 102.895 39.0566 103.786 39.6423C105.087 40.4989 106.091 41.5997 107.151 42.6262C107.268 42.7404 107.49 42.5934 107.394 42.4744Z" fill="black" fill-opacity="0.2"/>
<path d="M106.602 44.4172C105.119 44.4001 103.653 44.6575 102.202 44.9855C101.332 45.1823 100.467 45.4198 99.5779 45.5439C97.1754 45.8795 95.1752 45.2216 93.207 44.396C93.0741 44.3404 92.9292 44.4809 93.0524 44.5543C94.7293 45.561 96.9757 46.1887 99.2341 45.9516C100.034 45.8672 100.81 45.676 101.587 45.4904C103.214 45.1009 104.864 44.7414 106.54 44.7542C106.821 44.7555 106.886 44.4206 106.602 44.4172Z" fill="black" fill-opacity="0.2"/>
<path d="M93.5524 38.5453C96.181 38.3721 98.8043 38.3412 101.112 39.2434C101.172 39.2666 101.239 39.2032 101.181 39.1729C99.0274 38.061 96.122 38.1971 93.5289 38.3956C93.4001 38.4054 93.426 38.5537 93.5524 38.5453Z" fill="black" fill-opacity="0.2"/>
<path d="M101.967 37.3895C100.636 37.0085 99.1656 36.8671 97.7008 36.9397C96.928 36.978 96.1545 37.0802 95.4027 37.2688C94.6828 37.4491 93.8821 37.7099 93.3082 38.1165C93.2564 38.1529 93.3005 38.2286 93.3693 38.197C94.0713 37.8698 94.7305 37.5654 95.5125 37.378C96.2644 37.1982 97.044 37.102 97.8137 37.0691C99.2102 37.0099 100.637 37.1393 101.923 37.4722C101.99 37.4889 102.033 37.4083 101.967 37.3895Z" fill="black" fill-opacity="0.2"/>
<path d="M101.149 36.4199C99.8715 36.065 98.4046 36.1199 97.04 36.395C96.3264 36.5393 95.6251 36.748 94.9628 37.016C94.3694 37.2565 93.7321 37.5529 93.2861 37.9487C93.2205 38.007 93.3244 38.0681 93.3968 38.0293C93.9733 37.7246 94.5108 37.4025 95.1319 37.1525C95.7645 36.8972 96.4297 36.6989 97.1093 36.5564C98.4285 36.2805 99.838 36.2106 101.083 36.5392C101.181 36.5651 101.246 36.4466 101.149 36.4199Z" fill="black" fill-opacity="0.2"/>
<path d="M103.339 41.603C101.909 40.7147 100.141 40.3275 98.3103 40.0664C97.3702 39.9325 96.4252 39.8103 95.4895 39.6616C95.0261 39.5883 94.5644 39.5088 94.1083 39.4179C93.7315 39.3429 93.3583 39.2222 92.9641 39.198C92.9085 39.194 92.8742 39.2563 92.9208 39.2787C93.5493 39.5911 94.492 39.6681 95.2317 39.7882C96.0795 39.9253 96.9352 40.0406 97.79 40.1591C99.7348 40.4287 101.723 40.7478 103.29 41.655C103.329 41.6767 103.376 41.6269 103.339 41.603Z" fill="black" fill-opacity="0.2"/>
<path d="M101.55 42.0091C100.353 41.4677 98.9951 41.2007 97.6382 40.9341C96.9645 40.8015 96.2887 40.6678 95.6318 40.4975C94.8932 40.3056 94.2435 40.0302 93.5665 39.7499C93.4998 39.7219 93.433 39.7894 93.4901 39.8284C94.4893 40.5072 95.9923 40.7816 97.2856 41.0318C98.7152 41.3089 100.179 41.5566 101.458 42.1036C101.536 42.1378 101.629 42.0457 101.55 42.0091Z" fill="black" fill-opacity="0.2"/>
<path d="M103.596 43.8343C101.694 43.1578 99.5936 42.936 97.6019 42.4348C96.6836 42.2035 95.7965 41.8934 94.9809 41.512C94.5875 41.3282 94.2099 41.1258 93.8573 40.8999C93.5011 40.6721 93.2117 40.3903 92.8341 40.1834C92.6961 40.1079 92.4843 40.237 92.553 40.3598C92.8861 40.9496 93.7462 41.3876 94.4236 41.7267C95.2415 42.1365 96.134 42.4603 97.0735 42.6994C99.1732 43.2329 101.443 43.3855 103.504 44.0029C103.642 44.0442 103.724 43.8801 103.596 43.8343Z" fill="black" fill-opacity="0.2"/>
<path d="M98.7629 43.5585C96.0168 43.0394 93.0495 42.3396 92.3309 40.002C92.3136 39.9454 92.2002 39.9593 92.2083 40.0208C92.3407 41.0077 93.2527 41.8393 94.2454 42.378C95.5439 43.0825 97.1517 43.3767 98.7056 43.6644C98.7943 43.6807 98.8522 43.5751 98.7629 43.5585Z" fill="black" fill-opacity="0.2"/>
<path d="M97.249 44.7081C95.5151 44.5796 93.763 43.921 93.0046 42.7168C92.4096 41.7717 92.1149 40.6966 91.9123 39.6435C91.9009 39.5863 91.7904 39.6037 91.7946 39.6615C91.8725 40.7987 92.283 42.0257 92.9834 42.9937C93.7941 44.116 95.5681 44.7013 97.232 44.8046C97.3121 44.8093 97.3293 44.7138 97.249 44.7081Z" fill="black" fill-opacity="0.2"/>
</svg>
