<svg width="24" height="24" viewBox="0 0 24 24" fill="none" xmlns="http://www.w3.org/2000/svg">
<path fill-rule="evenodd" clip-rule="evenodd" d="M24 11.999C24 15.1816 22.7357 18.2339 20.4853 20.4843C18.2348 22.7347 15.1826 23.999 12 23.999C8.8174 23.999 5.76516 22.7347 3.51472 20.4843C1.26428 18.2339 0 15.1816 0 11.999C0 8.81643 1.26428 5.76418 3.51472 3.51374C5.76516 1.26331 8.8174 -0.000976562 12 -0.000976562C15.1826 -0.000976562 18.2348 1.26331 20.4853 3.51374C22.7357 5.76418 24 8.81643 24 11.999V11.999ZM18.045 7.45402C17.9379 7.34725 17.8103 7.26318 17.6699 7.20685C17.5295 7.15051 17.3792 7.12306 17.228 7.12614C17.0768 7.12922 16.9277 7.16277 16.7897 7.22478C16.6518 7.28678 16.5277 7.37598 16.425 7.48702L11.2155 14.1245L8.076 10.9835C7.86274 10.7848 7.58067 10.6766 7.28922 10.6818C6.99776 10.6869 6.71969 10.805 6.51357 11.0111C6.30745 11.2172 6.18938 11.4953 6.18424 11.7867C6.1791 12.0782 6.28728 12.3603 6.486 12.5735L10.455 16.544C10.5619 16.6508 10.6892 16.7349 10.8294 16.7913C10.9695 16.8478 11.1196 16.8754 11.2706 16.8726C11.4217 16.8698 11.5706 16.8366 11.7085 16.775C11.8465 16.7134 11.9706 16.6246 12.0735 16.514L18.0615 9.02902C18.2656 8.81677 18.3784 8.53294 18.3756 8.23846C18.3728 7.94398 18.2546 7.66235 18.0465 7.45402H18.045Z" fill="black"/>
</svg>
