<svg width="25" height="24" viewBox="0 0 25 24" fill="none" xmlns="http://www.w3.org/2000/svg">
<circle cx="12.5" cy="11.999" r="12" fill="white"/>
<path fill-rule="evenodd" clip-rule="evenodd" d="M16.8098 11.1315C16.9587 11.2194 17.0823 11.3457 17.1682 11.4979C17.2542 11.65 17.2994 11.8226 17.2994 11.9982C17.2994 12.1738 17.2542 12.3464 17.1682 12.4985C17.0823 12.6506 16.9587 12.777 16.8098 12.8649L10.3691 16.6637C10.2204 16.7525 10.0513 16.7992 9.87906 16.7992C9.70685 16.7992 9.53774 16.7525 9.38906 16.6637C9.23951 16.5766 9.11535 16.4504 9.02931 16.2981C8.94327 16.1458 8.89844 15.9729 8.89943 15.797V8.19952C8.89956 8.0239 8.94492 7.8514 9.03095 7.69935C9.11699 7.5473 9.24066 7.42104 9.38957 7.33325C9.53847 7.24547 9.70737 7.19924 9.87929 7.19922C10.0512 7.19919 10.2201 7.24537 10.3691 7.33312L16.8098 11.1315Z" fill="black"/>
</svg>
