<svg width="65" height="55" viewBox="0 0 65 55" fill="none" xmlns="http://www.w3.org/2000/svg">
<path d="M52.8846 0.100586L65 6.31641C62.5641 8.25886 60.1923 10.4603 57.8846 12.9207C55.5769 15.2517 53.4615 17.6474 51.5385 20.1078C49.7436 22.5682 48.2692 25.0934 47.1154 27.6833C45.9615 30.1438 45.2564 32.6689 45 35.2589L42.5 32.7337C43.3974 32.0862 44.2308 31.6977 45 31.5682C45.8974 31.4387 46.859 31.374 47.8846 31.374C51.7308 31.374 54.8077 32.4099 57.1154 34.4819C59.5513 36.4243 60.7692 39.1438 60.7692 42.6402C60.7692 46.0071 59.5513 48.7912 57.1154 50.9927C54.8077 53.0646 51.9872 54.1006 48.6538 54.1006C44.8077 54.1006 41.6667 52.9351 39.2308 50.6042C36.7949 48.2733 35.5769 44.5179 35.5769 39.338C35.5769 35.5826 36.0256 31.892 36.9231 28.2661C37.9487 24.5107 39.2308 20.9495 40.7692 17.5826C42.3077 14.2157 44.1026 11.043 46.1538 8.06461C48.2051 5.08619 50.4487 2.43152 52.8846 0.100586ZM17.3077 0.100586L29.4231 6.31641C26.9872 8.25886 24.6154 10.4603 22.3077 12.9207C20 15.2517 17.8846 17.6474 15.9615 20.1078C14.0385 22.5682 12.5 25.0934 11.3462 27.6833C10.1923 30.1438 9.55128 32.6689 9.42308 35.2589L6.73077 32.7337C7.75641 32.0862 8.65385 31.6977 9.42308 31.5682C10.3205 31.4387 11.2179 31.374 12.1154 31.374C16.0897 31.374 19.2308 32.4099 21.5385 34.4819C23.8462 36.4243 25 39.1438 25 42.6402C25 46.0071 23.8462 48.7912 21.5385 50.9927C19.2308 53.0646 16.4103 54.1006 13.0769 54.1006C9.10256 54.1006 5.89744 52.9351 3.46154 50.6042C1.15385 48.2733 0 44.5179 0 39.338C0 35.5826 0.448718 31.892 1.34615 28.2661C2.37179 24.5107 3.65385 20.9495 5.19231 17.5826C6.73077 14.2157 8.52564 11.043 10.5769 8.06461C12.6282 5.08619 14.8718 2.43152 17.3077 0.100586Z" fill="#ADB5BD"/>
</svg>
