<svg width="24" height="24" viewBox="0 0 24 24" fill="none" xmlns="http://www.w3.org/2000/svg">
<path d="M24.0053 11.9975C24.0053 18.0582 19.514 23.0688 13.6795 23.8819C13.1339 23.9576 12.5758 23.9971 12.0092 23.9971C11.3553 23.9971 10.713 23.9449 10.0876 23.844C4.37584 22.9242 0.0131836 17.97 0.0131836 11.9975C0.0131836 5.37001 5.38455 -0.00292969 12.0101 -0.00292969C18.6356 -0.00292969 24.007 5.37001 24.007 11.9975H24.0053Z" fill="white"/>
<path d="M13.6794 9.63295V12.2471H16.9123L16.4004 15.7685H13.6794V23.8818C13.1338 23.9574 12.5757 23.997 12.0091 23.997C11.3551 23.997 10.7129 23.9448 10.0875 23.8439V15.7685H7.10596V12.2471H10.0875V9.04857C10.0875 7.0642 11.6956 5.45483 13.6802 5.45483V5.45652C13.6861 5.45652 13.6911 5.45483 13.697 5.45483H16.9131V8.50035H14.8116C14.1871 8.50035 13.6802 9.00737 13.6802 9.63211L13.6794 9.63295Z" fill="black"/>
</svg>
