<svg width="126" height="32" viewBox="0 0 126 32" fill="none" xmlns="http://www.w3.org/2000/svg">
<path d="M63.3944 22.7496C61.2348 21.9773 59.3754 20.4116 58.2082 18.4416C57.6236 17.4552 57.1474 16.3078 57.0122 15.1604C56.9356 14.5092 57.0444 13.7205 57.664 13.3549C58.341 12.9558 59.0571 13.5216 59.6165 13.8738C59.7762 13.9745 59.9546 13.7434 59.8183 13.6123C59.07 12.8985 57.9115 12.3655 57.0725 13.2595C56.2914 14.0921 56.4991 15.326 56.7747 16.3242C57.3323 18.3422 58.558 20.1729 60.1746 21.497C61.095 22.2506 62.1417 22.8269 63.2662 23.213C63.5605 23.3142 63.6834 22.8526 63.3944 22.7496Z" fill="#231F20"/>
<path d="M60.0631 13.672C59.9683 12.4714 60.2228 11.1327 60.9893 10.172C61.6686 9.32068 62.751 8.77538 63.8515 8.95793C64.9164 9.13404 65.8291 9.87944 66.3668 10.7933C67.0233 11.9097 67.1292 13.1776 67.1918 14.4414C67.2041 14.6824 67.5493 14.6807 67.5657 14.4414C67.7014 12.417 67.0467 10.1105 65.2265 8.99947C64.4512 8.52613 63.5046 8.32486 62.6164 8.56182C61.7072 8.80405 60.9267 9.43828 60.4293 10.2276C59.7752 11.2655 59.6763 12.4807 59.8226 13.672C59.8413 13.8218 60.0754 13.8288 60.0631 13.672Z" fill="#231F20"/>
<path d="M67.4401 14.7818C67.5811 16.3229 67.2973 17.8669 66.6619 19.2764C66.0213 20.6982 65.0336 21.7806 63.9056 22.8302C63.8436 22.8882 63.9231 22.9888 63.9957 22.9467C65.3274 22.1703 66.3226 20.7596 66.9399 19.3753C67.5794 17.9407 67.8327 16.3445 67.6753 14.7818C67.6607 14.6332 67.4261 14.6308 67.4401 14.7818Z" fill="#231F20"/>
<path d="M63.8054 23.1432C64.2238 23.1432 64.2244 22.4932 63.8054 22.4932C63.3871 22.4932 63.3865 23.1432 63.8054 23.1432Z" fill="#231F20"/>
<path d="M59.775 14.2493C60.2126 15.7384 60.7515 17.1935 61.3793 18.6123C61.6905 19.315 62.0258 20.0078 62.3845 20.6877C62.5688 21.0375 62.7613 21.3822 62.9614 21.7233C63.1527 22.0492 63.3305 22.4242 63.605 22.6881C63.7091 22.7881 63.9057 22.6892 63.8571 22.5412C63.7506 22.2165 63.5388 21.9327 63.3662 21.6396C63.1661 21.2991 62.9719 20.955 62.78 20.6093C62.4079 19.9376 62.0586 19.2536 61.7327 18.5579C61.0686 17.1391 60.5192 15.6688 60.0658 14.1698C60.0102 13.9837 59.72 14.0621 59.775 14.2493Z" fill="#231F20"/>
<path d="M67.2168 11.507C67.7177 10.4486 69.1307 10.1052 70.0065 10.9208C70.4647 11.3473 70.5694 11.9663 70.6332 12.5608C70.694 13.1271 70.7332 13.6982 70.735 14.2681C70.7391 15.4605 70.5665 16.6821 69.9937 17.7441C69.4413 18.768 68.5778 19.5643 67.7107 20.3196C66.6616 21.233 65.5921 22.2317 64.2932 22.7735C64.0556 22.8724 64.1393 23.2106 64.4008 23.1632C65.0625 23.0438 65.6114 22.6641 66.1297 22.2534C66.7248 21.7824 67.2947 21.2768 67.8581 20.7684C68.8767 19.8498 69.9264 18.878 70.5009 17.606C71.0527 16.3843 71.1656 15.0205 71.1007 13.6958C71.0445 12.5508 71.0217 11.0945 69.927 10.4234C68.8329 9.75294 67.4918 10.2643 67.0343 11.4286C66.9933 11.5345 67.1683 11.6088 67.2168 11.507Z" fill="#231F20"/>
<path d="M68.2955 17.5092C67.8836 18.4231 67.3418 19.2943 66.731 20.0871C66.4226 20.4867 66.0885 20.8664 65.7316 21.2227C65.366 21.5878 64.9494 21.8979 64.5895 22.266C64.5117 22.3455 64.6106 22.4719 64.7077 22.4187C65.1542 22.1735 65.5374 21.7996 65.9007 21.4463C66.2799 21.0765 66.6338 20.681 66.9603 20.2638C67.6016 19.4441 68.0884 18.5471 68.4745 17.5847C68.5137 17.4829 68.3405 17.4091 68.2955 17.5092Z" fill="#231F20"/>
<path d="M59.3131 17.4184C59.8718 18.54 60.5552 19.5885 61.351 20.5568C61.7406 21.0307 62.1508 21.4947 62.5943 21.9183C62.9219 22.2307 63.4274 22.7158 63.9207 22.6385C63.9985 22.6262 64.0213 22.5127 63.9669 22.463C63.7913 22.3027 63.5515 22.2202 63.3531 22.0897C63.1214 21.9382 62.9155 21.7515 62.7183 21.5585C62.297 21.1466 61.9004 20.7077 61.5241 20.2549C60.7629 19.3375 60.0872 18.3469 59.4945 17.3125C59.4266 17.1943 59.2534 17.2984 59.3131 17.4184Z" fill="#231F20"/>
<path d="M62.3684 15.9998C62.5363 17.1594 62.7201 18.3144 62.9635 19.4606C63.0828 20.0211 63.2197 20.5775 63.3613 21.1328C63.507 21.7044 63.6363 22.3 63.861 22.8459C63.9294 23.0127 64.1641 22.9524 64.1325 22.771C64.0353 22.2093 63.8505 21.6576 63.703 21.107C63.5497 20.5325 63.4075 19.955 63.2619 19.3787C62.9763 18.2489 62.6943 17.1173 62.4527 15.977C62.441 15.9208 62.3608 15.9454 62.3684 15.9998Z" fill="#231F20"/>
<path d="M64.022 17.43C64.2362 18.3065 64.3263 19.2186 64.2906 20.1202C64.2731 20.5643 64.2222 21.0072 64.1461 21.4455C64.0677 21.8977 63.9226 22.3319 63.8348 22.7806C63.8155 22.8801 63.9559 22.955 64.008 22.8538C64.4152 22.0586 64.5352 21.0517 64.5633 20.1688C64.5937 19.221 64.4609 18.2907 64.1847 17.3844C64.1531 17.2814 63.9957 17.3241 64.022 17.43Z" fill="#231F20"/>
<path d="M65.9224 14.2414C65.9335 15.8685 65.9756 17.471 65.6474 19.0754C65.5064 19.7634 65.2741 20.4339 64.9617 21.0629C64.8078 21.3724 64.634 21.672 64.4392 21.9569C64.2555 22.2249 63.9752 22.4648 63.8752 22.7772C63.8447 22.8726 63.9524 22.9305 64.0296 22.8954C64.3029 22.7719 64.4819 22.4595 64.6469 22.2185C64.8534 21.9171 65.036 21.5983 65.1957 21.2694C65.514 20.613 65.7363 19.9179 65.9083 19.2105C66.2986 17.6068 66.2875 15.8714 66.0921 14.2414C66.0792 14.1366 65.9218 14.1296 65.9224 14.2414Z" fill="#231F20"/>
<path d="M58.0288 21.6412C58.6244 21.4078 59.1715 21.7723 59.5875 22.1754C59.9994 22.575 60.3498 23.0074 60.8284 23.3345C61.2766 23.641 61.8272 23.8242 62.3602 23.9119C62.9558 24.0102 63.6767 24.0898 64.1687 23.6791C64.4595 23.4368 64.2787 22.9659 63.9552 22.8705C63.6544 22.7816 63.3747 22.8541 63.0717 22.8722C62.8183 22.8875 62.5615 22.8828 62.3105 22.8453C61.7652 22.764 61.2041 22.5592 60.7342 22.2714C59.8771 21.7465 58.9883 20.715 57.8866 21.3036C57.707 21.4002 57.8316 21.7184 58.0288 21.6412Z" fill="#231F20"/>
<path d="M63.9305 23.2698C64.1101 23.4599 64.2803 23.6518 64.5085 23.787C64.7502 23.9303 65.0597 23.9736 65.3352 23.9935C65.9069 24.0345 66.53 23.7905 66.9969 23.4775C67.5141 23.1305 67.9605 22.6876 68.4087 22.2588C68.8592 21.8281 69.332 21.4197 69.7808 20.9885C69.9937 20.7843 69.772 20.4444 69.5017 20.5093C68.4075 20.7715 67.7493 21.8117 66.8746 22.4314C66.4715 22.7169 66.0251 22.9673 65.5336 23.0515C65.3066 23.0902 65.0848 23.1054 64.8549 23.0884C64.6209 23.0709 64.3886 23.0744 64.1844 22.941C63.9802 22.8064 63.7713 23.1007 63.9305 23.2698Z" fill="#231F20"/>
<path d="M64.0084 23.5388C65.0675 23.2919 66.0662 22.8536 66.873 22.1123C67.2826 21.7361 67.6418 21.2915 67.8671 20.7818C68.1128 20.226 68.2942 19.6257 68.3843 19.0254C68.4077 18.8715 68.2006 18.751 68.1128 18.9113C67.846 19.3987 67.6448 19.9177 67.3575 20.3963C67.0924 20.838 66.794 21.2575 66.419 21.6127C65.7116 22.2832 64.7989 22.7618 63.8692 23.0356C63.5468 23.1304 63.6808 23.6154 64.0084 23.5388Z" fill="#231F20"/>
<path d="M64.0137 22.8265C63.8101 22.6756 63.4895 22.6411 63.2478 22.5662C62.9904 22.486 62.7558 22.369 62.5223 22.235C62.0069 21.9378 61.6488 21.5183 61.2141 21.1239C60.4207 20.4031 59.1791 19.8262 58.102 20.2083C57.8445 20.2995 57.9101 20.6266 58.1634 20.6605C58.7193 20.7348 59.264 20.7975 59.7625 21.0771C60.2721 21.3626 60.6073 21.8149 61.0093 22.2251C61.3978 22.6218 61.8436 22.9629 62.3567 23.1799C62.8178 23.3748 63.538 23.6381 64.0137 23.3754C64.2401 23.2496 64.1951 22.9611 64.0137 22.8265Z" fill="#231F20"/>
<path d="M67.0437 23.3695C74.8605 19.5389 83.824 19.773 92.3096 19.9145C94.6879 19.9543 97.0728 19.9701 99.443 19.7396C101.658 19.5243 103.834 19.0679 105.95 18.381C107.976 17.7234 109.937 16.8744 111.832 15.9038C113.422 15.0893 114.983 14.2316 116.381 13.1135C117.926 11.8784 119.338 10.4642 120.618 8.95819C121.772 7.60137 122.896 6.12519 123.537 4.45008C123.612 4.25232 123.292 4.11951 123.195 4.30615C122.445 5.74664 121.474 7.07362 120.437 8.3181C119.312 9.66907 118.077 10.9375 116.748 12.0884C115.467 13.1977 114.089 14.0648 112.601 14.8699C110.692 15.9032 108.718 16.8218 106.674 17.5561C104.563 18.3149 102.378 18.8702 100.151 19.1463C97.8351 19.4336 95.4971 19.4629 93.1667 19.4441C88.8932 19.4096 84.6162 19.3008 80.3515 19.6548C75.7024 20.0415 71.0785 20.9917 66.8851 23.0998C66.7061 23.1905 66.8641 23.4578 67.0437 23.3695Z" fill="#231F20"/>
<path d="M115.089 13.7249C115.836 9.04299 120.43 6.30185 123.498 3.17631C124.341 2.3174 125.143 1.39296 125.718 0.330442C125.847 0.0928957 125.485 -0.118907 125.356 0.118639C124.261 2.1214 122.434 3.67305 120.755 5.17263C119.085 6.66344 117.388 8.17472 116.154 10.0634C115.448 11.1452 114.936 12.3482 114.749 13.6318C114.716 13.8524 115.053 13.9501 115.089 13.7249Z" fill="#231F20"/>
<path d="M125.349 0.0912766C125.052 0.707375 124.922 1.43113 124.744 2.0876C124.422 3.28469 124.112 4.48529 123.766 5.67536C123.4 6.93388 123.004 8.19007 122.512 9.4053C122.117 10.3783 121.66 11.3408 120.855 12.0388C119.259 13.4208 117.207 13.8297 115.155 13.6062C114.945 13.5834 114.91 13.9146 115.106 13.9684C116.808 14.4353 118.768 14.0146 120.261 13.1066C121.347 12.4454 122.072 11.5918 122.613 10.4585C123.751 8.07949 124.375 5.43372 124.982 2.87864C125.114 2.32397 125.243 1.76814 125.382 1.21523C125.459 0.907473 125.531 0.544134 125.654 0.269143C125.746 0.0655321 125.449 -0.11526 125.349 0.0912766Z" fill="#231F20"/>
<path d="M102.001 18.8615C102.073 17.5006 102.498 16.1917 103.006 14.9361C103.471 13.7853 104.024 12.673 104.67 11.6128C105.995 9.44157 107.686 7.62078 109.565 5.92227C110.63 4.95863 111.701 4.00669 112.577 2.86167C112.686 2.71833 112.447 2.53753 112.327 2.66918C110.554 4.61577 108.404 6.17152 106.649 8.13449C104.981 10.0003 103.643 12.1517 102.688 14.4646C102.111 15.8617 101.649 17.3414 101.591 18.8609C101.581 19.1254 101.987 19.1236 102.001 18.8615Z" fill="#231F20"/>
<path d="M112.077 2.86748C111.311 8.03206 108.833 12.8789 104.988 16.4263C104.434 16.9377 103.854 17.4221 103.248 17.8703C102.669 18.298 102.03 18.6485 101.464 19.0908C101.256 19.254 101.522 19.5168 101.725 19.4284C102.323 19.1675 102.877 18.7374 103.403 18.3548C103.942 17.9622 104.465 17.5468 104.967 17.1085C105.968 16.235 106.893 15.2708 107.72 14.2299C109.364 12.1604 110.674 9.80429 111.506 7.29251C111.977 5.87016 112.273 4.40334 112.414 2.91253C112.431 2.72297 112.105 2.67616 112.077 2.86748Z" fill="#231F20"/>
<path d="M102.023 18.4822C102.745 17.714 103.442 16.9534 104.09 16.1155C104.733 15.2841 105.35 14.4322 105.933 13.5581C106.484 12.7325 106.996 11.8812 107.535 11.0481C108.1 10.1728 108.744 9.38233 109.388 8.56671C109.468 8.46608 109.362 8.27826 109.236 8.36954C108.466 8.92771 107.897 9.73221 107.366 10.5104C106.799 11.3406 106.301 12.2165 105.755 13.0614C105.178 13.956 104.575 14.8336 103.94 15.6884C103.275 16.5842 102.604 17.4957 101.903 18.3628C101.837 18.4453 101.947 18.5635 102.023 18.4822Z" fill="#231F20"/>
<path d="M105.131 18.5814C107.53 18.2351 109.987 18.7248 112.04 20.0225C114.023 21.277 115.578 23.1422 117.785 24.045C118.915 24.5066 120.229 24.712 121.377 24.2071C121.581 24.117 121.425 23.8373 121.234 23.8701C120.041 24.0766 118.881 23.9256 117.772 23.4394C116.692 22.9667 115.754 22.247 114.844 21.5092C113.935 20.7732 113.038 20.0096 112.024 19.4205C111.035 18.8459 109.936 18.4521 108.812 18.2468C107.56 18.018 106.294 18.0215 105.046 18.2749C104.843 18.317 104.933 18.6095 105.131 18.5814Z" fill="#231F20"/>
<path d="M105.912 18.6205C106.491 19.8393 107.036 21.0779 107.765 22.2171C108.438 23.2696 109.272 24.2344 110.254 25.0109C111.198 25.7574 112.283 26.3027 113.478 26.4987C114.841 26.7222 116.233 26.5608 117.57 26.2518C118.897 25.9452 120.417 25.4444 121.4 24.4544C121.599 24.2543 121.345 23.9232 121.099 24.0648C120.583 24.3614 120.094 24.6867 119.547 24.9272C119.007 25.1653 118.447 25.3555 117.877 25.5058C116.641 25.8317 115.325 26.0371 114.044 25.93C111.587 25.7235 109.68 24.0531 108.307 22.1258C107.487 20.9761 106.792 19.7375 106.138 18.4889C106.059 18.3385 105.841 18.4707 105.912 18.6205Z" fill="#231F20"/>
<path d="M105.955 18.4084C106.527 18.4119 107.099 18.8923 107.516 19.2457C107.897 19.5675 108.248 19.922 108.581 20.2918C109.236 21.0191 109.82 21.8072 110.492 22.5204C111.729 23.8351 113.485 25.0176 115.368 24.4623C115.609 24.3909 115.505 24.0528 115.266 24.092C113.194 24.4342 111.514 22.975 110.226 21.5533C109.585 20.8447 108.976 20.1034 108.269 19.4575C107.68 18.9204 106.805 18.1463 105.956 18.1884C105.815 18.1954 105.812 18.4078 105.955 18.4084Z" fill="#231F20"/>
<path d="M90.4132 19.2206C91.3517 18.3751 91.8712 17.2213 92.3323 16.0693C92.8132 14.8675 93.3117 13.702 94.039 12.6243C95.4449 10.542 97.4313 8.85225 99.6921 7.76047C100.964 7.14613 102.343 6.74066 103.727 6.47269C103.898 6.43993 103.861 6.15089 103.685 6.16611C98.6565 6.602 94.2209 10.3741 92.3697 14.9635C91.7975 16.3829 91.3446 17.9229 90.1891 18.9953C90.0381 19.1358 90.2616 19.3569 90.4132 19.2206Z" fill="#231F20"/>
<path d="M90.129 19.4251C95.5106 18.7803 100.21 15.3739 102.532 10.4767C103.152 9.17023 103.673 7.7315 103.841 6.28867C103.868 6.05756 103.494 6.01427 103.439 6.23426C103.126 7.49513 102.809 8.72147 102.265 9.90862C101.738 11.0601 101.075 12.1548 100.288 13.1471C98.6976 15.1551 96.6124 16.7524 94.2685 17.7833C92.9252 18.3743 91.5268 18.8031 90.0752 19.0272C89.8523 19.0629 89.902 19.4526 90.129 19.4251Z" fill="#231F20"/>
<path d="M89.9837 19.408C92.279 17.9622 94.3754 16.2339 96.233 14.2568C97.1434 13.2879 98.0029 12.2728 98.8993 11.291C99.8137 10.2894 100.796 9.39768 101.804 8.49372C101.947 8.36559 101.757 8.11283 101.596 8.22458C100.539 8.95477 99.6318 9.94357 98.7664 10.8856C97.8672 11.8644 97.0088 12.8807 96.1031 13.8543C94.2349 15.8629 92.121 17.634 89.8187 19.1254C89.642 19.2395 89.8041 19.5209 89.9837 19.408Z" fill="#231F20"/>
<path d="M91.551 19.7883C94.9995 22.8004 94.9287 28.3137 98.905 30.8758C99.4948 31.2555 100.147 31.5545 100.823 31.7417C101.502 31.9301 102.269 32.0793 102.967 31.9266C103.16 31.8844 103.164 31.5714 102.967 31.5316C102.343 31.407 101.71 31.386 101.093 31.2163C100.461 31.0425 99.8534 30.7892 99.2923 30.4498C98.2977 29.8472 97.5119 28.9848 96.8853 28.0135C95.704 26.181 95.0411 24.0747 93.9528 22.1907C93.3701 21.182 92.6662 20.2587 91.7371 19.5467C91.599 19.4414 91.42 19.6742 91.551 19.7883Z" fill="#231F20"/>
<path d="M92.0892 20.0908C94.257 20.3781 96.3504 21.3446 98.0173 22.7529C99.7311 24.201 100.92 26.0739 101.606 28.2013C101.82 28.8659 102.016 29.5365 102.273 30.1859C102.499 30.7558 102.753 31.4444 103.217 31.8639C103.336 31.9716 103.59 31.868 103.517 31.6896C103.27 31.0928 102.915 30.5574 102.692 29.9443C102.474 29.3463 102.303 28.7325 102.109 28.1264C101.758 27.0229 101.312 25.9639 100.663 25.0003C99.4344 23.176 97.6792 21.6688 95.6629 20.78C94.5255 20.2786 93.3273 19.9744 92.0892 19.8655C91.9424 19.8527 91.9494 20.0721 92.0892 20.0908Z" fill="#231F20"/>
<path d="M92.2729 19.8142C94.4014 21.0341 96.042 22.8771 97.3473 24.9302C97.9734 25.9143 98.4742 26.9622 99.064 27.9657C99.566 28.8205 100.282 29.8444 101.307 30.0767C101.498 30.12 101.611 29.8649 101.441 29.7584C100.942 29.4477 100.485 29.1276 100.108 28.6689C99.7515 28.2342 99.4677 27.7404 99.195 27.2507C98.6328 26.2391 98.0799 25.2292 97.4246 24.2738C96.1198 22.3705 94.488 20.6357 92.4068 19.5843C92.2553 19.5076 92.1231 19.7282 92.2729 19.8142Z" fill="#231F20"/>
<path d="M76.743 20.1428C77.5826 17.9774 78.9781 16.029 80.7556 14.5341C82.6788 12.9169 85.0209 12.0135 87.3934 11.2734C88.0984 11.0534 88.8081 10.8492 89.5202 10.6526C90.2211 10.459 90.9484 10.3092 91.6172 10.0202C91.7886 9.94585 91.7055 9.6416 91.5206 9.66266C90.8794 9.73521 90.2562 9.93239 89.6355 10.1032C88.9462 10.2934 88.2582 10.49 87.5748 10.7C86.2689 11.1014 84.9741 11.5502 83.729 12.1142C81.5724 13.0901 79.7007 14.64 78.2964 16.5415C77.5031 17.6158 76.8887 18.8012 76.4476 20.0614C76.3809 20.2498 76.6728 20.3241 76.743 20.1428Z" fill="#231F20"/>
<path d="M76.5007 20.1146C81.3119 18.8806 86.1629 16.8603 89.5429 13.0836C89.9753 12.6009 90.3802 12.0924 90.7529 11.5617C91.111 11.0515 91.5369 10.4904 91.7294 9.89249C91.7815 9.73042 91.5428 9.57537 91.4298 9.71813C91.0934 10.1447 90.8559 10.6519 90.5487 11.1019C90.2158 11.5904 89.8519 12.0573 89.4634 12.5031C88.7244 13.3509 87.9012 14.1274 87.0224 14.8289C85.0828 16.3764 82.8501 17.5343 80.546 18.4348C79.1945 18.9631 77.8172 19.43 76.4276 19.8478C76.2573 19.8993 76.3281 20.159 76.5007 20.1146Z" fill="#231F20"/>
<path d="M76.6306 20.0644C78.4087 18.4607 80.2869 16.9646 82.2492 15.5932C83.2105 14.9215 84.1929 14.2803 85.1946 13.6706C85.6954 13.3658 86.2015 13.0691 86.7117 12.7807C87.2389 12.4823 87.7941 12.212 88.2757 11.8428C88.3851 11.7591 88.3301 11.5485 88.1733 11.5994C87.0686 11.9586 86.0313 12.6836 85.046 13.2868C84.0086 13.9216 82.9923 14.5909 81.9988 15.2925C80.0335 16.6809 78.1688 18.2009 76.4066 19.8398C76.2562 19.9796 76.4797 20.2002 76.6306 20.0644Z" fill="#231F20"/>
<path d="M74.1398 20.8675C76.4257 22.0874 77.9855 24.1902 79.6144 26.1362C80.4189 27.0975 81.2614 28.043 82.2485 28.8217C83.0922 29.487 84.033 30.0329 85.0195 30.4576C86.0849 30.9169 87.2282 31.258 88.396 31.0884C88.6482 31.0515 88.5867 30.6367 88.3363 30.646C87.3159 30.6829 86.278 30.3634 85.3436 29.9796C84.3653 29.5777 83.4146 29.0441 82.5756 28.3987C80.6044 26.8822 79.2406 24.7565 77.5017 23.0065C76.5544 22.0534 75.5036 21.1986 74.272 20.6428C74.1216 20.5743 73.9888 20.7867 74.1398 20.8675Z" fill="#231F20"/>
<path d="M74.428 20.9004C77.003 20.9993 79.6388 21.3918 81.964 22.5597C83.9381 23.5508 85.6693 25.0802 86.6745 27.069C87.2941 28.2953 87.4696 29.7329 88.2256 30.8913C88.3672 31.1078 88.6667 30.9212 88.5661 30.6924C88.0366 29.4924 87.7663 28.1988 87.2251 27.0052C86.7623 25.9836 86.0912 25.0691 85.2937 24.2828C83.5548 22.5679 81.2917 21.527 78.9221 21.0174C77.443 20.6991 75.9393 20.5844 74.4286 20.5938C74.2297 20.5944 74.2309 20.8928 74.428 20.9004Z" fill="#231F20"/>
<path d="M74.6671 20.8457C77.0337 21.6081 79.2717 22.7618 81.2247 24.3047C82.1966 25.0724 83.0783 25.9359 83.9454 26.8183C84.4029 27.284 84.857 27.755 85.3367 28.1979C85.7738 28.601 86.2471 29.1147 86.7954 29.3587C86.9329 29.4202 87.0481 29.2721 86.9533 29.1539C86.5578 28.6584 85.9856 28.2646 85.531 27.8194C85.0641 27.3618 84.6065 26.8961 84.1496 26.4298C83.2567 25.5188 82.3458 24.6388 81.3295 23.8659C79.3618 22.3693 77.125 21.2318 74.7496 20.5455C74.5565 20.4888 74.4769 20.7842 74.6671 20.8457Z" fill="#231F20"/>
<path d="M61.52 23.3907C57.9427 21.5934 53.9694 20.6912 50.0247 20.1523C45.8923 19.5877 41.7153 19.4168 37.5477 19.4057C32.791 19.3923 27.9716 19.7339 23.2874 18.7083C20.9576 18.1981 18.6944 17.4018 16.5208 16.4247C15.4589 15.9473 14.4163 15.4265 13.3924 14.8724C12.544 14.4132 11.6903 13.9509 10.8993 13.3957C9.39445 12.339 8.0388 11.0553 6.78672 9.71431C5.51239 8.3493 4.36738 6.89184 3.37624 5.30977C3.17146 4.98329 2.97545 4.65154 2.79817 4.30868C2.7028 4.12438 2.37983 4.2531 2.45648 4.45261C3.08252 6.0774 4.15674 7.51321 5.26958 8.83668C6.5047 10.3052 7.86679 11.682 9.34882 12.9025C10.856 14.1434 12.5422 15.0837 14.2788 15.9666C16.371 17.0308 18.5441 17.9483 20.7949 18.6205C23.1335 19.3191 25.5365 19.7111 27.9716 19.8556C30.457 20.0031 32.946 19.9259 35.4332 19.8919C39.5932 19.8352 43.7637 19.9019 47.9061 20.3185C52.0129 20.7309 56.1857 21.4564 60.014 23.0508C60.4697 23.2404 60.9191 23.4457 61.3626 23.6628C61.5422 23.7482 61.7002 23.4814 61.52 23.3907Z" fill="#231F20"/>
<path d="M11.252 13.6306C10.5727 8.95984 6.08738 6.17248 3.00923 3.09141C2.11405 2.19505 1.25514 1.23434 0.644304 0.117403C0.514415 -0.119557 0.152831 0.0916593 0.282135 0.329205C1.33178 2.26643 3.06832 3.78123 4.69136 5.22815C6.37934 6.73358 8.12641 8.22731 9.40542 10.1136C10.1473 11.2078 10.702 12.413 10.9108 13.7242C10.9477 13.9495 11.2847 13.8523 11.252 13.6306Z" fill="#231F20"/>
<path d="M0.335114 0.26952C0.626488 0.920723 0.74058 1.75623 0.9085 2.46243C1.20748 3.72213 1.52226 4.97773 1.87448 6.22338C2.2425 7.52637 2.64855 8.82176 3.19385 10.0627C3.66251 11.1288 4.22771 12.0222 5.17028 12.729C6.74066 13.9068 8.96517 14.4948 10.8837 13.9694C11.0767 13.9161 11.0469 13.5844 10.8345 13.6072C9.01431 13.8055 7.24384 13.5224 5.70564 12.478C4.69402 11.7911 4.1259 10.8994 3.6432 9.80002C2.61637 7.46143 2.01315 4.94379 1.35141 2.48525C1.14078 1.7024 0.995093 0.826525 0.63936 0.0916539C0.539895 -0.115467 0.24384 0.0653244 0.335114 0.26952Z" fill="#231F20"/>
<path d="M24.4062 18.8612C24.309 16.3062 23.1564 13.7517 21.871 11.5816C20.5557 9.36175 18.8572 7.49298 16.9375 5.78277C15.8135 4.78168 14.6849 3.78293 13.6704 2.66893C13.5516 2.53845 13.3105 2.71632 13.4211 2.86142C14.9564 4.86944 17.0738 6.3269 18.7671 8.19099C20.4346 10.0264 21.7996 12.1409 22.7779 14.4198C23.3834 15.8305 23.9147 17.3166 23.9972 18.8612C24.0106 19.1228 24.4167 19.1257 24.4062 18.8612Z" fill="#231F20"/>
<path d="M13.5867 2.91287C14.0863 8.20265 16.7537 13.2063 20.661 16.7771C21.1946 17.2645 21.7522 17.7238 22.3296 18.1573C22.9335 18.6108 23.58 19.1251 24.2751 19.4287C24.4757 19.5165 24.7461 19.2556 24.5354 19.0911C24.0282 18.6945 23.4542 18.3797 22.9311 18.0011C22.4098 17.6237 21.9072 17.2212 21.4233 16.7964C20.4515 15.9434 19.5581 15.0049 18.746 13.9985C17.1001 11.9589 15.8299 9.63612 14.978 7.15944C14.4982 5.76517 14.1396 4.32586 13.9237 2.86723C13.8956 2.67825 13.5685 2.72037 13.5867 2.91287Z" fill="#231F20"/>
<path d="M24.0984 18.3627C23.3969 17.4962 22.7258 16.5841 22.0611 15.6883C21.4263 14.8335 20.8237 13.9558 20.2462 13.0612C19.7009 12.217 19.203 11.3405 18.636 10.5103C18.1042 9.73209 17.5355 8.92759 16.7655 8.36942C16.6403 8.27873 16.5332 8.46479 16.6134 8.5666C17.2441 9.36524 17.8789 10.1381 18.433 10.9947C18.9836 11.846 19.5061 12.7149 20.0689 13.558C20.6476 14.4257 21.2602 15.2705 21.8979 16.0961C22.5497 16.9404 23.2512 17.7074 23.9797 18.4815C24.0545 18.5628 24.1651 18.4458 24.0984 18.3627Z" fill="#231F20"/>
<path d="M20.9625 18.2745C18.7596 17.8269 16.4268 18.1616 14.4235 19.1808C12.302 20.2597 10.7538 22.1823 8.62938 23.2536C7.41298 23.8668 6.11993 24.1026 4.77423 23.8697C4.58642 23.8369 4.4261 24.1154 4.63206 24.2067C6.71965 25.1259 9.05942 23.8217 10.6918 22.5632C11.6519 21.8225 12.5477 20.9981 13.5441 20.3053C14.5265 19.6225 15.6089 19.1047 16.7668 18.7993C18.1025 18.4471 19.512 18.3839 20.8782 18.5811C21.0748 18.6086 21.1667 18.316 20.9625 18.2745Z" fill="#231F20"/>
<path d="M19.8577 18.4889C18.7595 20.5829 17.5402 22.8566 15.665 24.362C14.7634 25.0858 13.6944 25.6381 12.5523 25.8499C11.2493 26.0915 9.87906 25.9119 8.5983 25.6235C7.95471 25.4789 7.32281 25.2876 6.71198 25.0384C6.06604 24.7751 5.49675 24.41 4.89469 24.0642C4.65071 23.9238 4.39327 24.2526 4.59396 24.4539C5.45111 25.3157 6.7348 25.7984 7.8845 26.1149C9.21323 26.4806 10.6403 26.7059 12.0187 26.5643C14.5118 26.308 16.4847 24.6797 17.903 22.7015C18.8052 21.4424 19.4213 20.0125 20.0824 18.62C20.1544 18.4708 19.9361 18.3385 19.8577 18.4889Z" fill="#231F20"/>
<path d="M20.0382 18.1884C19.2057 18.1474 18.3538 18.8911 17.7716 19.4153C17.0443 20.07 16.423 20.8289 15.7677 21.5532C14.4805 22.975 12.8001 24.4336 10.7283 24.0919C10.489 24.0527 10.3843 24.3909 10.6265 24.4623C12.5093 25.0175 14.2646 23.8351 15.502 22.5204C16.1731 21.8072 16.7576 21.019 17.4124 20.2918C17.7453 19.922 18.0969 19.5674 18.4772 19.2456C18.8938 18.8928 19.4684 18.4119 20.0382 18.4084C20.1804 18.4078 20.1792 18.1954 20.0382 18.1884Z" fill="#231F20"/>
<path d="M35.8057 18.9966C34.7795 18.044 34.3056 16.7147 33.8117 15.4404C33.3501 14.2486 32.8013 13.1123 32.0612 12.0662C30.6066 10.0096 28.6156 8.34971 26.3314 7.2866C25.0524 6.69157 23.7166 6.28961 22.3089 6.16733C22.1345 6.15212 22.0948 6.44057 22.2674 6.47392C24.747 6.95369 27.1002 7.91616 29.0743 9.51228C31.0864 11.1394 32.521 13.1972 33.4724 15.5925C33.9919 16.9002 34.5103 18.2564 35.5805 19.2212C35.732 19.357 35.9561 19.1358 35.8057 18.9966Z" fill="#231F20"/>
<path d="M35.9236 19.0276C30.8006 18.2348 26.2416 14.9975 23.9381 10.3385C23.2863 9.01969 22.913 7.6535 22.5596 6.23408C22.5052 6.01643 22.1302 6.05504 22.1577 6.28849C22.3081 7.57803 22.7504 8.8582 23.2688 10.043C23.7983 11.2536 24.4793 12.3951 25.2867 13.4406C26.9291 15.5662 29.1003 17.2373 31.5665 18.3009C32.9333 18.8901 34.3936 19.2488 35.8692 19.4255C36.0939 19.4512 36.1489 19.0621 35.9236 19.0276Z" fill="#231F20"/>
<path d="M36.1802 19.125C33.8785 17.6336 31.764 15.8626 29.8958 13.854C28.9901 12.8804 28.1317 11.8647 27.2325 10.8852C26.3671 9.94324 25.4602 8.95444 24.403 8.22425C24.2432 8.11367 24.0507 8.36409 24.1953 8.49339C25.1864 9.38273 26.1553 10.2586 27.0564 11.2433C27.9679 12.2397 28.8403 13.2724 29.7659 14.2565C31.6235 16.2335 33.7199 17.9613 36.0152 19.4076C36.1937 19.5206 36.3563 19.2391 36.1802 19.125Z" fill="#231F20"/>
<path d="M34.2657 19.5473C30.7341 22.2533 30.7674 27.6133 27.1112 30.1889C26.525 30.6019 25.8796 30.9138 25.1974 31.132C24.4865 31.3596 23.7604 31.3877 23.0355 31.5328C22.8383 31.572 22.8418 31.8856 23.0355 31.9277C24.2279 32.1881 25.6502 31.6937 26.6859 31.1221C27.7162 30.5534 28.5611 29.7337 29.2398 28.7794C30.5468 26.941 31.1957 24.7481 32.222 22.7594C32.7953 21.6477 33.5045 20.6157 34.4511 19.7889C34.581 19.6754 34.4049 19.4402 34.2657 19.5473Z" fill="#231F20"/>
<path d="M33.907 19.8655C29.4451 20.2581 25.518 23.3726 24.0611 27.5992C23.8201 28.2984 23.6264 29.0134 23.3865 29.7132C23.2678 30.0589 23.1373 30.4012 22.9793 30.7318C22.8237 31.0577 22.6183 31.3561 22.4802 31.6902C22.4065 31.8686 22.6604 31.9722 22.7798 31.8645C23.1876 31.4947 23.4222 30.9108 23.6311 30.4123C23.8686 29.8448 24.0582 29.2591 24.2419 28.6723C24.5877 27.567 24.9862 26.5127 25.5917 25.521C26.7274 23.6616 28.399 22.1877 30.3368 21.2071C31.4526 20.6425 32.6666 20.2546 33.9064 20.0908C34.0468 20.0721 34.0539 19.8527 33.907 19.8655Z" fill="#231F20"/>
<path d="M33.5891 19.5842C31.5079 20.6351 29.8761 22.3704 28.5714 24.2737C27.9161 25.2292 27.3632 26.2396 26.8009 27.2507C26.5282 27.741 26.2439 28.2336 25.8876 28.6689C25.5119 29.1282 25.0544 29.4477 24.5553 29.7583C24.3862 29.8637 24.4962 30.1199 24.6893 30.0766C25.7138 29.8444 26.4299 28.8204 26.932 27.9656C27.5217 26.9622 28.0226 25.9137 28.6486 24.9302C29.9539 22.8771 31.5945 21.0341 33.7231 19.8142C33.8729 19.7288 33.7412 19.5076 33.5891 19.5842Z" fill="#231F20"/>
<path d="M49.5605 20.0587C48.7747 17.8137 47.4039 15.8144 45.6077 14.2546C43.6751 12.5765 41.3465 11.6234 38.9324 10.854C38.187 10.6165 37.4357 10.3977 36.6821 10.187C35.9613 9.98577 35.2329 9.74472 34.4869 9.66046C34.302 9.6394 34.2183 9.94423 34.3898 10.018C34.9626 10.2654 35.5769 10.4018 36.1772 10.5656C36.8249 10.7423 37.4708 10.9248 38.1133 11.1179C39.3841 11.5006 40.6484 11.9224 41.8637 12.4572C44.0115 13.4015 45.8973 14.8321 47.3266 16.7002C48.1276 17.7476 48.7876 18.9113 49.2639 20.1406C49.3347 20.3214 49.6266 20.2476 49.5605 20.0587Z" fill="#231F20"/>
<path d="M49.5655 19.8475C44.8912 18.4416 40.2175 16.5143 36.8451 12.8551C36.3911 12.3625 35.9657 11.8429 35.5789 11.2959C35.2191 10.7868 34.9476 10.2053 34.5632 9.71788C34.4503 9.57512 34.2116 9.73017 34.2637 9.89224C34.4339 10.4212 34.7961 10.912 35.1062 11.3672C35.4262 11.8377 35.772 12.2917 36.1395 12.7264C36.9053 13.6327 37.7678 14.4495 38.6998 15.1832C40.6634 16.7284 42.8896 17.8857 45.2148 18.7832C46.6108 19.3221 48.0431 19.7422 49.4918 20.1143C49.665 20.1582 49.7357 19.899 49.5655 19.8475Z" fill="#231F20"/>
<path d="M49.5911 19.8398C47.8288 18.201 45.9641 16.6809 43.9988 15.2925C43.0053 14.5904 41.989 13.9216 40.9516 13.2868C39.9663 12.6842 38.9284 11.9587 37.8243 11.5994C37.6687 11.5485 37.6114 11.758 37.7219 11.8428C38.2035 12.212 38.7587 12.4823 39.2859 12.7807C39.7774 13.0586 40.2647 13.3442 40.7474 13.6373C41.7684 14.2569 42.7695 14.9093 43.7484 15.5938C45.7107 16.9653 47.5889 18.4619 49.367 20.0651C49.5173 20.2002 49.7414 19.9796 49.5911 19.8398Z" fill="#231F20"/>
<path d="M51.7206 20.6414C49.4885 21.6477 47.9205 23.5814 46.37 25.4034C45.5684 26.3454 44.7481 27.2803 43.8032 28.0831C42.9911 28.7729 42.0649 29.3323 41.0995 29.7804C40.0452 30.2702 38.8341 30.6879 37.6563 30.6452C37.4082 30.6364 37.3415 31.0507 37.5966 31.0875C38.624 31.2373 39.638 30.9922 40.5923 30.6148C41.6086 30.2128 42.5845 29.6862 43.4633 29.0356C45.4801 27.5431 46.8626 25.4063 48.5407 23.5767C49.5131 22.516 50.5756 21.5482 51.8529 20.8666C52.0027 20.7859 51.8704 20.5735 51.7206 20.6414Z" fill="#231F20"/>
<path d="M51.5704 20.5925C46.8077 20.5626 41.3325 22.0499 38.9693 26.6031C38.2959 27.9002 38.022 29.3577 37.4329 30.6917C37.3322 30.9199 37.6318 31.1077 37.7734 30.8906C38.4486 29.8562 38.6428 28.5906 39.1337 27.472C39.579 26.4568 40.2313 25.5312 41.0054 24.7402C42.6764 23.0335 44.8875 21.9797 47.1939 21.4414C48.6262 21.1068 50.1024 20.9558 51.5704 20.8997C51.7669 20.892 51.7687 20.5936 51.5704 20.5925Z" fill="#231F20"/>
<path d="M51.2466 20.5442C48.8712 21.2299 46.6344 22.3673 44.6667 23.8645C43.668 24.6246 42.7699 25.487 41.8922 26.3822C41.4347 26.8485 40.9772 27.3148 40.5114 27.7729C40.2792 28.0011 40.0445 28.2275 39.8035 28.4464C39.549 28.6769 39.2576 28.8846 39.0429 29.1537C38.9493 29.2713 39.0622 29.4205 39.2008 29.3585C39.7473 29.1151 40.2236 28.5997 40.6595 28.1977C41.1392 27.7548 41.5933 27.2838 42.0508 26.8181C42.9179 25.9363 43.8002 25.0727 44.7715 24.3045C46.7245 22.7616 48.963 21.6078 51.3291 20.8455C51.5199 20.784 51.4415 20.488 51.2466 20.5442Z" fill="#231F20"/>
</svg>
