<svg width="153" height="140" viewBox="0 0 153 140" fill="none" xmlns="http://www.w3.org/2000/svg">
<path d="M101.523 33.4378C105.766 38.7994 108.274 45.4696 109.375 52.3002C110.419 58.7711 110.037 65.2134 108.093 71.4614C107.034 74.8627 105.651 78.4684 103.628 81.3729C103.345 81.7788 102.753 81.4394 102.976 80.9773C104.339 78.1493 105.802 75.4474 106.831 72.4497C107.85 69.4811 108.573 66.3945 108.918 63.257C109.634 56.7621 108.59 50.0688 106.476 43.9495C105.219 40.3119 103.468 36.8319 101.208 33.7697C101.037 33.5365 101.338 33.2023 101.523 33.4378Z" fill="black" fill-opacity="0.2"/>
<path d="M101.603 33.7569C99.6291 39.5841 98.4306 45.6992 98.3509 51.8941C98.3109 55.041 98.5468 58.195 99.0988 61.2899C99.6536 64.3994 100.602 67.3886 101.527 70.3934C102.588 73.8409 103.683 77.5356 103.528 81.2006C103.515 81.5117 103.095 81.4986 103.073 81.1954C102.817 77.777 102.051 74.5731 101.065 71.3126C100.126 68.2106 99.105 65.1376 98.4998 61.9377C97.3655 55.9297 97.3897 49.7016 98.3758 43.6729C98.9397 40.2222 99.84 36.8521 101.121 33.6183C101.241 33.3155 101.712 33.4331 101.603 33.7569Z" fill="black" fill-opacity="0.2"/>
<path d="M101.637 34.1134C102.347 37.497 104.546 40.2055 105.69 43.4086C106.757 46.401 106.999 49.7006 107.241 52.8632C107.701 58.9047 107.609 64.9848 106.518 70.9505C106.215 72.603 105.825 74.2225 105.355 75.8303C104.881 77.4508 104.434 79.0825 103.689 80.5921C103.636 80.6994 103.471 80.626 103.505 80.5114C103.928 79.0591 104.469 77.6486 104.881 76.1916C105.27 74.8167 105.56 73.3983 105.83 71.9937C106.401 69.0315 106.727 66.0169 106.866 62.9992C107.001 60.0254 106.969 57.0327 106.763 54.0625C106.542 50.894 106.249 47.6442 105.419 44.5788C104.433 40.9353 101.93 37.9626 101.18 34.2378C101.116 33.9237 101.571 33.7994 101.637 34.1134Z" fill="black" fill-opacity="0.2"/>
<path d="M101.381 34.6574C102.788 40.3515 103.672 46.1871 104.127 52.0501C104.582 57.9227 104.466 63.7507 104.129 69.6239C103.937 72.9838 103.721 76.3735 103.949 79.7381C103.959 79.8919 103.708 79.9267 103.691 79.7707C103.036 74.0017 103.873 68.2065 103.95 62.4265C104.029 56.4515 103.658 50.4773 102.814 44.5678C102.344 41.2739 101.724 38.0027 101.008 34.7581C100.952 34.5037 101.318 34.4038 101.381 34.6574Z" fill="black" fill-opacity="0.2"/>
<path d="M101.576 34.326C101.122 39.7633 100.829 45.2558 100.854 50.7149C100.88 56.193 101.228 61.6459 101.755 67.094C101.9 68.5961 102.06 70.0969 102.22 71.5972C102.387 73.1729 102.748 74.7646 102.813 76.3461C102.818 76.4638 102.653 76.4769 102.624 76.37C102.262 75.0661 102.153 73.6419 101.955 72.3008C101.756 70.9392 101.558 69.5807 101.401 68.2135C101.097 65.5402 100.881 62.8646 100.731 60.1769C100.423 54.6832 100.25 49.1419 100.433 43.6393C100.537 40.5273 100.75 37.42 101.041 34.3211C101.075 33.9651 101.606 33.9645 101.576 34.326Z" fill="black" fill-opacity="0.2"/>
<path d="M109.368 56.0601C109.578 53.3139 109.792 50.5801 110.613 47.9424C111.277 45.8084 112.302 43.8188 113.52 41.9794C116.059 38.1442 119.355 34.9593 122.256 31.4413C123.11 30.4055 123.948 29.3495 124.714 28.2391C125.453 27.1661 126.089 26.0252 126.786 24.9225C126.918 24.7138 127.289 24.8381 127.194 25.1022C126.463 27.1325 125.15 28.9462 123.874 30.6324C122.485 32.4672 120.93 34.1629 119.404 35.8722C116.431 39.2036 113.358 42.6608 111.657 46.9285C110.506 49.8135 110.142 52.9811 109.796 56.0633C109.766 56.3479 109.346 56.3538 109.368 56.0601Z" fill="black" fill-opacity="0.2"/>
<path d="M127.28 24.6353C127.02 28.4451 126.734 32.2572 126.388 36.0597C126.089 39.3453 125.59 42.5801 124.556 45.7066C122.597 51.628 119.207 56.9131 115.285 61.595C113.16 64.1339 110.543 66.2345 108.71 69.0302C108.512 69.3345 108.093 69.0775 108.24 68.7456C108.801 67.4873 109.798 66.4323 110.71 65.4458C111.637 64.4433 112.59 63.4713 113.489 62.4388C115.54 60.0795 117.493 57.6426 119.201 54.993C120.87 52.4047 122.325 49.6477 123.414 46.7356C124.571 43.6426 125.241 40.425 125.609 37.1308C126.074 32.9728 126.355 28.792 126.772 24.6294C126.806 24.2934 127.304 24.2894 127.28 24.6353Z" fill="black" fill-opacity="0.2"/>
<path d="M127.307 24.7583C125.718 30.8877 124.674 37.1733 122.757 43.2076C121.855 46.0453 120.743 48.7974 119.341 51.4022C117.896 54.0869 116.24 56.6402 114.595 59.1924C112.736 62.0786 110.922 64.9839 109.211 67.9708C109.058 68.2381 108.692 68.006 108.817 67.7313C110.051 65.0128 111.71 62.4973 113.319 60.0124C114.984 57.4412 116.681 54.8887 118.207 52.2237C121.292 46.8328 123.008 40.8994 124.422 34.8273C125.215 31.4226 125.938 27.9987 126.827 24.6191C126.912 24.2934 127.392 24.4326 127.307 24.7583Z" fill="black" fill-opacity="0.2"/>
<path d="M127.171 24.7895C125.385 30.6572 123.5 36.5849 120.718 42.0302C119.319 44.7697 117.663 47.353 116.244 50.0805C114.86 52.739 113.599 55.468 112.467 58.255C111.165 61.4621 110.136 64.6832 109.217 68.0282C109.138 68.3134 108.733 68.1942 108.795 67.9067C109.41 65.0521 110.437 62.2384 111.448 59.5157C112.48 56.7338 113.695 54.0216 115.004 51.3727C116.354 48.6391 117.909 46.0446 119.38 43.3838C120.905 40.6256 122.179 37.7209 123.312 34.7626C124.581 31.4452 125.68 28.0595 126.731 24.6611C126.823 24.3709 127.26 24.4952 127.171 24.7895Z" fill="black" fill-opacity="0.2"/>
<path d="M127.172 24.7665C125.403 29.5685 122.903 34.1439 119.934 38.2364C118.27 40.5294 116.716 42.823 115.557 45.4487C114.407 48.0545 113.579 50.8005 112.763 53.5369C112.278 55.1645 111.75 56.7771 111.239 58.3956C110.744 59.9653 110.38 61.6977 109.671 63.1762C109.591 63.343 109.384 63.2162 109.407 63.0595C109.612 61.5748 110.192 60.0936 110.601 58.6569C111.015 57.1945 111.421 55.7284 111.842 54.2678C112.617 51.5885 113.447 48.913 114.48 46.3307C115.512 43.7522 116.834 41.4149 118.455 39.1975C120.018 37.0599 121.537 34.9338 122.853 32.6173C124.306 30.0602 125.618 27.3852 126.69 24.6269C126.81 24.3208 127.289 24.4501 127.172 24.7665Z" fill="black" fill-opacity="0.2"/>
<path d="M112.858 28.4167C113.509 30.7457 113.488 33.0881 113.092 35.4639C112.725 37.6621 112 39.7431 111.465 41.8945C110.423 46.0786 109.972 50.3362 109.492 54.6171C109.465 54.8552 109.086 54.9583 109.052 54.6726C108.824 52.7458 109.076 50.7311 109.318 48.8187C109.594 46.6367 109.988 44.4707 110.498 42.3355C111.585 37.7805 113.467 33.3269 112.408 28.5381C112.341 28.2316 112.774 28.1164 112.858 28.4167Z" fill="black" fill-opacity="0.2"/>
<path d="M103.809 80.7735C101.769 86.2353 97.6208 90.5508 93.528 94.3958C89.1911 98.4707 84.4167 102.025 79.3661 105.057C69.1547 111.189 57.8631 115.41 46.4004 118.094C40.4318 119.491 34.0548 120.591 27.9625 119.462C27.6169 119.398 27.6967 118.794 28.0479 118.821C33.5639 119.256 38.9666 118.778 44.3786 117.605C49.9673 116.393 55.4949 114.793 60.8881 112.837C71.7741 108.888 82.2354 103.262 91.1301 95.5219C93.5964 93.3762 95.9547 91.0743 98.1208 88.5963C100.212 86.202 102.114 83.5693 103.345 80.5702C103.457 80.2946 103.913 80.4915 103.809 80.7735Z" fill="black" fill-opacity="0.2"/>
<path d="M91.7184 70.101C92.2762 75.7714 91.8386 81.5373 90.1095 86.9597C88.2712 92.7277 84.9589 97.6237 80.7526 101.765C78.2673 104.214 75.5578 106.595 72.6869 108.535C72.3358 108.772 71.9052 108.199 72.2342 107.912C74.5379 105.904 76.9911 104.11 79.2306 102.015C81.4508 99.936 83.5327 97.6667 85.2646 95.1207C88.3864 90.5321 90.2189 85.1386 90.9539 79.5739C91.3672 76.442 91.4682 73.2504 91.2891 70.0964C91.2729 69.8028 91.6903 69.8186 91.7184 70.101Z" fill="black" fill-opacity="0.2"/>
<path d="M91.6145 69.9587C90.6042 72.5892 88.5379 74.5473 86.8477 76.6948C85.0911 78.9266 83.4631 81.2766 81.9798 83.7174C79.0385 88.5554 76.6623 93.7812 74.9441 99.231C73.9838 102.277 73.2296 105.396 72.6755 108.551C72.5843 109.07 71.8376 108.849 71.9235 108.335C73.8137 97.1857 78.4115 86.4894 85.211 77.6881C86.1807 76.4329 87.2017 75.2269 88.2425 74.0361C89.381 72.7329 90.4847 71.399 91.1493 69.7549C91.2616 69.4793 91.723 69.6786 91.6145 69.9587Z" fill="black" fill-opacity="0.2"/>
<path d="M91.5987 70.0732C91.5866 75.4183 90.1819 80.64 88.3786 85.5978C87.4673 88.1041 86.5445 90.6701 85.3664 93.053C84.1042 95.6067 82.2541 97.778 80.407 99.8786C78.2142 102.374 75.8701 104.716 73.3991 106.905C73.0525 107.213 72.5477 106.689 72.8972 106.379C74.9946 104.519 77.0022 102.55 78.9015 100.467C80.797 98.3892 82.7637 96.2212 84.1793 93.7437C85.5195 91.398 86.4601 88.7604 87.4216 86.2254C88.3315 83.8282 89.1576 81.3931 89.8262 78.9101C90.6016 76.0274 91.0717 73.0646 91.1608 70.0697C91.1701 69.773 91.5989 69.7766 91.5987 70.0732Z" fill="black" fill-opacity="0.2"/>
<path d="M91.2333 70.8009C90.7311 75.6537 88.823 80.107 86.5456 84.3098C83.9107 89.1705 81.0239 93.8974 78.2214 98.6538C77.393 100.06 76.565 101.465 75.7365 102.871C74.8656 104.349 74.0661 105.927 73.0757 107.318C72.8267 107.667 72.3139 107.378 72.5068 106.973C73.1247 105.678 73.9415 104.464 74.666 103.232C75.3961 101.992 76.1256 100.75 76.8557 99.5095C78.3402 96.9854 79.8337 94.4681 81.3292 91.9523C83.8919 87.6384 86.5874 83.3386 88.548 78.6753C89.6152 76.138 90.4515 73.4911 90.8723 70.7487C90.9048 70.5329 91.2557 70.5831 91.2333 70.8009Z" fill="black" fill-opacity="0.2"/>
<path d="M91.0732 71.3136C88.5281 75.931 85.9195 80.5052 83.3298 85.0951C80.8201 89.5424 78.5984 94.1141 76.6518 98.8625C75.5676 101.509 74.62 104.226 73.456 106.835C73.3661 107.038 73.0441 106.896 73.1119 106.683C73.8648 104.327 74.8105 102.032 75.7254 99.7412C76.6862 97.3379 77.6905 94.9533 78.7784 92.6108C80.9674 87.9003 83.6108 83.4475 86.1667 78.9522C87.6628 76.321 89.1927 73.7116 90.7235 71.1017C90.8601 70.871 91.2031 71.0776 91.0732 71.3136Z" fill="black" fill-opacity="0.2"/>
<path d="M94.4823 105.29C90.4955 104.869 86.5091 105.446 82.6266 106.402C80.6927 106.879 78.7795 107.443 76.8751 108.033C74.9736 108.621 73.0526 109.385 71.1001 109.754C70.7492 109.82 70.6469 109.334 70.9668 109.201C72.8127 108.432 74.8055 107.941 76.7135 107.362C78.6956 106.761 80.6871 106.186 82.702 105.714C86.5646 104.809 90.536 104.28 94.49 104.729C94.8273 104.769 94.8269 105.327 94.4823 105.29Z" fill="black" fill-opacity="0.2"/>
<path d="M94.8031 105.298C89.3325 109.055 84.1563 113.304 78.215 116.245C72.9593 118.845 67.1398 120.389 61.3209 119.444C58.3943 118.967 55.543 117.87 53.1225 116.064C52.6908 115.741 53.0986 114.985 53.5388 115.307C63.6048 122.669 76.31 117.107 85.4907 110.942C88.5164 108.91 91.4559 106.743 94.5086 104.756C94.8364 104.542 95.1216 105.08 94.8031 105.298Z" fill="black" fill-opacity="0.2"/>
<path d="M70.3794 109.665C67.4433 110.305 64.5467 111.146 61.7083 112.163C60.2749 112.678 58.8479 113.23 57.4599 113.866C56.774 114.18 56.0989 114.519 55.4182 114.847C54.7684 115.161 54.0972 115.585 53.3929 115.737C53.1605 115.786 52.9414 115.468 53.1461 115.282C53.6576 114.818 54.3332 114.547 54.9438 114.251C55.6117 113.927 56.297 113.641 56.9789 113.355C58.4124 112.755 59.8515 112.175 61.3146 111.661C64.2461 110.63 67.2438 109.852 70.2858 109.281C70.5225 109.237 70.6191 109.613 70.3794 109.665Z" fill="black" fill-opacity="0.2"/>
<path d="M54.0752 115.17C56.7315 114.558 59.3653 113.959 61.9923 113.218C64.5298 112.501 67.074 111.808 69.6204 111.13C74.934 109.713 80.2634 108.359 85.5833 106.966C88.5869 106.179 91.5827 105.201 94.6156 104.554C94.9637 104.48 95.09 105.003 94.7515 105.116C92.1428 105.979 89.4096 106.54 86.7535 107.223C84.0994 107.906 81.445 108.592 78.7904 109.276C73.5491 110.626 68.3081 111.982 63.0911 113.434C61.6928 113.823 60.3005 114.252 58.8932 114.606C57.3348 114.997 55.7548 115.289 54.1884 115.642C53.8986 115.707 53.7821 115.238 54.0752 115.17Z" fill="black" fill-opacity="0.2"/>
<path d="M93.7631 105.668C88.427 107.497 83.5672 110.542 78.2512 112.429C73.2068 114.221 67.9382 115.273 62.6422 115.805C61.185 115.95 59.7241 116.051 58.2606 116.11C56.8245 116.169 55.3297 116.292 53.9029 116.073C53.7253 116.045 53.7279 115.724 53.9068 115.7C55.1404 115.532 56.4039 115.593 57.6465 115.542C58.9392 115.488 60.2302 115.4 61.5192 115.285C64.2271 115.041 66.9228 114.659 69.5906 114.116C74.907 113.035 79.9558 111.261 84.88 108.911C87.7536 107.539 90.6131 106.128 93.6464 105.186C93.9404 105.096 94.0501 105.569 93.7631 105.668Z" fill="black" fill-opacity="0.2"/>
<path d="M94.3564 104.858C92.3228 106.304 90.1072 107.45 88.0092 108.786C85.369 110.469 82.888 112.3 80.0579 113.64C74.6095 116.22 68.6717 117.563 62.7057 117.774C61.109 117.831 59.3839 117.92 57.821 117.512C56.3679 117.132 55.1196 116.265 53.6185 116.025C53.4647 116 53.5135 115.76 53.6548 115.754C54.8796 115.699 55.9821 116.385 57.1089 116.794C58.5143 117.302 60.0038 117.249 61.4696 117.203C64.5269 117.107 67.5637 116.8 70.5653 116.178C73.5341 115.562 76.4487 114.694 79.2382 113.453C82.1012 112.179 84.6606 110.466 87.2749 108.719C89.52 107.219 91.9933 106.144 94.2417 104.649C94.3689 104.565 94.4775 104.772 94.3564 104.858Z" fill="black" fill-opacity="0.2"/>
<path d="M57.3115 92.7584C56.8998 97.683 55.0497 102.433 52.255 106.396C49.1372 110.818 44.7949 114.134 40.1699 116.639C38.7559 117.406 37.3065 118.1 35.8335 118.734C34.5426 119.291 33.1639 119.992 31.7373 119.901C31.4205 119.88 31.3632 119.421 31.6718 119.321C36.6427 117.735 41.427 115.359 45.6066 112.091C49.4629 109.075 52.5671 105.274 54.6213 100.695C55.7459 98.19 56.561 95.5016 56.9041 92.7515C56.9377 92.4877 57.3353 92.4789 57.3115 92.7584Z" fill="black" fill-opacity="0.2"/>
<path d="M57.2358 93.1418C49.7602 98.5243 42.3696 104.387 37.3121 112.427C36.6442 113.49 36.0199 114.583 35.4489 115.705C34.8622 116.856 34.4235 118.12 33.7766 119.231C33.5889 119.553 33.1199 119.345 33.2014 118.979C33.4451 117.893 33.9929 116.837 34.4782 115.851C34.9793 114.833 35.5224 113.839 36.1043 112.87C37.288 110.897 38.625 109.025 40.0707 107.257C43.0763 103.578 46.5672 100.407 50.2532 97.5027C52.4284 95.7881 54.6755 94.1822 56.9508 92.6163C57.2628 92.4 57.5393 92.9238 57.2358 93.1418Z" fill="black" fill-opacity="0.2"/>
<path d="M57.1348 93.1699C54.1879 101.97 47.8446 108.871 40.881 114.401C39.7706 115.283 38.6278 116.122 37.475 116.942C36.3484 117.744 35.1942 118.702 33.9553 119.302C33.6815 119.434 33.3416 119.062 33.6084 118.824C34.4444 118.081 35.4463 117.517 36.3564 116.877C37.3276 116.195 38.2889 115.497 39.2377 114.781C41.1827 113.312 43.0859 111.79 44.8918 110.137C48.1884 107.118 51.174 103.724 53.5245 99.8388C54.8176 97.7012 55.9225 95.4352 56.7741 93.0661C56.8589 92.8326 57.2157 92.9293 57.1348 93.1699Z" fill="black" fill-opacity="0.2"/>
<path d="M56.9237 93.4292C52.1523 101.051 45.5491 107.242 39.3158 113.512C38.4016 114.432 37.489 115.356 36.5843 116.286C35.6759 117.222 34.8115 118.231 33.8561 119.114C33.5705 119.377 33.1998 118.981 33.4412 118.68C34.8408 116.931 36.5386 115.38 38.1041 113.794C39.6644 112.213 41.2363 110.644 42.8009 109.068C45.9414 105.905 49.0513 102.701 51.9221 99.2619C53.5572 97.303 55.1349 95.2715 56.6493 93.2088C56.7693 93.045 57.0308 93.2583 56.9237 93.4292Z" fill="black" fill-opacity="0.2"/>
<path d="M56.7554 93.5226C55.153 95.4064 53.2497 97.0017 51.4419 98.6591C49.5684 100.376 47.6998 102.1 45.8312 103.823C42.8174 106.602 40.1443 109.797 37.8132 113.221C37.1586 114.183 36.5357 115.167 35.9389 116.168C35.3721 117.12 34.9071 118.139 34.3325 119.083C34.1969 119.306 33.8134 119.17 33.9057 118.896C34.5286 117.046 35.6984 115.29 36.7484 113.683C37.9012 111.919 39.1504 110.224 40.4797 108.602C43.3734 105.072 46.7887 102.165 50.1308 99.1234C52.2527 97.1916 54.5211 95.3469 56.4024 93.1501C56.6174 92.8998 56.9698 93.2712 56.7554 93.5226Z" fill="black" fill-opacity="0.2"/>
<path d="M124.346 69.8312C119.119 71.6875 114.408 74.8648 110.259 78.6451C108.23 80.4941 106.318 82.483 104.474 84.5318C102.65 86.5557 100.947 88.6977 99.1117 90.7086C98.1438 91.7677 97.1131 92.7751 95.9486 93.593C94.9624 94.2855 93.5856 95.1613 92.356 95.0867C92.144 95.074 92.0437 94.7631 92.2486 94.6487C92.7663 94.3596 93.3339 94.2409 93.8705 93.9987C94.4826 93.7221 95.0648 93.3713 95.6168 92.9791C96.7236 92.1903 97.7057 91.2146 98.6299 90.2033C100.467 88.1938 102.172 86.0539 103.997 84.0305C107.646 79.9836 111.599 76.176 116.129 73.2339C118.671 71.5828 121.367 70.2596 124.232 69.3498C124.523 69.2569 124.631 69.7296 124.346 69.8312Z" fill="black" fill-opacity="0.2"/>
<path d="M124.492 69.796C122.829 71.9125 121.656 74.372 120.26 76.6777C118.898 78.9283 117.248 80.896 115.327 82.6389C111.273 86.3157 106.592 89.3264 101.733 91.675C98.9958 92.9984 96.0614 94.3004 93.0861 94.8782C92.7407 94.9452 92.6402 94.4651 92.9547 94.334C95.4943 93.2789 98.0954 92.4347 100.603 91.285C103.052 90.1623 105.43 88.8709 107.716 87.4186C112.195 84.5748 116.624 81.1786 119.546 76.5418C121.054 74.147 122.328 71.5932 124.119 69.4057C124.341 69.1359 124.704 69.5258 124.492 69.796Z" fill="black" fill-opacity="0.2"/>
<path d="M124.162 69.923C120.337 73.8607 116.51 77.8001 112.489 81.5166C108.867 84.8655 105.088 88.1357 100.992 90.8344C100.036 91.464 99.0722 92.0809 98.0822 92.6497C97.2954 93.1011 96.4378 93.6692 95.5345 93.78C95.3061 93.8083 95.271 93.4678 95.431 93.3587C96.1357 92.8819 96.9625 92.5826 97.7095 92.1767C98.5648 91.7114 99.4055 91.2143 100.23 90.6927C102.048 89.5427 103.777 88.2412 105.47 86.9012C109.691 83.5616 113.64 79.8597 117.478 76.0503C119.624 73.9217 121.735 71.7567 123.846 69.5916C124.05 69.3803 124.366 69.7112 124.162 69.923Z" fill="black" fill-opacity="0.2"/>
<path d="M123.966 69.9721C121.716 71.3384 119.471 72.6723 117.334 74.2314C115.152 75.8225 113.047 77.5184 111.051 79.3613C109.137 81.1279 107.32 83.0103 105.616 84.9984C104.215 86.6316 102.771 88.1935 101.197 89.6448C99.5004 91.2099 97.6799 92.8248 95.6579 93.909C95.3482 94.0752 95.0891 93.6046 95.3894 93.4143C98.9368 91.1624 102.109 88.2358 104.858 84.9856C108.231 80.9982 112.041 77.4264 116.19 74.3496C118.574 72.5805 121.115 70.8989 123.758 69.5898C124 69.4696 124.204 69.8284 123.966 69.9721Z" fill="black" fill-opacity="0.2"/>
<path d="M112.975 27.8318C113.141 27.815 113.35 27.5329 113.452 27.4138C113.593 27.2483 113.718 27.0679 113.845 26.8916C114.102 26.5377 114.421 26.1957 114.793 25.976C115.454 25.586 116.338 25.5507 116.957 26.0429C117.117 26.1702 117.037 26.4861 116.809 26.4127C116.122 26.1914 115.363 26.2418 114.82 26.7789C114.525 27.0717 114.287 27.4223 114.004 27.7271C113.736 28.0141 113.374 28.3807 112.968 28.3837C112.624 28.3864 112.645 27.8663 112.975 27.8318Z" fill="black" fill-opacity="0.2"/>
<path d="M116.773 26.3364C116.436 25.8451 115.852 25.5173 115.274 25.5079C114.956 25.5033 114.644 25.5937 114.368 25.7585C114.234 25.8388 114.112 25.9337 114 26.0464C113.869 26.1787 113.771 26.3471 113.586 26.3981C113.456 26.4339 113.357 26.3263 113.345 26.1995C113.325 25.9762 113.508 25.7883 113.653 25.6489C113.8 25.5084 113.963 25.3847 114.139 25.2879C114.493 25.0913 114.899 24.9824 115.301 24.9965C116.056 25.0232 116.746 25.4445 117.145 26.1141C117.296 26.3626 116.932 26.5666 116.773 26.3364Z" fill="black" fill-opacity="0.2"/>
<path d="M113.386 26.0054C113.556 25.5421 113.433 25.0503 113.371 24.5797C113.339 24.3402 113.302 24.0994 113.257 23.8612C113.203 23.5819 113.033 23.3397 113.048 23.0465C113.054 22.9308 113.205 22.8416 113.287 22.9445C113.474 23.1804 113.655 23.4351 113.745 23.7319C113.822 23.9861 113.899 24.2489 113.949 24.51C114.055 25.0571 114.076 25.6918 113.827 26.1995C113.704 26.4504 113.287 26.276 113.386 26.0054Z" fill="black" fill-opacity="0.2"/>
<path d="M113.409 23.1716C113.225 23.7283 113.035 24.2928 112.929 24.873C112.882 25.1312 112.862 25.3952 112.858 25.6588C112.855 25.7901 112.86 25.9226 112.876 26.0539C112.894 26.2005 112.946 26.3518 112.86 26.4858C112.812 26.5607 112.728 26.5865 112.651 26.5445C112.514 26.4696 112.486 26.31 112.464 26.1637C112.441 26.0165 112.425 25.8672 112.421 25.7184C112.409 25.4167 112.448 25.1147 112.508 24.8189C112.634 24.1981 112.885 23.6254 113.138 23.0521C113.207 22.8917 113.465 23.0041 113.409 23.1716Z" fill="black" fill-opacity="0.2"/>
<path d="M112.427 26.4448C112.403 26.1558 112.114 25.9778 111.91 25.8287C111.674 25.6545 111.453 25.4632 111.262 25.2348C110.877 24.7745 110.638 24.2037 110.598 23.591C110.581 23.3237 110.936 23.3215 111.013 23.5395C111.205 24.0892 111.478 24.6344 111.862 25.0641C112.241 25.4873 112.857 25.7801 112.847 26.4493C112.842 26.7379 112.449 26.7223 112.427 26.4448Z" fill="black" fill-opacity="0.2"/>
<path d="M110.965 23.7723C110.967 24.4356 110.982 25.0877 111.175 25.7249C111.26 26.0046 111.356 26.2584 111.518 26.5C111.593 26.6122 111.676 26.7171 111.773 26.8106C111.874 26.9087 111.98 26.9865 112.045 27.1177C112.094 27.2145 112.052 27.3586 111.939 27.3803C111.619 27.4428 111.306 27.1681 111.104 26.9346C110.874 26.6684 110.709 26.3311 110.606 25.9907C110.501 25.6483 110.503 25.2467 110.524 24.8914C110.547 24.5011 110.61 24.1145 110.671 23.7284C110.701 23.5507 110.964 23.5995 110.965 23.7723Z" fill="black" fill-opacity="0.2"/>
<path d="M113.032 28.1797C112.516 29.0212 111.532 28.8689 110.765 28.5721C110.385 28.4256 110.022 28.2229 109.62 28.1535C109.43 28.1205 109.23 28.1076 109.04 28.14C108.855 28.1721 108.653 28.32 108.467 28.2589C108.381 28.2306 108.333 28.1417 108.354 28.0504C108.437 27.6827 109.046 27.6597 109.33 27.6758C109.717 27.6976 110.108 27.8102 110.478 27.9289C110.837 28.0434 111.201 28.1845 111.575 28.2217C111.958 28.2595 112.41 28.2181 112.675 27.8923C112.84 27.6848 113.17 27.9532 113.032 28.1797Z" fill="black" fill-opacity="0.2"/>
<path d="M112.022 27.3959C111.414 27.678 110.781 27.5579 110.14 27.5421C109.831 27.5343 109.517 27.5595 109.229 27.6834C108.942 27.8071 108.73 27.9977 108.544 28.2522C108.465 28.362 108.29 28.3498 108.197 28.2745C108.086 28.1849 108.072 28.0445 108.128 27.9165C108.421 27.2429 109.173 27.0491 109.811 27.0224C110.447 26.9958 111.179 27.2308 111.783 26.9564C112.064 26.8293 112.306 27.2639 112.022 27.3959Z" fill="black" fill-opacity="0.2"/>
<path d="M115.041 24.8646C118.226 22.3365 119.366 17.9774 117.79 14.1057C116.994 12.149 115.655 10.5966 114.084 9.28494C112.393 7.8742 110.487 6.9571 108.661 5.78688C108.471 5.6649 108.591 5.32779 108.814 5.39992C110.934 6.08362 113.009 7.53158 114.74 8.96062C116.491 10.4059 117.911 12.157 118.7 14.366C120.085 18.2484 119.019 23.3299 115.288 25.3205C114.994 25.4763 114.79 25.0632 115.041 24.8646Z" fill="black" fill-opacity="0.2"/>
<path d="M108.892 5.74741C108.887 5.76345 108.885 5.77994 108.882 5.79643C108.884 5.77629 108.888 5.7566 108.891 5.73588C108.878 5.83832 108.883 5.945 108.895 6.04762C108.892 6.02718 108.889 6.00733 108.887 5.9869C108.891 6.01726 108.895 6.04864 108.9 6.07944C108.909 6.13374 108.909 6.1511 108.899 6.20596C108.898 6.21238 108.897 6.21823 108.895 6.22465C108.893 6.2369 108.891 6.25018 108.889 6.26346C108.891 6.24595 108.893 6.22843 108.896 6.21194C108.892 6.23587 108.89 6.26025 108.891 6.2855C108.891 6.29075 108.891 6.29499 108.891 6.30024C108.892 6.32287 108.884 6.25424 108.888 6.27614C108.892 6.29278 108.905 6.3258 108.882 6.26914C108.904 6.32477 108.908 6.37936 108.87 6.43053C108.838 6.47398 108.775 6.50337 108.722 6.48374C108.66 6.45986 108.609 6.41851 108.566 6.36722C108.526 6.31784 108.482 6.26552 108.466 6.20216C108.458 6.16785 108.453 6.13019 108.449 6.09457C108.43 5.94335 108.412 5.77578 108.451 5.62492C108.483 5.50456 108.614 5.41806 108.731 5.45778C108.848 5.49165 108.928 5.61888 108.892 5.74741Z" fill="black" fill-opacity="0.2"/>
<path d="M108.298 6.46725C107.97 6.14079 107.525 6.01331 107.103 5.87812C106.869 5.80291 106.638 5.72331 106.413 5.62068C106.163 5.50634 105.975 5.34263 105.881 5.06659C105.836 4.93273 105.977 4.82251 106.093 4.84969C106.328 4.90638 106.52 5.02355 106.733 5.1358C106.938 5.24423 107.137 5.31939 107.356 5.40859C107.803 5.58817 108.257 5.78425 108.588 6.16162C108.768 6.36631 108.491 6.65912 108.298 6.46725Z" fill="black" fill-opacity="0.2"/>
<path d="M106.283 5.15833C105.966 5.4397 105.731 5.76702 105.559 6.16504C105.491 6.32221 105.419 6.53962 105.373 6.73081C105.325 6.93849 105.314 7.22092 105.146 7.3648C105.084 7.41839 105.005 7.42497 104.941 7.36535C104.751 7.18384 104.807 6.84882 104.853 6.61444C104.901 6.37043 104.979 6.13785 105.084 5.91436C105.285 5.48414 105.582 5.09695 105.941 4.80107C106.043 4.71676 106.182 4.69627 106.281 4.80075C106.368 4.89061 106.383 5.06891 106.283 5.15833Z" fill="black" fill-opacity="0.2"/>
<path d="M104.752 7.26672C104.748 7.25534 104.743 7.24351 104.739 7.23212C104.749 7.25636 104.758 7.28059 104.767 7.30381C104.725 7.19765 104.67 7.09746 104.605 7.0063C104.62 7.02704 104.636 7.04779 104.651 7.06853C104.594 6.99008 104.529 6.91892 104.457 6.85505C104.405 6.80798 104.374 6.71381 104.375 6.64317C104.375 6.57253 104.406 6.48748 104.456 6.43881C104.51 6.3862 104.582 6.34835 104.658 6.35196C104.734 6.35659 104.796 6.3847 104.853 6.43732C105.053 6.62192 105.195 6.86102 105.286 7.12195C105.308 7.18605 105.289 7.28148 105.257 7.33806C105.223 7.40062 105.155 7.45876 105.086 7.47429C105.017 7.48981 104.941 7.48518 104.88 7.44438C104.861 7.42859 104.842 7.4144 104.823 7.39861C104.788 7.36266 104.764 7.3187 104.752 7.26672Z" fill="black" fill-opacity="0.2"/>
<path d="M104.826 6.68308C104.176 10.897 101.522 14.8389 101.959 19.2235C102.372 23.3624 106.298 26.8853 110.228 26.9995C110.517 27.0079 110.601 27.5036 110.291 27.5523C108.383 27.849 106.449 26.745 104.942 25.6178C103.203 24.3167 101.892 22.5462 101.389 20.3374C100.278 15.469 103.449 11.1326 104.261 6.52125C104.329 6.12759 104.885 6.2983 104.826 6.68308Z" fill="black" fill-opacity="0.2"/>
<path d="M108.715 6.23564C111.752 8.80388 114.476 11.7454 115.435 15.8259C115.833 17.5196 115.957 19.2958 115.751 21.0286C115.649 21.8952 115.466 22.7474 115.19 23.5707C114.992 24.1587 114.771 25.1722 114.174 25.411C114.09 25.4453 113.985 25.3669 113.967 25.2815C113.896 24.9547 114.004 24.798 114.135 24.4934C114.319 24.0668 114.482 23.6334 114.617 23.1859C114.859 22.382 115.022 21.5473 115.103 20.7082C115.261 19.0661 115.124 17.4018 114.727 15.8065C114.35 14.2912 113.729 12.855 112.88 11.5678C111.638 9.68694 109.986 8.12381 108.456 6.50689C108.286 6.32848 108.536 6.08304 108.715 6.23564Z" fill="black" fill-opacity="0.2"/>
<path d="M105.292 6.96467C105.197 8.88714 104.664 10.7164 104.019 12.5067C103.633 13.5812 103.181 14.6388 102.909 15.7558C102.174 18.7755 103.06 21.5326 104.216 24.2917C104.294 24.478 104.058 24.6289 103.951 24.4506C102.48 22.0212 101.663 18.9536 102.229 16.0946C102.43 15.0823 102.8 14.1289 103.161 13.1712C103.919 11.1685 104.63 9.12842 104.748 6.95812C104.77 6.59341 105.31 6.59646 105.292 6.96467Z" fill="black" fill-opacity="0.2"/>
<path d="M113.634 24.9176C114.126 21.5803 114.392 18.2132 113.149 15.0117C113.117 14.9292 113.223 14.8589 113.267 14.9413C114.856 17.9983 114.399 21.7013 113.87 24.9864C113.843 25.1496 113.61 25.0781 113.634 24.9176Z" fill="black" fill-opacity="0.2"/>
<path d="M116.244 14.2594C116.746 16.089 116.851 18.0364 116.612 19.9212C116.486 20.9155 116.258 21.8941 115.892 22.822C115.542 23.7106 115.057 24.6832 114.356 25.323C114.293 25.3808 114.175 25.3038 114.231 25.2226C114.816 24.3956 115.36 23.6182 115.726 22.6508C116.077 21.7205 116.297 20.7324 116.414 19.7407C116.625 17.9412 116.536 16.0535 116.108 14.2951C116.086 14.2036 116.219 14.1686 116.244 14.2594Z" fill="black" fill-opacity="0.2"/>
<path d="M117.755 15.4953C118.222 17.2589 118.01 19.1626 117.451 20.8748C117.158 21.7702 116.762 22.6324 116.273 23.4282C115.835 24.1411 115.302 24.8967 114.625 25.376C114.525 25.4465 114.435 25.2946 114.504 25.2101C115.045 24.5362 115.61 23.9178 116.067 23.1712C116.532 22.411 116.909 21.5931 117.196 20.7418C117.753 19.0893 117.984 17.2645 117.556 15.5503C117.523 15.4147 117.72 15.3619 117.755 15.4953Z" fill="black" fill-opacity="0.2"/>
<path d="M109.593 11.7002C110.873 13.7516 111.337 16.1086 111.597 18.5129C111.731 19.7476 111.845 20.9854 112.002 22.2182C112.079 22.8286 112.166 23.4384 112.272 24.044C112.359 24.5443 112.518 25.0516 112.524 25.5612C112.526 25.6333 112.425 25.6611 112.393 25.596C111.953 24.7138 111.91 23.4904 111.782 22.5151C111.636 21.3976 111.524 20.2755 111.408 19.1537C111.144 16.6015 110.806 13.9814 109.507 11.7488C109.476 11.6942 109.558 11.6463 109.593 11.7002Z" fill="black" fill-opacity="0.2"/>
<path d="M108.73 13.9332C109.481 15.5948 109.788 17.3917 110.094 19.1876C110.246 20.0793 110.4 20.974 110.613 21.8538C110.854 22.8432 111.232 23.7405 111.616 24.6739C111.654 24.766 111.543 24.8339 111.487 24.7513C110.504 23.3066 110.198 21.3227 109.912 19.612C109.595 17.7209 109.327 15.7937 108.574 14.0263C108.527 13.9179 108.679 13.8228 108.73 13.9332Z" fill="black" fill-opacity="0.2"/>
<path d="M106.022 10.9454C106.925 13.5367 107.1 16.2656 107.721 18.9266C108.007 20.1536 108.42 21.3608 108.95 22.495C109.206 23.0421 109.492 23.5737 109.816 24.0795C110.144 24.5904 110.561 25.0297 110.854 25.5626C110.961 25.7572 110.742 25.9941 110.555 25.8756C109.659 25.3027 109.043 24.0975 108.568 23.1499C107.994 22.0056 107.56 20.788 107.263 19.5321C106.6 16.7254 106.548 13.7988 105.751 11.0198C105.697 10.8337 105.961 10.7708 106.022 10.9454Z" fill="black" fill-opacity="0.2"/>
<path d="M105.913 17.2371C106.495 20.8485 107.34 24.7858 110.923 26.2832C111.009 26.3194 110.978 26.4597 110.883 26.434C109.357 26.0185 108.137 24.6538 107.379 23.2601C106.389 21.4372 106.063 19.3253 105.743 17.2831C105.725 17.1666 105.894 17.1196 105.913 17.2371Z" fill="black" fill-opacity="0.2"/>
<path d="M103.866 18.8568C103.926 21.1087 104.821 23.5192 106.659 24.7972C108.102 25.8001 109.775 26.4517 111.42 26.98C111.51 27.0091 111.473 27.1461 111.382 27.1259C109.594 26.7359 107.691 25.8972 106.22 24.7536C104.516 23.4295 103.738 21.0098 103.712 18.854C103.711 18.7502 103.863 18.7527 103.866 18.8568Z" fill="black" fill-opacity="0.2"/>
</svg>
