<svg width="153" height="140" viewBox="0 0 153 140" fill="none" xmlns="http://www.w3.org/2000/svg">
<path d="M51.3828 33.4379C47.1404 38.7995 44.6318 45.4697 43.5309 52.3003C42.4871 58.7713 42.8696 65.2136 44.8136 71.4616C45.8724 74.8629 47.2549 78.4685 49.2784 81.373C49.5611 81.7789 50.1528 81.4395 49.9302 80.9774C48.5668 78.1494 47.104 75.4475 46.0751 72.4499C45.0562 69.4812 44.3335 66.3946 43.9878 63.2571C43.2727 56.7622 44.3159 50.069 46.4302 43.9496C47.6868 40.312 49.4381 36.8321 51.6979 33.7698C51.8696 33.5367 51.5686 33.2024 51.3828 33.4379Z" fill="black" fill-opacity="0.2"/>
<path d="M51.3035 33.7571C53.2772 39.5842 54.4757 45.6993 54.5553 51.8942C54.5953 55.0412 54.3595 58.1951 53.8074 61.29C53.2526 64.3996 52.304 67.3887 51.3792 70.3935C50.3186 73.841 49.2232 77.5357 49.3781 81.2008C49.3911 81.5118 49.8109 81.4988 49.8336 81.1955C50.0891 77.7772 50.855 74.5732 51.8412 71.3127C52.7801 68.2108 53.8013 65.1377 54.4064 61.9378C55.5408 55.9299 55.5165 49.7018 54.5305 43.673C53.9665 40.2224 53.0662 36.8522 51.785 33.6184C51.6656 33.3156 51.1942 33.4332 51.3035 33.7571Z" fill="black" fill-opacity="0.2"/>
<path d="M51.2692 34.1135C50.5592 37.4971 48.3598 40.2056 47.2165 43.4087C46.1488 46.4011 45.9074 49.7007 45.6655 52.8633C45.2055 58.9048 45.2971 64.9849 46.3883 70.9506C46.6911 72.6031 47.0814 74.2226 47.5516 75.8304C48.0251 77.4509 48.472 79.0826 49.2173 80.5922C49.27 80.6995 49.4349 80.6261 49.4016 80.5115C48.9786 79.0592 48.4375 77.6487 48.0248 76.1918C47.6359 74.8168 47.3467 73.3985 47.0758 71.9938C46.5048 69.0317 46.1789 66.017 46.0404 62.9993C45.9051 60.0255 45.9374 57.0328 46.1432 54.0626C46.3638 50.8941 46.6568 47.6443 47.4869 44.5789C48.4733 40.9354 50.9759 37.9628 51.7265 34.238C51.7899 33.9239 51.3351 33.7995 51.2692 34.1135Z" fill="black" fill-opacity="0.2"/>
<path d="M51.5257 34.6575C50.1179 40.3516 49.2343 46.1872 48.7794 52.0503C48.3245 57.9228 48.4405 63.7508 48.777 69.624C48.9696 72.984 49.1848 76.3736 48.9571 79.7382C48.9471 79.892 49.1978 79.9268 49.2154 79.7708C49.8707 74.0018 49.0328 68.2066 48.9565 62.4267C48.8776 56.4517 49.2485 50.4774 50.0922 44.5679C50.5627 41.2741 51.1821 38.0028 51.8979 34.7582C51.9547 34.5038 51.5885 34.404 51.5257 34.6575Z" fill="black" fill-opacity="0.2"/>
<path d="M51.3301 34.3261C51.7845 39.7635 52.0774 45.2559 52.0519 50.715C52.0263 56.1931 51.6779 61.646 51.1515 67.0941C51.0058 68.5962 50.8466 70.0971 50.6864 71.5973C50.5188 73.173 50.1582 74.7647 50.0932 76.3462C50.0887 76.464 50.2531 76.477 50.2827 76.3701C50.6446 75.0662 50.7531 73.6421 50.9508 72.3009C51.1505 70.9393 51.3485 69.5808 51.5048 68.2136C51.8088 65.5404 52.0251 62.8648 52.1757 60.177C52.4831 54.6833 52.6564 49.142 52.4734 43.6395C52.3694 40.5274 52.1558 37.4201 51.8654 34.3212C51.8316 33.9653 51.3006 33.9646 51.3301 34.3261Z" fill="black" fill-opacity="0.2"/>
<path d="M43.538 56.0601C43.3282 53.3139 43.1143 50.5801 42.2936 47.9424C41.6291 45.8084 40.6039 43.8188 39.3862 41.9794C36.8474 38.1442 33.5509 34.9593 30.6505 31.4413C29.7964 30.4055 28.9585 29.3495 28.1926 28.2391C27.4528 27.1661 26.817 26.0252 26.1205 24.9225C25.9887 24.7138 25.6169 24.8381 25.7122 25.1022C26.4432 27.1325 27.7561 28.9462 29.0324 30.6324C30.4215 32.4672 31.9763 34.1629 33.5018 35.8722C36.4751 39.2036 39.5478 42.6608 41.2496 46.9285C42.4004 49.8135 42.7646 52.9811 43.1107 56.0633C43.1407 56.3479 43.5605 56.3538 43.538 56.0601Z" fill="black" fill-opacity="0.2"/>
<path d="M25.6258 24.6353C25.8867 28.4451 26.1721 32.2572 26.5182 36.0597C26.8172 39.3453 27.3165 42.5801 28.3505 45.7066C30.3095 51.628 33.6996 56.9131 37.6208 61.595C39.7461 64.1339 42.3633 66.2345 44.1958 69.0302C44.3944 69.3345 44.8137 69.0775 44.6662 68.7456C44.1057 67.4873 43.1085 66.4323 42.1966 65.4458C41.2691 64.4433 40.3158 63.4713 39.4174 62.4388C37.3661 60.0795 35.4137 57.6426 33.7057 54.993C32.0367 52.4047 30.5817 49.6477 29.492 46.7356C28.3354 43.6426 27.6655 40.425 27.2977 37.1308C26.8324 32.9728 26.551 28.792 26.1346 24.6294C26.1002 24.2934 25.602 24.2894 25.6258 24.6353Z" fill="black" fill-opacity="0.2"/>
<path d="M25.599 24.7583C27.1883 30.8877 28.2325 37.1733 30.1495 43.2076C31.0512 46.0453 32.1632 48.7974 33.5652 51.4022C35.0104 54.0869 36.6661 56.6402 38.3108 59.1924C40.1702 62.0786 41.9844 64.9839 43.6951 67.9708C43.8479 68.2381 44.2138 68.006 44.0894 67.7313C42.8548 65.0128 41.1966 62.4973 39.5876 60.0124C37.9223 57.4412 36.2249 54.8887 34.6994 52.2237C31.6145 46.8328 29.8981 40.8994 28.484 34.8273C27.6913 31.4226 26.9683 27.9987 26.0795 24.6191C25.9944 24.2934 25.5139 24.4326 25.599 24.7583Z" fill="black" fill-opacity="0.2"/>
<path d="M25.7352 24.7895C27.5208 30.6572 29.4066 36.5849 32.1886 42.0302C33.5872 44.7697 35.2434 47.353 36.6627 50.0805C38.046 52.739 39.3072 55.468 40.4389 58.255C41.7412 61.4621 42.7702 64.6832 43.6894 68.0282C43.7681 68.3134 44.1733 68.1942 44.1113 67.9067C43.496 65.0521 42.4691 62.2384 41.4585 59.5157C40.4259 56.7338 39.2111 54.0216 37.9026 51.3727C36.5523 48.6391 34.9976 46.0446 33.5267 43.3838C32.0015 40.6256 30.7273 37.7209 29.5944 34.7626C28.3249 31.4452 27.2265 28.0595 26.175 24.6611C26.0836 24.3709 25.646 24.4952 25.7352 24.7895Z" fill="black" fill-opacity="0.2"/>
<path d="M25.7343 24.7665C27.5034 29.5685 30.0031 34.1439 32.9722 38.2364C34.6363 40.5294 36.1905 42.823 37.349 45.4487C38.4991 48.0545 39.3268 50.8005 40.1429 53.5369C40.6282 55.1645 41.1564 56.7771 41.6672 58.3956C42.162 59.9653 42.5259 61.6977 43.2352 63.1762C43.3149 63.343 43.5218 63.2162 43.4997 63.0595C43.2942 61.5748 42.714 60.0936 42.3057 58.6569C41.8908 57.1945 41.4855 55.7284 41.0644 54.2678C40.2895 51.5885 39.4597 48.913 38.4259 46.3307C37.3939 43.7522 36.0723 41.4149 34.451 39.1975C32.8883 37.0599 31.3697 34.9338 30.0536 32.6173C28.5999 30.0602 27.2887 27.3852 26.2163 24.6269C26.096 24.3208 25.6171 24.4501 25.7343 24.7665Z" fill="black" fill-opacity="0.2"/>
<path d="M40.0481 28.4167C39.397 30.7457 39.4182 33.0881 39.8147 35.4639C40.1811 37.6621 40.9064 39.7431 41.4414 41.8945C42.4828 46.0786 42.9338 50.3362 43.4146 54.6171C43.4415 54.8552 43.8201 54.9583 43.8539 54.6726C44.0818 52.7458 43.8298 50.7311 43.5882 48.8187C43.3122 46.6367 42.918 44.4707 42.4078 42.3355C41.3213 37.7805 39.4396 33.3269 40.4981 28.5381C40.5651 28.2316 40.1323 28.1164 40.0481 28.4167Z" fill="black" fill-opacity="0.2"/>
<path d="M49.0977 80.7737C51.1371 86.2354 55.2855 90.5509 59.3783 94.3959C63.7152 98.4708 68.4895 102.025 73.5402 105.057C83.7516 111.189 95.0432 115.41 106.506 118.094C112.474 119.492 118.851 120.591 124.944 119.462C125.289 119.398 125.21 118.794 124.858 118.821C119.342 119.256 113.94 118.778 108.528 117.605C102.939 116.393 97.4114 114.793 92.0182 112.837C81.1322 108.888 70.6709 103.262 61.7761 95.522C59.3099 93.3763 56.9515 91.0744 54.7854 88.5964C52.6938 86.2021 50.7922 83.5695 49.5615 80.5703C49.4492 80.2947 48.9928 80.4916 49.0977 80.7737Z" fill="black" fill-opacity="0.2"/>
<path d="M61.1878 70.1011C60.63 75.7715 61.0676 81.5374 62.7968 86.9599C64.6351 92.7278 67.9473 97.6238 72.1537 101.765C74.639 104.214 77.3485 106.595 80.2193 108.535C80.5705 108.772 81.001 108.199 80.672 107.912C78.3683 105.904 75.9151 104.11 73.6757 102.015C71.4554 99.9361 69.3735 97.6668 67.6417 95.1208C64.5199 90.5323 62.6874 85.1387 61.9523 79.574C61.539 76.4421 61.438 73.2506 61.6172 70.0965C61.6333 69.8029 61.2159 69.8187 61.1878 70.1011Z" fill="black" fill-opacity="0.2"/>
<path d="M61.2917 69.9588C62.302 72.5893 64.3683 74.5474 66.0585 76.6949C67.8151 78.9268 69.4431 81.2767 70.9265 83.7175C73.8678 88.5555 76.244 93.7814 77.9622 99.2311C78.9224 102.277 79.6766 105.396 80.2307 108.551C80.322 109.07 81.0686 108.849 80.9827 108.335C79.0925 97.1858 74.4947 86.4895 67.6953 77.6882C66.7255 76.433 65.7045 75.227 64.6637 74.0363C63.5253 72.733 62.4216 71.3991 61.757 69.755C61.6447 69.4794 61.1832 69.6787 61.2917 69.9588Z" fill="black" fill-opacity="0.2"/>
<path d="M61.3076 70.0732C61.3197 75.4183 62.7244 80.64 64.5277 85.5978C65.439 88.1041 66.3617 90.6701 67.5399 93.053C68.802 95.6067 70.6521 97.778 72.4993 99.8786C74.692 102.374 77.0362 104.716 79.5072 106.905C79.8537 107.213 80.3586 106.689 80.0091 106.379C77.9116 104.519 75.9041 102.55 74.0048 100.467C72.1093 98.3892 70.1426 96.2212 68.7269 93.7437C67.3868 91.398 66.4461 88.7604 65.4846 86.2254C64.5747 83.8282 63.7486 81.3931 63.0801 78.9101C62.3047 76.0274 61.8345 73.0646 61.7454 70.0697C61.7361 69.773 61.3073 69.7766 61.3076 70.0732Z" fill="black" fill-opacity="0.2"/>
<path d="M61.6729 70.8009C62.1751 75.6537 64.0832 80.107 66.3606 84.3098C68.9956 89.1705 71.8824 93.8974 74.6848 98.6538C75.5133 100.06 76.3413 101.465 77.1697 102.871C78.0407 104.349 78.8401 105.927 79.8305 107.318C80.0795 107.667 80.5924 107.378 80.3994 106.973C79.7816 105.678 78.9648 104.464 78.2403 103.232C77.5102 101.992 76.7807 100.75 76.0506 99.5095C74.566 96.9854 73.0726 94.4681 71.5771 91.9523C69.0143 87.6384 66.3188 83.3386 64.3583 78.6753C63.291 76.138 62.4547 73.4911 62.034 70.7487C62.0014 70.5329 61.6505 70.5831 61.6729 70.8009Z" fill="black" fill-opacity="0.2"/>
<path d="M61.8331 71.3137C64.3782 75.9312 66.9867 80.5053 69.5764 85.0952C72.0861 89.5426 74.3078 94.1142 76.2544 98.8626C77.3387 101.509 78.2863 104.226 79.4502 106.835C79.5402 107.038 79.8622 106.896 79.7943 106.683C79.0415 104.327 78.0957 102.032 77.1809 99.7413C76.2201 97.3381 75.2157 94.9534 74.1279 92.6109C71.9389 87.9005 69.2954 83.4476 66.7395 78.9523C65.2434 76.3212 63.7136 73.7118 62.1828 71.1018C62.0461 70.8712 61.7032 71.0777 61.8331 71.3137Z" fill="black" fill-opacity="0.2"/>
<path d="M58.424 105.291C62.4107 104.869 66.3971 105.446 70.2797 106.402C72.2135 106.879 74.1268 107.443 76.0312 108.033C77.9326 108.622 79.8537 109.385 81.8061 109.754C82.157 109.82 82.2594 109.334 81.9395 109.201C80.0935 108.432 78.1007 107.941 76.1927 107.362C74.2106 106.761 72.2191 106.186 70.2042 105.714C66.3416 104.809 62.3703 104.28 58.4163 104.73C58.079 104.769 58.0793 105.327 58.424 105.291Z" fill="black" fill-opacity="0.2"/>
<path d="M58.1031 105.299C63.5738 109.055 68.75 113.304 74.6913 116.245C79.9469 118.845 85.7664 120.389 91.5853 119.444C94.512 118.968 97.3633 117.87 99.7838 116.064C100.215 115.741 99.8077 114.985 99.3675 115.307C89.3014 122.669 76.5963 117.107 67.4156 110.942C64.3898 108.91 61.4503 106.743 58.3976 104.756C58.0698 104.542 57.7846 105.08 58.1031 105.299Z" fill="black" fill-opacity="0.2"/>
<path d="M82.5268 109.665C85.4629 110.305 88.3596 111.146 91.1979 112.163C92.6313 112.678 94.0583 113.23 95.4463 113.866C96.1323 114.18 96.8074 114.519 97.488 114.847C98.1378 115.161 98.809 115.585 99.5134 115.737C99.7457 115.786 99.9649 115.468 99.7602 115.282C99.2486 114.818 98.573 114.547 97.9624 114.251C97.2946 113.927 96.6092 113.641 95.9274 113.355C94.4938 112.755 93.0547 112.175 91.5917 111.661C88.6602 110.63 85.6625 109.852 82.6204 109.281C82.3838 109.237 82.2871 109.613 82.5268 109.665Z" fill="black" fill-opacity="0.2"/>
<path d="M98.831 115.17C96.1748 114.558 93.5409 113.959 90.9139 113.218C88.3765 112.501 85.8323 111.808 83.2859 111.13C77.9722 109.713 72.6428 108.359 67.3229 106.966C64.3193 106.179 61.3235 105.201 58.2906 104.554C57.9426 104.48 57.8163 105.003 58.1548 105.116C60.7634 105.979 63.4966 106.54 66.1527 107.223C68.8069 107.906 71.4613 108.592 74.1159 109.276C79.3571 110.626 84.5982 111.982 89.8151 113.434C91.2135 113.823 92.6058 114.252 94.013 114.606C95.5714 114.997 97.1515 115.289 98.7179 115.642C99.0076 115.707 99.1242 115.238 98.831 115.17Z" fill="black" fill-opacity="0.2"/>
<path d="M59.1432 105.668C64.4792 107.497 69.3391 110.542 74.655 112.429C79.6994 114.221 84.9681 115.273 90.2641 115.805C91.7212 115.95 93.1822 116.051 94.6457 116.111C96.0817 116.169 97.5766 116.292 99.0033 116.073C99.1809 116.045 99.1784 115.724 98.9995 115.7C97.7658 115.532 96.5024 115.593 95.2597 115.542C93.967 115.488 92.6761 115.4 91.3871 115.285C88.6792 115.042 85.9835 114.659 83.3156 114.116C77.9992 113.035 72.9505 111.261 68.0263 108.911C65.1527 107.54 62.2931 106.128 59.2598 105.187C58.9659 105.096 58.8562 105.569 59.1432 105.668Z" fill="black" fill-opacity="0.2"/>
<path d="M58.5499 104.858C60.5834 106.304 62.7991 107.45 64.897 108.787C67.5373 110.469 70.0183 112.3 72.8483 113.64C78.2968 116.22 84.2346 117.563 90.2006 117.775C91.7973 117.832 93.5223 117.921 95.0853 117.512C96.5383 117.132 97.7867 116.265 99.2877 116.025C99.4416 116.001 99.3927 115.76 99.2515 115.754C98.0266 115.699 96.9242 116.386 95.7974 116.794C94.3919 117.302 92.9024 117.249 91.4367 117.203C88.3794 117.107 85.3425 116.8 82.3409 116.178C79.3722 115.562 76.4575 114.694 73.6681 113.453C70.805 112.179 68.2456 110.466 65.6313 108.719C63.3862 107.219 60.9129 106.144 58.6645 104.649C58.5374 104.565 58.4288 104.772 58.5499 104.858Z" fill="black" fill-opacity="0.2"/>
<path d="M95.5947 92.7585C96.0064 97.6831 97.8566 102.433 100.651 106.396C103.769 110.818 108.111 114.134 112.736 116.639C114.15 117.406 115.6 118.1 117.073 118.734C118.364 119.291 119.742 119.992 121.169 119.901C121.486 119.881 121.543 119.421 121.234 119.322C116.264 117.735 111.479 115.36 107.3 112.091C103.443 109.075 100.339 105.274 98.2849 100.695C97.1603 98.1902 96.3452 95.5017 96.0022 92.7516C95.9686 92.4879 95.571 92.479 95.5947 92.7585Z" fill="black" fill-opacity="0.2"/>
<path d="M95.6704 93.1419C103.146 98.5244 110.537 104.387 115.594 112.427C116.262 113.49 116.886 114.583 117.457 115.706C118.044 116.856 118.483 118.12 119.13 119.231C119.317 119.553 119.786 119.345 119.705 118.979C119.461 117.893 118.913 116.837 118.428 115.851C117.927 114.833 117.384 113.839 116.802 112.87C115.618 110.897 114.281 109.026 112.836 107.257C109.83 103.579 106.339 100.407 102.653 97.5028C100.478 95.7882 98.2308 94.1823 95.9555 92.6165C95.6434 92.4001 95.367 92.9239 95.6704 93.1419Z" fill="black" fill-opacity="0.2"/>
<path d="M95.7715 93.17C98.7183 101.97 105.062 108.871 112.025 114.401C113.136 115.283 114.278 116.122 115.431 116.942C116.558 117.744 117.712 118.702 118.951 119.302C119.225 119.435 119.565 119.062 119.298 118.824C118.462 118.081 117.46 117.517 116.55 116.877C115.579 116.195 114.617 115.497 113.669 114.781C111.724 113.312 109.82 111.79 108.014 110.137C104.718 107.118 101.732 103.724 99.3818 99.8389C98.0886 97.7013 96.9838 95.4353 96.1322 93.0662C96.0473 92.8327 95.6905 92.9294 95.7715 93.17Z" fill="black" fill-opacity="0.2"/>
<path d="M95.9826 93.4292C100.754 101.051 107.357 107.242 113.59 113.512C114.505 114.432 115.417 115.356 116.322 116.286C117.23 117.222 118.095 118.231 119.05 119.114C119.336 119.377 119.706 118.981 119.465 118.68C118.065 116.931 116.368 115.38 114.802 113.794C113.242 112.213 111.67 110.644 110.105 109.068C106.965 105.905 103.855 102.701 100.984 99.2619C99.349 97.303 97.7713 95.2715 96.2569 93.2088C96.1369 93.045 95.8755 93.2583 95.9826 93.4292Z" fill="black" fill-opacity="0.2"/>
<path d="M96.1508 93.5227C97.7532 95.4065 99.6566 97.0019 101.464 98.6592C103.338 100.376 105.206 102.1 107.075 103.823C110.089 106.602 112.762 109.797 115.093 113.222C115.748 114.183 116.371 115.167 116.967 116.168C117.534 117.12 117.999 118.139 118.574 119.083C118.709 119.306 119.093 119.17 119.001 118.896C118.378 117.046 117.208 115.29 116.158 113.683C115.005 111.919 113.756 110.224 112.427 108.602C109.533 105.072 106.118 102.165 102.775 99.1235C100.654 97.1917 98.3852 95.347 96.5038 93.1502C96.2889 92.8999 95.9364 93.2713 96.1508 93.5227Z" fill="black" fill-opacity="0.2"/>
<path d="M28.5602 69.8313C33.7874 71.6876 38.4979 74.8649 42.6477 78.6452C44.6766 80.4942 46.5883 82.4831 48.4327 84.5319C50.2558 86.5558 51.9593 88.6978 53.7946 90.7087C54.7624 91.7678 55.7932 92.7752 56.9577 93.5931C57.9439 94.2856 59.3207 95.1614 60.5502 95.0869C60.7622 95.0741 60.8625 94.7632 60.6576 94.6488C60.14 94.3597 59.5724 94.2411 59.0358 93.9988C58.4236 93.7222 57.8414 93.3715 57.2894 92.9792C56.1827 92.1904 55.2005 91.2147 54.2764 90.2034C52.439 88.194 50.7343 86.054 48.9097 84.0306C45.2605 79.9837 41.3073 76.1761 36.7775 73.2341C34.235 71.5829 31.5391 70.2597 28.6744 69.35C28.383 69.257 28.2748 69.7298 28.5602 69.8313Z" fill="black" fill-opacity="0.2"/>
<path d="M28.4145 69.796C30.0777 71.9125 31.2504 74.372 32.6459 76.6777C34.008 78.9283 35.6578 80.896 37.5792 82.6389C41.633 86.3157 46.3139 89.3264 51.1734 91.675C53.9105 92.9984 56.8449 94.3004 59.8201 94.8782C60.1655 94.9452 60.266 94.4651 59.9516 94.334C57.412 93.2789 54.8109 92.4347 52.3033 91.285C49.8545 90.1623 47.4767 88.8709 45.19 87.4186C40.7113 84.5748 36.2822 81.1786 33.3606 76.5418C31.8522 74.147 30.5785 71.5932 28.7874 69.4057C28.5649 69.1359 28.2025 69.5258 28.4145 69.796Z" fill="black" fill-opacity="0.2"/>
<path d="M28.7447 69.923C32.569 73.8607 36.3963 77.8001 40.4168 81.5166C44.0397 84.8655 47.8187 88.1357 51.9142 90.8344C52.87 91.464 53.834 92.0809 54.8241 92.6497C55.6109 93.1011 56.4685 93.6692 57.3717 93.78C57.6001 93.8083 57.6353 93.4678 57.4753 93.3587C56.7706 92.8819 55.9438 92.5826 55.1968 92.1767C54.3414 91.7114 53.5008 91.2143 52.6759 90.6927C50.8585 89.5427 49.1297 88.2412 47.4361 86.9012C43.215 83.5616 39.2665 79.8597 35.428 76.0503C33.2826 73.9217 31.1712 71.7567 29.0599 69.5916C28.8559 69.3803 28.5398 69.7112 28.7447 69.923Z" fill="black" fill-opacity="0.2"/>
<path d="M28.9406 69.9722C31.1901 71.3385 33.4351 72.6724 35.5722 74.2315C37.7538 75.8226 39.8593 77.5185 41.8552 79.3614C43.7688 81.1281 45.5861 83.0104 47.2905 84.9986C48.691 86.6317 50.1353 88.1936 51.7093 89.6449C53.4059 91.2101 55.2264 92.8249 57.2484 93.9091C57.558 94.0753 57.8172 93.6048 57.5168 93.4144C53.9694 91.1625 50.7971 88.236 48.048 84.9857C44.6749 80.9983 40.8648 77.4265 36.7165 74.3497C34.3323 72.5806 31.7909 70.899 29.1481 69.5899C28.9063 69.4697 28.7026 69.8286 28.9406 69.9722Z" fill="black" fill-opacity="0.2"/>
<path d="M39.9316 27.8279C39.7654 27.8111 39.5561 27.529 39.4544 27.4099C39.3133 27.2444 39.1882 27.064 39.0608 26.8877C38.804 26.5338 38.4854 26.1918 38.1134 25.9721C37.452 25.5821 36.5686 25.5468 35.9495 26.039C35.7889 26.1663 35.8689 26.4822 36.097 26.4087C36.7844 26.1875 37.5436 26.2379 38.0865 26.775C38.3815 27.0678 38.6194 27.4184 38.9027 27.7232C39.17 28.0102 39.532 28.3768 39.9378 28.3798C40.2819 28.3825 40.2611 27.8624 39.9316 27.8279Z" fill="black" fill-opacity="0.2"/>
<path d="M36.1328 26.3325C36.4703 25.8411 37.0542 25.5134 37.6318 25.504C37.9503 25.4994 38.2623 25.5898 38.5378 25.7546C38.6722 25.8349 38.7947 25.9298 38.9063 26.0425C39.037 26.1748 39.1352 26.3431 39.3203 26.3942C39.4504 26.43 39.5488 26.3224 39.5609 26.1956C39.5814 25.9723 39.3984 25.7844 39.2536 25.645C39.1067 25.5045 38.943 25.3808 38.7673 25.2839C38.4136 25.0874 38.0072 24.9785 37.605 24.9926C36.8504 25.0193 36.1602 25.4406 35.7608 26.1102C35.6105 26.3587 35.9744 26.5627 36.1328 26.3325Z" fill="black" fill-opacity="0.2"/>
<path d="M39.5202 26.0015C39.3499 25.5382 39.4736 25.0464 39.5355 24.5758C39.5674 24.3363 39.604 24.0955 39.6494 23.8573C39.7029 23.578 39.873 23.3358 39.858 23.0426C39.8524 22.9269 39.701 22.8377 39.6194 22.9406C39.4321 23.1765 39.2513 23.4312 39.1612 23.728C39.0839 23.9822 39.0071 24.245 38.957 24.5061C38.851 25.0532 38.8303 25.6879 39.0796 26.1956C39.2026 26.4465 39.6196 26.2721 39.5202 26.0015Z" fill="black" fill-opacity="0.2"/>
<path d="M39.4974 23.1677C39.6815 23.7244 39.8717 24.2889 39.9772 24.8691C40.0241 25.1273 40.0446 25.3913 40.0486 25.6549C40.0508 25.7862 40.046 25.9187 40.0302 26.05C40.0126 26.1965 39.9601 26.3479 40.0461 26.4819C40.0944 26.5568 40.1784 26.5826 40.2553 26.5406C40.3927 26.4657 40.42 26.306 40.4426 26.1598C40.4657 26.0126 40.481 25.8633 40.4856 25.7145C40.4972 25.4128 40.4586 25.1108 40.3986 24.815C40.2725 24.1942 40.021 23.6215 39.7685 23.0482C39.6995 22.8878 39.4413 23.0001 39.4974 23.1677Z" fill="black" fill-opacity="0.2"/>
<path d="M40.4796 26.4409C40.5035 26.1519 40.7924 25.9739 40.9959 25.8248C41.2323 25.6506 41.4535 25.4593 41.6445 25.2309C42.0297 24.7706 42.2684 24.1998 42.308 23.5871C42.3252 23.3198 41.9703 23.3176 41.8933 23.5356C41.7009 24.0853 41.4283 24.6305 41.0442 25.0602C40.6649 25.4834 40.0493 25.7762 40.0591 26.4454C40.0639 26.734 40.4568 26.7184 40.4796 26.4409Z" fill="black" fill-opacity="0.2"/>
<path d="M41.9416 23.7684C41.9391 24.4317 41.9247 25.0838 41.7312 25.721C41.6466 26.0007 41.5502 26.2545 41.3881 26.4961C41.313 26.6083 41.2303 26.7132 41.1331 26.8067C41.0322 26.9048 40.9267 26.9826 40.8608 27.1137C40.8121 27.2106 40.8539 27.3547 40.9673 27.3764C41.2869 27.4389 41.5998 27.1642 41.8026 26.9307C42.0322 26.6645 42.1972 26.3272 42.3006 25.9868C42.405 25.6444 42.4036 25.2428 42.3822 24.8874C42.359 24.4972 42.2966 24.1106 42.2351 23.7245C42.205 23.5468 41.9424 23.5956 41.9416 23.7684Z" fill="black" fill-opacity="0.2"/>
<path d="M39.8746 28.1757C40.3903 29.0173 41.3742 28.865 42.1413 28.5682C42.5212 28.4217 42.884 28.2189 43.2865 28.1496C43.4759 28.1166 43.6763 28.1037 43.8663 28.1361C44.0513 28.1682 44.2535 28.3161 44.4388 28.255C44.5251 28.2267 44.5733 28.1378 44.5519 28.0465C44.469 27.6788 43.86 27.6558 43.5766 27.6719C43.1896 27.6937 42.7983 27.8063 42.4284 27.925C42.0697 28.0395 41.7056 28.1806 41.3308 28.2178C40.948 28.2556 40.4959 28.2141 40.2317 27.8883C40.0658 27.6809 39.7358 27.9492 39.8746 28.1757Z" fill="black" fill-opacity="0.2"/>
<path d="M40.8846 27.392C41.4923 27.674 42.1248 27.554 42.7665 27.5382C43.075 27.5304 43.3889 27.5556 43.6776 27.6795C43.9638 27.8032 44.1763 27.9938 44.3619 28.2482C44.4415 28.3581 44.6158 28.3459 44.7095 28.2706C44.82 28.181 44.8343 28.0406 44.7786 27.9126C44.4852 27.239 43.7329 27.0452 43.0949 27.0185C42.4595 26.9919 41.7272 27.2269 41.1231 26.9525C40.8426 26.8254 40.6004 27.26 40.8846 27.392Z" fill="black" fill-opacity="0.2"/>
<path d="M37.8652 24.8607C34.6799 22.3326 33.5403 17.9735 35.1161 14.1018C35.9121 12.1451 37.2508 10.5927 38.8225 9.28103C40.5137 7.87029 42.4193 6.9532 44.2457 5.78297C44.4356 5.66099 44.3155 5.32388 44.092 5.39602C41.9726 6.07971 39.8975 7.52767 38.1667 8.95671C36.4155 10.402 34.9948 12.1531 34.2064 14.3621C32.8208 18.2445 33.887 23.326 37.6178 25.3166C37.9124 25.4724 38.1159 25.0593 37.8652 24.8607Z" fill="black" fill-opacity="0.2"/>
<path d="M44.0146 5.7435C44.0188 5.75955 44.0214 5.77603 44.0241 5.79252C44.0221 5.77238 44.0186 5.75269 44.0157 5.73197C44.0285 5.83441 44.0235 5.9411 44.0117 6.04371C44.0138 6.02328 44.0168 6.00343 44.0189 5.98299C44.0153 6.01335 44.0112 6.04473 44.0061 6.07553C43.9972 6.12983 43.9968 6.1472 44.0071 6.20206C44.0087 6.20848 44.0095 6.21432 44.0111 6.22074C44.0135 6.233 44.0154 6.24628 44.0172 6.25955C44.0151 6.24204 44.013 6.22452 44.0103 6.20804C44.0141 6.23197 44.0163 6.25634 44.0155 6.28159C44.0153 6.28684 44.0156 6.29108 44.0153 6.29634C44.0146 6.31896 44.0222 6.25034 44.018 6.27223C44.0142 6.28888 44.0014 6.32189 44.0244 6.26523C44.002 6.32087 43.9982 6.37545 44.0362 6.42663C44.0681 6.47007 44.1309 6.49946 44.1841 6.47983C44.2461 6.45596 44.2969 6.4146 44.3402 6.36331C44.3799 6.31393 44.4238 6.26162 44.4401 6.19826C44.4484 6.16395 44.4533 6.12628 44.4572 6.09067C44.476 5.93944 44.4947 5.77187 44.4552 5.62102C44.4237 5.50066 44.2926 5.41416 44.1756 5.45387C44.0579 5.48774 43.9785 5.61497 44.0146 5.7435Z" fill="black" fill-opacity="0.2"/>
<path d="M44.6079 6.46334C44.9359 6.13689 45.3816 6.00941 45.8031 5.87422C46.0373 5.799 46.2687 5.71941 46.4933 5.61678C46.7436 5.50243 46.9317 5.33872 47.0248 5.06269C47.0703 4.92883 46.9289 4.8186 46.8136 4.84578C46.5778 4.90247 46.3867 5.01965 46.1736 5.13189C45.9678 5.24033 45.7697 5.31548 45.5498 5.40468C45.1029 5.58426 44.6497 5.78034 44.3186 6.15772C44.1379 6.36241 44.4148 6.65521 44.6079 6.46334Z" fill="black" fill-opacity="0.2"/>
<path d="M46.6233 5.15443C46.94 5.43579 47.1751 5.76311 47.3472 6.16113C47.4154 6.3183 47.487 6.53571 47.5328 6.72691C47.5813 6.93458 47.5918 7.21701 47.7601 7.36089C47.8225 7.41448 47.9015 7.42107 47.9648 7.36144C48.1548 7.17994 48.0994 6.84491 48.0537 6.61053C48.0056 6.36652 47.9268 6.13394 47.8224 5.91045C47.6212 5.48023 47.3245 5.09305 46.9654 4.79716C46.8629 4.71285 46.7245 4.69237 46.6252 4.79684C46.5378 4.88671 46.5235 5.06501 46.6233 5.15443Z" fill="black" fill-opacity="0.2"/>
<path d="M48.1545 7.26282C48.1581 7.25143 48.1633 7.2396 48.1669 7.22821C48.1576 7.25245 48.1483 7.27669 48.1396 7.2999C48.1817 7.19374 48.2361 7.09355 48.301 7.00239C48.2859 7.02314 48.2707 7.04388 48.2556 7.06463C48.3124 6.98618 48.3768 6.91502 48.4489 6.85114C48.5015 6.80407 48.532 6.7099 48.5316 6.63926C48.5312 6.56863 48.4999 6.48358 48.4502 6.4349C48.3961 6.38229 48.3238 6.34444 48.2483 6.34805C48.1722 6.35268 48.1105 6.38079 48.0536 6.43341C47.8528 6.61802 47.7114 6.85712 47.6202 7.11804C47.5983 7.18214 47.6175 7.27757 47.6488 7.33416C47.6832 7.39672 47.751 7.45486 47.82 7.47038C47.889 7.4859 47.9651 7.48127 48.0259 7.44047C48.0448 7.42468 48.0641 7.41049 48.083 7.3947C48.118 7.35875 48.1418 7.31479 48.1545 7.26282Z" fill="black" fill-opacity="0.2"/>
<path d="M48.0803 6.67918C48.7301 10.8931 51.3842 14.835 50.9473 19.2196C50.534 23.3584 46.6085 26.8814 42.6783 26.9956C42.3888 27.004 42.3055 27.4997 42.6156 27.5484C44.5228 27.8451 46.4577 26.7411 47.9642 25.6139C49.7029 24.3128 51.0142 22.5423 51.5176 20.3335C52.6284 15.4651 49.4572 11.1287 48.6452 6.51735C48.5777 6.12368 48.0209 6.2944 48.0803 6.67918Z" fill="black" fill-opacity="0.2"/>
<path d="M44.1908 6.23174C41.1546 8.79997 38.4305 11.7415 37.4712 15.822C37.0732 17.5157 36.9489 19.2919 37.1551 21.0247C37.2574 21.8913 37.4398 22.7435 37.7165 23.5668C37.9145 24.1548 38.1357 25.1683 38.7321 25.4071C38.8167 25.4414 38.9211 25.363 38.939 25.2776C39.0106 24.9508 38.9023 24.794 38.7709 24.4895C38.5872 24.0629 38.4239 23.6295 38.2889 23.182C38.0468 22.3781 37.8846 21.5434 37.8034 20.7043C37.6448 19.0622 37.7818 17.3979 38.1793 15.8026C38.5565 14.2873 39.1771 12.8511 40.0264 11.5639C41.2686 9.68303 42.9201 8.11991 44.4498 6.50298C44.6201 6.32457 44.3703 6.07914 44.1908 6.23174Z" fill="black" fill-opacity="0.2"/>
<path d="M47.6141 6.96077C47.7096 8.88323 48.2425 10.7125 48.8869 12.5028C49.2736 13.5773 49.7249 14.6349 49.997 15.7519C50.7324 18.7716 49.8464 21.5287 48.6899 24.2878C48.612 24.4741 48.8486 24.625 48.9557 24.4467C50.426 22.0173 51.2431 18.9497 50.677 16.0907C50.4758 15.0784 50.106 14.1249 49.7449 13.1673C48.9875 11.1646 48.2763 9.12451 48.1579 6.95421C48.1366 6.5895 47.5959 6.59255 47.6141 6.96077Z" fill="black" fill-opacity="0.2"/>
<path d="M39.2725 24.9137C38.7802 21.5764 38.5143 18.2093 39.7575 15.0078C39.7893 14.9253 39.683 14.855 39.6396 14.9374C38.0507 17.9944 38.507 21.6974 39.0366 24.9825C39.0628 25.1457 39.2963 25.0742 39.2725 24.9137Z" fill="black" fill-opacity="0.2"/>
<path d="M36.662 14.2555C36.1606 16.0851 36.0556 18.0325 36.2941 19.9173C36.42 20.9116 36.6485 21.8902 37.0142 22.8181C37.3638 23.7067 37.8496 24.6793 38.5507 25.3191C38.6135 25.3769 38.7314 25.2999 38.6749 25.2187C38.0907 24.3917 37.5467 23.6143 37.1806 22.6469C36.8291 21.7166 36.6096 20.7285 36.4926 19.7368C36.2813 17.9373 36.3707 16.0496 36.7987 14.2912C36.82 14.1997 36.6868 14.1647 36.662 14.2555Z" fill="black" fill-opacity="0.2"/>
<path d="M35.1514 15.4914C34.6846 17.255 34.896 19.1587 35.455 20.8709C35.7481 21.7663 36.1442 22.6285 36.6331 23.4243C37.0716 24.1372 37.6042 24.8928 38.2815 25.3721C38.3813 25.4426 38.4714 25.2907 38.4025 25.2062C37.8617 24.5323 37.2959 23.9139 36.8396 23.1673C36.3739 22.4071 35.9976 21.5892 35.7103 20.7379C35.1537 19.0854 34.9227 17.2606 35.3498 15.5464C35.3834 15.4108 35.1864 15.358 35.1514 15.4914Z" fill="black" fill-opacity="0.2"/>
<path d="M43.3137 11.6963C42.033 13.7477 41.5692 16.1047 41.3091 18.509C41.1757 19.7437 41.0611 20.9815 40.9042 22.2143C40.827 22.8247 40.7399 23.4345 40.6343 24.0401C40.5473 24.5404 40.3882 25.0476 40.3825 25.5573C40.3807 25.6293 40.4817 25.6572 40.5131 25.5921C40.9531 24.7099 40.9966 23.4864 41.1247 22.5112C41.2707 21.3937 41.3818 20.2716 41.4979 19.1498C41.762 16.5976 42.1005 13.9775 43.3995 11.7449C43.4304 11.6902 43.348 11.6424 43.3137 11.6963Z" fill="black" fill-opacity="0.2"/>
<path d="M44.1763 13.9293C43.4257 15.5909 43.1187 17.3878 42.8122 19.1837C42.6598 20.0754 42.5058 20.9701 42.2928 21.8499C42.0525 22.8393 41.6741 23.7366 41.2902 24.6699C41.2518 24.7621 41.3632 24.83 41.4197 24.7474C42.402 23.3027 42.7086 21.3188 42.9946 19.6081C43.3115 17.717 43.5795 15.7898 44.3321 14.0224C44.3794 13.914 44.2272 13.8189 44.1763 13.9293Z" fill="black" fill-opacity="0.2"/>
<path d="M46.8839 10.9415C45.9809 13.5328 45.8065 16.2617 45.1854 18.9227C44.8988 20.1497 44.4863 21.3569 43.956 22.4911C43.7005 23.0382 43.4146 23.5698 43.0899 24.0756C42.7624 24.5865 42.3448 25.0258 42.0518 25.5587C41.945 25.7533 42.1646 25.9902 42.3513 25.8717C43.2476 25.2988 43.8628 24.0936 44.3382 23.146C44.9127 22.0017 45.3463 20.7841 45.6435 19.5282C46.3062 16.7215 46.3583 13.7949 47.1556 11.0159C47.2088 10.8298 46.9451 10.7669 46.8839 10.9415Z" fill="black" fill-opacity="0.2"/>
<path d="M46.9936 17.2332C46.4113 20.8446 45.5658 24.7819 41.9837 26.2793C41.897 26.3155 41.928 26.4558 42.0231 26.4301C43.5496 26.0146 44.7697 24.6499 45.5271 23.2562C46.5174 21.4333 46.8432 19.3214 47.1633 17.2792C47.1814 17.1627 47.0122 17.1157 46.9936 17.2332Z" fill="black" fill-opacity="0.2"/>
<path d="M49.0405 18.8529C48.9806 21.1048 48.0854 23.5153 46.247 24.7933C44.8041 25.7962 43.1315 26.4478 41.4858 26.9761C41.3965 27.0052 41.4331 27.1422 41.5239 27.122C43.3125 26.732 45.2156 25.8933 46.6858 24.7497C48.3906 23.4256 49.1683 21.0058 49.1942 18.85C49.1951 18.7463 49.0429 18.7488 49.0405 18.8529Z" fill="black" fill-opacity="0.2"/>
</svg>
