<svg width="24" height="24" viewBox="0 0 24 24" fill="none" xmlns="http://www.w3.org/2000/svg">
<mask id="mask0_1_11869" style="mask-type:luminance" maskUnits="userSpaceOnUse" x="0" y="-1" width="24" height="25">
<path d="M0 -0.000974655H24V23.999H0V-0.000974655Z" fill="white"/>
</mask>
<g mask="url(#mask0_1_11869)">
<path d="M5.02022 5.97151H2.13281V23.2959H18.976V18.4154" stroke="black" stroke-width="2" stroke-miterlimit="10" stroke-linecap="round" stroke-linejoin="round"/>
</g>
<path d="M15.6234 3.08479H5.02344V20.4092H16.986" stroke="black" stroke-width="2" stroke-miterlimit="10" stroke-linecap="round" stroke-linejoin="round"/>
<mask id="mask1_1_11869" style="mask-type:luminance" maskUnits="userSpaceOnUse" x="0" y="-1" width="24" height="25">
<path d="M0 -0.000974655H24V23.999H0V-0.000974655Z" fill="white"/>
</mask>
<g mask="url(#mask1_1_11869)">
<path d="M21.8636 15.5303V3.08642H19.2305" stroke="black" stroke-width="2" stroke-miterlimit="10" stroke-linecap="round" stroke-linejoin="round"/>
<path d="M16.9844 15.5286H21.8649L16.9844 20.4092V15.5286Z" stroke="black" stroke-width="2" stroke-miterlimit="10" stroke-linecap="round" stroke-linejoin="round"/>
</g>
<path d="M16.1026 3.9042L13.8164 6.19043" stroke="black" stroke-width="2" stroke-miterlimit="10" stroke-linecap="round" stroke-linejoin="round"/>
<mask id="mask2_1_11869" style="mask-type:luminance" maskUnits="userSpaceOnUse" x="0" y="-1" width="24" height="25">
<path d="M0 -0.000974655H24V23.999H0V-0.000974655Z" fill="white"/>
</mask>
<g mask="url(#mask2_1_11869)">
<path d="M19.3007 2.57715C19.3007 3.61266 18.4613 4.45215 17.4257 4.45215C16.3902 4.45215 15.5508 3.61266 15.5508 2.57715C15.5508 1.54163 16.3902 0.702149 17.4257 0.702149C18.4613 0.702149 19.3007 1.54163 19.3007 2.57715Z" stroke="black" stroke-width="2" stroke-miterlimit="10" stroke-linecap="round" stroke-linejoin="round"/>
</g>
</svg>
