<svg width="24" height="24" viewBox="0 0 24 24" fill="none" xmlns="http://www.w3.org/2000/svg">
<path d="M12.0306 -0.00292969H11.976C5.36561 -0.00292969 0.00683594 5.35742 0.00683594 11.9697V12.0244C0.00683594 18.6367 5.36561 23.9971 11.976 23.9971H12.0306C18.641 23.9971 23.9998 18.6367 23.9998 12.0244V11.9697C23.9998 5.35742 18.641 -0.00292969 12.0306 -0.00292969Z" fill="white"/>
<path d="M15.7147 4.87964H8.29065C6.23961 4.87964 4.57104 6.5487 4.57104 8.60034V15.3943C4.57104 17.4459 6.23961 19.115 8.29065 19.115H15.7147C17.7658 19.115 19.4343 17.4459 19.4343 15.3943V8.60034C19.4343 6.5487 17.7658 4.87964 15.7147 4.87964ZM5.88321 8.60034C5.88321 7.27266 6.96336 6.19218 8.29065 6.19218H15.7147C17.042 6.19218 18.1222 7.27266 18.1222 8.60034V15.3943C18.1222 16.722 17.042 17.8025 15.7147 17.8025H8.29065C6.96336 17.8025 5.88321 16.722 5.88321 15.3943V8.60034Z" fill="black"/>
<path d="M12.0026 15.4574C13.9099 15.4574 15.4625 13.9052 15.4625 11.9965C15.4625 10.0878 13.9107 8.53564 12.0026 8.53564C10.0945 8.53564 8.54272 10.0878 8.54272 11.9965C8.54272 13.9052 10.0945 15.4574 12.0026 15.4574ZM12.0026 9.84903C13.187 9.84903 14.1503 10.8126 14.1503 11.9974C14.1503 13.1821 13.187 14.1457 12.0026 14.1457C10.8182 14.1457 9.85489 13.1821 9.85489 11.9974C9.85489 10.8126 10.8182 9.84903 12.0026 9.84903Z" fill="black"/>
<path d="M15.7828 9.09472C16.2964 9.09472 16.715 8.67682 16.715 8.16223C16.715 7.64763 16.2972 7.22974 15.7828 7.22974C15.2684 7.22974 14.8506 7.64763 14.8506 8.16223C14.8506 8.67682 15.2684 9.09472 15.7828 9.09472Z" fill="black"/>
</svg>
