<svg width="233" height="75" viewBox="0 0 233 75" fill="none" xmlns="http://www.w3.org/2000/svg">
<path d="M47.7732 47.5478C46.6062 46.9818 45.7492 46.3548 45.2012 45.6648C44.6522 44.9758 44.3172 44.2418 44.1932 43.4638C44.0702 42.6868 44.1132 41.8828 44.3252 41.0508C44.5372 40.2198 44.8562 39.3888 45.2802 38.5578C45.7042 37.7268 46.1902 36.9058 46.7392 36.0918C47.2872 35.2788 47.8082 34.5188 48.3032 33.8118C48.3382 33.3878 48.4182 32.6808 48.5422 31.6908C48.6652 30.7008 48.8422 29.5788 49.0722 28.3228C49.3012 27.0678 49.5932 25.7598 49.9472 24.3988C50.3002 23.0378 50.7342 21.7648 51.2462 20.5798C51.7582 19.3958 52.3602 18.3788 53.0492 17.5308C53.7382 16.6828 54.5422 16.1518 55.4622 15.9398C56.0632 15.7628 56.6462 15.8338 57.2122 16.1518C57.7772 16.4698 58.1312 16.9838 58.2732 17.6898C58.3792 18.2558 58.2372 19.0068 57.8492 19.9438C57.4602 20.8818 56.9382 21.9148 56.2852 23.0468C55.6312 24.1788 54.8802 25.3628 54.0312 26.5998C53.1832 27.8378 52.3512 29.0388 51.5392 30.2058C51.4332 31.1258 51.3002 32.3278 51.1412 33.8128C50.9822 35.2978 50.8672 36.8718 50.7962 38.5328C50.7252 40.1948 50.7512 41.8738 50.8762 43.5708C50.9992 45.2678 51.2742 46.7968 51.6982 48.1578C52.1222 49.5178 52.7592 50.6138 53.6072 51.4458C54.4562 52.2758 55.5692 52.6558 56.9482 52.5858C58.6452 52.5148 60.0512 52.0648 61.1642 51.2338C62.2772 50.4028 63.1872 49.3148 63.8952 47.9718C63.6472 47.2298 63.4182 46.0538 63.2062 44.4458C62.9942 42.8378 62.8352 41.0338 62.7292 39.0358C62.6232 37.0388 62.6052 34.9518 62.6762 32.7778C62.7462 30.6038 62.9412 28.5538 63.2592 26.6258C63.5772 24.6998 64.0362 23.0118 64.6382 21.5618C65.2382 20.1128 66.0512 19.1228 67.0772 18.5918C67.1122 18.6278 67.1912 18.6538 67.3162 18.6708C67.4392 18.6888 67.5722 18.7238 67.7132 18.7768C67.8542 18.8298 67.9872 18.8828 68.1112 18.9358C68.2342 18.9888 68.2972 19.0678 68.2972 19.1738C68.3322 19.2798 68.2612 19.8458 68.0852 20.8708C67.9082 21.8968 67.7052 23.2128 67.4752 24.8218C67.2452 26.4308 67.0242 28.2518 66.8122 30.2838C66.6002 32.3178 66.4492 34.3938 66.3612 36.5148C66.2722 38.6368 66.2812 40.7308 66.3872 42.7998C66.4932 44.8678 66.7762 46.7508 67.2362 48.4478C67.6952 50.1448 68.3502 51.5768 69.1982 52.7428C70.0472 53.9098 71.1602 54.6348 72.5392 54.9178C73.4222 55.0948 74.2532 54.8198 75.0322 54.0958C75.8092 53.3708 76.5342 52.3278 77.2062 50.9668C77.8772 49.6058 78.5052 48.0058 79.0882 46.1678C79.6712 44.3298 80.1932 42.3938 80.6522 40.3608C81.1122 38.3278 81.5182 36.2778 81.8722 34.2088C82.2252 32.1408 82.5082 30.1968 82.7202 28.3748C82.9322 26.5548 83.0822 24.9278 83.1712 23.4958C83.2592 22.0638 83.2862 20.9768 83.2512 20.2348C81.9432 20.8008 80.8992 21.0128 80.1222 20.8708C79.3442 20.7298 78.7512 20.4028 78.3462 19.8898C77.9392 19.3778 77.7182 18.7408 77.6832 17.9808C77.6472 17.2208 77.7362 16.4958 77.9482 15.8058C78.1602 15.1168 78.4782 14.5328 78.9032 14.0558C79.3272 13.5788 79.8052 13.3758 80.3352 13.4458C81.3242 13.5518 82.0932 14.1448 82.6422 15.2228C83.1902 16.3018 83.5702 17.7068 83.7832 19.4388C84.5962 19.0498 85.5242 18.4838 86.5672 17.7418C87.6092 16.9988 88.7852 16.0448 90.0932 14.8778C90.2342 14.7368 90.3582 14.7538 90.4652 14.9308C90.5712 15.0728 90.5712 15.1958 90.4652 15.3028C89.1212 16.5048 87.8932 17.4858 86.7792 18.2458C85.6652 19.0058 84.6842 19.5978 83.8362 20.0218C83.9062 21.0828 83.8622 22.6828 83.7042 24.8208C83.5452 26.9608 83.2612 29.3378 82.8552 31.9538C82.4482 34.5708 81.9272 37.2568 81.2912 40.0148C80.6542 42.7718 79.9032 45.2918 79.0372 47.5718C78.1702 49.8518 77.1982 51.7348 76.1202 53.2198C75.0412 54.7048 73.8662 55.4648 72.5932 55.4998C70.4722 55.5698 68.7302 54.9788 67.3692 53.7238C66.0082 52.4678 64.9202 50.7618 64.1082 48.6058C63.2942 49.8428 62.2952 50.8768 61.1112 51.7078C59.9262 52.5378 58.5212 52.9188 56.8952 52.8488C55.1272 52.8128 53.6682 52.5038 52.5202 51.9198C51.3712 51.3368 50.4602 50.5758 49.7892 49.6398C49.1172 48.7018 48.6402 47.6328 48.3572 46.4318C48.0742 45.2298 47.9062 43.9658 47.8532 42.6398C47.8002 41.3138 47.8272 39.9968 47.9332 38.6888C48.0392 37.3808 48.1272 36.1438 48.1982 34.9768C47.4912 35.9318 46.8102 36.9568 46.1572 38.0528C45.5022 39.1488 45.0602 40.2448 44.8312 41.3408C44.6012 42.4368 44.6992 43.4708 45.1232 44.4438C45.5472 45.4168 46.5022 46.2738 47.9872 47.0158C48.1632 47.0868 48.2162 47.2098 48.1462 47.3878C48.0732 47.5658 47.9502 47.6188 47.7732 47.5478ZM51.6452 29.0398C52.4222 27.9448 53.1912 26.8308 53.9522 25.6988C54.7122 24.5678 55.3842 23.4978 55.9682 22.4898C56.5512 21.4818 57.0022 20.5628 57.3202 19.7318C57.6382 18.9008 57.7622 18.2388 57.6922 17.7428C57.6212 17.2478 57.3822 16.8678 56.9762 16.6028C56.5692 16.3378 56.1362 16.2938 55.6772 16.4698C55.0752 16.6818 54.5372 17.3538 54.0602 18.4848C53.5822 19.6168 53.1762 20.8718 52.8402 22.2508C52.5042 23.6298 52.2382 24.9738 52.0442 26.2808C51.8482 27.5898 51.7152 28.5088 51.6452 29.0398ZM83.2522 19.7058C83.0752 18.0448 82.7572 16.7018 82.2972 15.6758C81.8382 14.6508 81.1842 14.1028 80.3352 14.0318C79.9452 13.9968 79.5842 14.1828 79.2482 14.5888C78.9122 14.9958 78.6562 15.4908 78.4792 16.0738C78.3022 16.6568 78.2312 17.2768 78.2672 17.9308C78.3022 18.5858 78.4872 19.1328 78.8242 19.5748C79.1602 20.0168 79.6902 20.2828 80.4152 20.3698C81.1392 20.4578 82.0862 20.2358 83.2522 19.7058Z" fill="black"/>
<path d="M87.6001 40.3348C87.4231 41.4668 87.4501 42.5088 87.6791 43.4638C87.9081 44.4188 88.4661 45.0908 89.3501 45.4798C90.0921 45.7628 90.8611 45.7538 91.6571 45.4528C92.4521 45.1528 93.1951 44.7108 93.8851 44.1268C94.5741 43.5438 95.1931 42.8988 95.7411 42.1908C96.2891 41.4838 96.6871 40.8648 96.9341 40.3338C97.0751 40.1928 97.2171 40.1748 97.3581 40.2808C97.4641 40.3868 97.4641 40.5288 97.3581 40.7048C97.0751 41.3068 96.6591 41.9338 96.1121 42.5868C95.5631 43.2418 94.9271 43.8418 94.2031 44.3898C93.4781 44.9388 92.6911 45.3708 91.8431 45.6888C90.9951 46.0068 90.1281 46.1128 89.2441 46.0068C88.0781 45.9008 87.1311 45.5298 86.4071 44.8928C85.6821 44.2568 85.1781 43.4878 84.8951 42.5858C84.6121 41.6848 84.5241 40.7118 84.6301 39.6688C84.7361 38.6268 85.0541 37.6358 85.5851 36.6988C86.1151 35.7628 86.8401 34.9408 87.7591 34.2328C88.6781 33.5258 89.7921 33.0488 91.1001 32.8008C91.7361 32.6598 92.3201 32.6598 92.8501 32.8008C93.3801 32.9428 93.6801 33.3318 93.7511 33.9678C93.8571 34.7458 93.6981 35.4708 93.2741 36.1418C92.8501 36.8138 92.3101 37.4148 91.6561 37.9448C91.0021 38.4748 90.3041 38.9438 89.5611 39.3498C88.8211 39.7608 88.1661 40.0888 87.6001 40.3348ZM87.7071 39.6988C88.2021 39.4868 88.7851 39.1868 89.4571 38.7978C90.1281 38.4088 90.7561 37.9758 91.3401 37.4988C91.9231 37.0218 92.4011 36.4828 92.7721 35.8808C93.1431 35.2798 93.2931 34.6608 93.2231 34.0248C93.1521 33.6008 92.9311 33.3348 92.5601 33.2288C92.1891 33.1228 91.7911 33.1408 91.3671 33.2818C90.8011 33.4588 90.3151 33.8038 89.9081 34.3158C89.5011 34.8288 89.1471 35.3948 88.8471 36.0128C88.5461 36.6318 88.3081 37.2778 88.1311 37.9488C87.9531 38.6208 87.8131 39.2048 87.7071 39.6988Z" fill="black"/>
<path d="M109.291 13.5008C109.609 13.4308 109.875 13.4208 110.086 13.4748C110.298 13.5278 110.545 13.6608 110.829 13.8728C111.5 14.5088 111.951 15.4818 112.181 16.7898C112.411 18.0978 112.464 19.5918 112.34 21.2708C112.216 22.9508 111.969 24.7448 111.597 26.6538C111.226 28.5628 110.784 30.4278 110.271 32.2488C109.758 34.0698 109.21 35.7678 108.627 37.3398C108.043 38.9128 107.504 40.1948 107.009 41.1848C107.044 41.3968 107.08 41.7678 107.116 42.2988C107.151 42.8288 107.196 43.4308 107.248 44.1018C107.301 44.7738 107.372 45.4628 107.46 46.1698C107.548 46.8768 107.654 47.5218 107.778 48.1058C107.901 48.6888 108.051 49.1578 108.229 49.5108C108.405 49.8638 108.6 50.0228 108.812 49.9888C109.059 49.9888 109.333 49.7768 109.634 49.3518C109.934 48.9278 110.235 48.3888 110.535 47.7348C110.835 47.0798 111.118 46.3638 111.384 45.5868C111.649 44.8098 111.896 44.0748 112.127 43.3858C112.357 42.6968 112.542 42.1048 112.684 41.6098C112.825 41.1148 112.931 40.8148 113.002 40.7088C113.002 40.5318 113.125 40.4438 113.373 40.4438C113.549 40.4438 113.602 40.5498 113.532 40.7618C113.39 41.2918 113.16 42.0798 112.843 43.1218C112.525 44.1658 112.162 45.2168 111.756 46.2778C111.349 47.3388 110.899 48.2838 110.404 49.1148C109.908 49.9448 109.396 50.3958 108.866 50.4668C108.017 50.5728 107.266 50.1568 106.612 49.2208C105.957 48.2828 105.383 47.0018 104.888 45.3758C104.498 46.1528 103.987 46.8348 103.35 47.4178C102.714 48.0008 101.918 48.1868 100.964 47.9748C99.7612 47.7268 98.8162 47.2328 98.1272 46.4898C97.4382 45.7478 96.9782 44.9168 96.7482 43.9978C96.5192 43.0788 96.4922 42.1068 96.6682 41.0808C96.8452 40.0558 97.2252 39.1368 97.8082 38.3228C98.3912 37.5098 99.1512 36.8468 100.089 36.3338C101.025 35.8218 102.13 35.5828 103.403 35.6178H103.456C103.314 33.1428 103.323 30.6238 103.482 28.0608C103.641 25.4978 103.959 23.1648 104.437 21.0598C104.914 18.9568 105.551 17.2148 106.346 15.8358C107.143 14.4558 108.124 13.6778 109.291 13.5008ZM104.677 44.6308C104.393 43.4288 104.146 42.1208 103.934 40.7068C103.722 39.2928 103.58 37.7898 103.51 36.1988C102.768 36.1988 102.139 36.4558 101.627 36.9678C101.114 37.4808 100.69 38.1168 100.355 38.8778C100.018 39.6378 99.7892 40.4778 99.6662 41.3968C99.5412 42.3158 99.5072 43.1998 99.5602 44.0478C99.6132 44.8968 99.7632 45.6388 100.011 46.2758C100.258 46.9118 100.594 47.3188 101.018 47.4958C101.831 47.8848 102.538 47.7788 103.14 47.1778C103.739 46.5748 104.253 45.7278 104.677 44.6308ZM106.851 40.1758C107.346 39.1148 107.858 37.8428 108.389 36.3578C108.92 34.8728 109.414 33.2998 109.874 31.6378C110.333 29.9758 110.722 28.2888 111.04 26.5738C111.358 24.8588 111.579 23.2418 111.703 21.7208C111.826 20.2008 111.826 18.8218 111.703 17.5838C111.579 16.3468 111.269 15.3918 110.775 14.7198C110.598 14.4368 110.404 14.2248 110.192 14.0838C109.98 13.9428 109.696 13.8898 109.343 13.9248C108.495 13.9958 107.823 14.5608 107.328 15.6218C106.832 16.6828 106.479 18.0348 106.267 19.6788C106.055 21.3228 105.94 23.1348 105.922 25.1148C105.904 27.0948 105.948 29.0488 106.054 30.9748C106.161 32.9028 106.293 34.6868 106.452 36.3308C106.613 37.9758 106.745 39.2568 106.851 40.1758Z" fill="black"/>
<path d="M125.519 13.5008C125.837 13.4308 126.102 13.4208 126.314 13.4748C126.526 13.5278 126.773 13.6608 127.057 13.8728C127.728 14.5088 128.179 15.4818 128.409 16.7898C128.638 18.0978 128.692 19.5918 128.568 21.2708C128.443 22.9508 128.197 24.7448 127.825 26.6538C127.454 28.5628 127.011 30.4278 126.499 32.2488C125.986 34.0698 125.438 35.7678 124.855 37.3398C124.271 38.9128 123.733 40.1948 123.237 41.1848C123.272 41.3968 123.308 41.7678 123.343 42.2988C123.378 42.8288 123.423 43.4308 123.475 44.1018C123.528 44.7738 123.599 45.4628 123.687 46.1698C123.775 46.8768 123.881 47.5218 124.005 48.1058C124.129 48.6888 124.278 49.1578 124.456 49.5108C124.632 49.8638 124.827 50.0228 125.039 49.9888C125.286 49.9888 125.56 49.7768 125.861 49.3518C126.161 48.9278 126.462 48.3888 126.762 47.7348C127.062 47.0798 127.345 46.3638 127.611 45.5868C127.876 44.8098 128.123 44.0748 128.354 43.3858C128.583 42.6968 128.769 42.1048 128.911 41.6098C129.052 41.1148 129.158 40.8148 129.229 40.7088C129.229 40.5318 129.352 40.4438 129.6 40.4438C129.776 40.4438 129.829 40.5498 129.759 40.7618C129.617 41.2918 129.387 42.0798 129.07 43.1218C128.752 44.1658 128.389 45.2168 127.983 46.2778C127.576 47.3388 127.126 48.2838 126.631 49.1148C126.135 49.9448 125.623 50.3958 125.093 50.4668C124.244 50.5728 123.493 50.1568 122.839 49.2208C122.184 48.2828 121.61 47.0018 121.115 45.3758C120.725 46.1528 120.214 46.8348 119.577 47.4178C118.941 48.0008 118.145 48.1868 117.191 47.9748C115.988 47.7268 115.043 47.2328 114.354 46.4898C113.665 45.7478 113.205 44.9168 112.975 43.9978C112.746 43.0788 112.719 42.1068 112.895 41.0808C113.072 40.0558 113.452 39.1368 114.035 38.3228C114.618 37.5098 115.378 36.8468 116.316 36.3338C117.252 35.8218 118.358 35.5828 119.63 35.6178H119.683C119.541 33.1428 119.55 30.6238 119.709 28.0608C119.868 25.4978 120.186 23.1648 120.664 21.0598C121.141 18.9568 121.778 17.2148 122.573 15.8358C123.371 14.4558 124.352 13.6778 125.519 13.5008ZM120.905 44.6308C120.621 43.4288 120.374 42.1208 120.162 40.7068C119.95 39.2928 119.808 37.7898 119.738 36.1988C118.996 36.1988 118.367 36.4558 117.855 36.9678C117.342 37.4808 116.918 38.1168 116.583 38.8778C116.247 39.6378 116.017 40.4778 115.894 41.3968C115.77 42.3158 115.735 43.1998 115.788 44.0478C115.841 44.8968 115.991 45.6388 116.239 46.2758C116.485 46.9118 116.822 47.3188 117.246 47.4958C118.059 47.8848 118.766 47.7788 119.368 47.1778C119.968 46.5748 120.481 45.7278 120.905 44.6308ZM123.079 40.1758C123.574 39.1148 124.086 37.8428 124.617 36.3578C125.148 34.8728 125.642 33.2998 126.102 31.6378C126.561 29.9758 126.95 28.2888 127.269 26.5738C127.587 24.8588 127.808 23.2418 127.932 21.7208C128.055 20.2008 128.055 18.8218 127.932 17.5838C127.807 16.3468 127.498 15.3918 127.004 14.7198C126.827 14.4368 126.633 14.2248 126.421 14.0838C126.209 13.9428 125.925 13.8898 125.572 13.9248C124.724 13.9958 124.051 14.5608 123.557 15.6218C123.061 16.6828 122.708 18.0348 122.496 19.6788C122.284 21.3228 122.169 23.1348 122.151 25.1148C122.133 27.0948 122.177 29.0488 122.283 30.9748C122.389 32.9028 122.522 34.6868 122.681 36.3308C122.841 37.9758 122.973 39.2568 123.079 40.1758Z" fill="black"/>
<path d="M131.564 32.5928C131.069 32.8758 130.653 33.0088 130.318 32.9908C129.982 32.9728 129.716 32.8758 129.523 32.6988C129.328 32.5228 129.195 32.3018 129.125 32.0358C129.054 31.7708 129.037 31.5318 129.072 31.3198C129.036 30.9308 129.159 30.5958 129.443 30.3128C129.726 30.0298 130.061 29.8888 130.451 29.8888C130.91 29.9248 131.29 30.0838 131.591 30.3658C131.891 30.6498 132.112 30.9318 132.254 31.2148C132.431 31.5688 132.44 31.8428 132.281 32.0368C132.121 32.2308 131.883 32.4168 131.564 32.5928ZM132.254 35.8808C132.254 36.1988 132.262 36.8358 132.281 37.7898C132.298 38.7448 132.342 39.8408 132.413 41.0778C132.483 42.3158 132.599 43.5968 132.758 44.9228C132.917 46.2488 133.147 47.4418 133.447 48.5028C133.747 49.5638 134.118 50.4028 134.561 51.0228C135.002 51.6398 135.56 51.8258 136.231 51.5798C136.69 51.4368 137.15 50.8538 137.61 49.8288C138.069 48.8028 138.503 47.6718 138.909 46.4348C139.315 45.1978 139.678 44.0398 139.996 42.9608C140.314 41.8828 140.543 41.2018 140.685 40.9188C140.755 40.7428 140.879 40.6888 141.056 40.7598C141.232 40.7598 141.286 40.8658 141.215 41.0778C141.003 41.6078 140.737 42.4488 140.42 43.5968C140.102 44.7458 139.739 45.9128 139.333 47.0968C138.926 48.2808 138.476 49.3588 137.98 50.3328C137.485 51.3048 136.973 51.8968 136.442 52.1088C135.063 52.6388 133.923 52.6208 133.021 52.0548C132.12 51.4888 131.395 50.6138 130.847 49.4298C130.299 48.2448 129.901 46.8578 129.654 45.2668C129.406 43.6758 129.247 42.1298 129.177 40.6268C129.106 39.1248 129.106 37.7808 129.177 36.5958C129.247 35.4118 129.318 34.6068 129.389 34.1828C129.389 34.0768 129.539 33.9968 129.84 33.9448C130.14 33.8918 130.467 33.9098 130.821 33.9978C131.174 34.0868 131.501 34.2818 131.802 34.5808C132.103 34.8818 132.254 35.3158 132.254 35.8808Z" fill="black"/>
<path d="M143.337 34.5018C143.337 34.7138 143.311 35.2888 143.257 36.2258C143.204 37.1628 143.169 38.2148 143.151 39.3808C143.133 40.5478 143.125 41.7238 143.125 42.9078C143.125 44.0928 143.16 45.0208 143.231 45.6918C143.337 45.0908 143.461 44.3218 143.602 43.3848C143.743 42.4488 143.902 41.4678 144.08 40.4418C144.256 39.4168 144.469 38.3918 144.716 37.3658C144.963 36.3408 145.228 35.4298 145.511 34.6348C145.794 33.8388 146.121 33.2208 146.492 32.7778C146.864 32.3368 147.261 32.1678 147.685 32.2738C148.428 32.4518 148.975 33.0698 149.329 34.1298C149.682 35.1908 149.903 36.4628 149.992 37.9478C150.08 39.4328 150.106 41.0238 150.072 42.7208C150.036 44.4178 150.001 45.9908 149.966 47.4408C149.931 48.8898 149.957 50.0928 150.046 51.0468C150.134 52.0018 150.355 52.4968 150.709 52.5318C150.992 52.5318 151.31 52.2748 151.664 51.7628C152.017 51.2488 152.388 50.6048 152.778 49.8268C153.167 49.0488 153.555 48.1738 153.944 47.2018C154.333 46.2288 154.695 45.3018 155.031 44.4168C155.366 43.5338 155.667 42.7378 155.932 42.0308C156.197 41.3238 156.383 40.8288 156.489 40.5458C156.595 40.4048 156.736 40.3688 156.913 40.4398C157.019 40.5108 157.054 40.6168 157.019 40.7578C156.842 41.1118 156.621 41.6598 156.356 42.4018C156.091 43.1448 155.781 43.9758 155.428 44.8948C155.074 45.8148 154.694 46.7678 154.288 47.7588C153.881 48.7478 153.475 49.6498 153.068 50.4638C152.661 51.2768 152.255 51.9398 151.848 52.4528C151.441 52.9648 151.043 53.2028 150.655 53.1688C149.595 53.0978 148.807 52.5848 148.295 51.6308C147.782 50.6758 147.446 49.4828 147.288 48.0508C147.129 46.6188 147.084 45.0638 147.155 43.3838C147.225 41.7048 147.323 40.1228 147.447 38.6378C147.571 37.1528 147.659 35.8628 147.712 34.7658C147.765 33.6708 147.686 32.9978 147.474 32.7508C147.156 32.5038 146.855 32.6538 146.572 33.2018C146.289 33.7508 146.024 34.5188 145.777 35.5088C145.53 36.4988 145.291 37.6218 145.061 38.8768C144.831 40.1318 144.619 41.3348 144.425 42.4828C144.23 43.6318 144.035 44.6488 143.842 45.5318C143.647 46.4148 143.462 46.9808 143.285 47.2288C142.401 46.8748 141.756 46.1948 141.349 45.1868C140.942 44.1798 140.686 43.0658 140.58 41.8458C140.474 40.6258 140.448 39.4148 140.5 38.2128C140.553 37.0108 140.614 36.0038 140.686 35.1898C140.686 35.1548 140.801 35.0838 141.031 34.9778C141.261 34.8718 141.526 34.7568 141.827 34.6328C142.127 34.5088 142.401 34.4028 142.649 34.3148C142.896 34.2268 143.038 34.1818 143.073 34.1818C143.248 34.2548 143.337 34.3608 143.337 34.5018Z" fill="black"/>
<path d="M162.482 37.1008C162.729 35.3688 162.588 34.5018 162.058 34.5018C161.775 34.5018 161.501 34.7228 161.236 35.1648C160.971 35.6068 160.706 36.1818 160.441 36.8888C160.176 37.5958 159.945 38.3738 159.752 39.2218C159.557 40.0708 159.407 40.8748 159.301 41.6348C159.195 42.3958 159.142 43.0668 159.142 43.6508C159.142 44.2338 159.23 44.6138 159.407 44.7908C159.619 45.0028 159.911 44.9858 160.282 44.7378C160.653 44.4908 161.042 44.1278 161.449 43.6508C161.855 43.1728 162.236 42.6698 162.589 42.1388C162.942 41.6088 163.207 41.1838 163.385 40.8658C163.809 40.0178 164.109 39.1868 164.286 38.3738C164.462 37.5608 164.595 36.8008 164.684 36.0928C164.771 35.3858 164.834 34.7498 164.87 34.1838C164.905 33.6188 164.994 33.1418 165.135 32.7518C165.135 32.7168 165.259 32.7078 165.506 32.7258C165.753 32.7438 166.027 32.7788 166.328 32.8318C166.628 32.8848 166.902 32.9468 167.15 33.0178C167.397 33.0888 167.556 33.1418 167.627 33.1768C167.733 33.2828 167.813 33.7338 167.865 34.5288C167.918 35.3248 167.953 36.2978 167.971 37.4458C167.989 38.5948 167.979 39.8508 167.945 41.2108C167.909 42.5728 167.874 43.8718 167.839 45.1088C168.369 44.9678 168.934 44.7378 169.536 44.4198C170.137 44.1018 170.711 43.7398 171.259 43.3328C171.807 42.9268 172.301 42.5108 172.744 42.0868C173.185 41.6628 173.513 41.2568 173.725 40.8668C173.901 40.7608 174.025 40.7608 174.096 40.8668C174.166 40.9378 174.166 41.0788 174.096 41.2908C172.858 42.7058 171.674 43.7398 170.543 44.3938C169.411 45.0488 168.492 45.4808 167.785 45.6928C167.749 46.5418 167.697 47.5668 167.626 48.7688C167.555 49.9698 167.414 51.2348 167.202 52.5608C166.99 53.8868 166.671 55.2028 166.247 56.5118C165.823 57.8198 165.247 58.9778 164.523 59.9858C163.798 60.9938 162.879 61.7798 161.765 62.3458C160.651 62.9108 159.299 63.1408 157.708 63.0358C156.647 62.9648 155.87 62.5318 155.375 61.7358C154.88 60.9398 154.571 60.0118 154.447 58.9518C154.324 57.8908 154.35 56.8048 154.526 55.6908C154.704 54.5778 154.95 53.6488 155.269 52.9068C156.153 50.8558 157.478 49.2118 159.247 47.9748C161.015 46.7368 162.976 45.9068 165.134 45.4828C165.204 43.9628 165.248 42.5038 165.266 41.1068C165.284 39.7108 165.274 38.4288 165.24 37.2618C165.063 38.1458 164.806 39.0038 164.471 39.8338C164.135 40.6648 163.702 41.5218 163.172 42.4058C162.889 42.8298 162.58 43.2458 162.244 43.6528C161.908 44.0598 161.555 44.4128 161.183 44.7138C160.812 45.0148 160.449 45.2268 160.096 45.3498C159.742 45.4738 159.424 45.4648 159.141 45.3238C158.363 44.9708 157.762 44.4218 157.338 43.6798C156.914 42.9368 156.649 42.1238 156.543 41.2408C156.436 40.3578 156.48 39.4638 156.675 38.5628C156.869 37.6608 157.205 36.8488 157.683 36.1238C158.16 35.3988 158.77 34.8248 159.513 34.3998C160.255 33.9758 161.121 33.8168 162.112 33.9218C162.501 33.9928 162.792 34.2668 162.987 34.7438C163.181 35.2208 163.19 36.0428 163.013 37.2098C162.977 37.3518 162.871 37.4218 162.695 37.4218C162.482 37.3478 162.41 37.2418 162.482 37.1008ZM165.08 46.0098C163.065 46.4688 161.217 47.2828 159.538 48.4488C157.858 49.6158 156.595 51.1708 155.746 53.1158C155.499 53.7178 155.287 54.5208 155.11 55.5288C154.934 56.5358 154.881 57.5438 154.951 58.5518C155.022 59.5598 155.269 60.4428 155.694 61.2028C156.118 61.9628 156.808 62.3778 157.762 62.4488C158.787 62.5548 159.679 62.3158 160.44 61.7328C161.2 61.1498 161.845 60.3538 162.376 59.3458C162.906 58.3378 163.339 57.2058 163.675 55.9518C164.01 54.6968 164.276 53.4418 164.47 52.1868C164.664 50.9308 164.805 49.7558 164.894 48.6598C164.983 47.5658 165.045 46.6808 165.08 46.0098Z" fill="black"/>
<path d="M99.3385 61.8719C99.3008 61.5538 99.148 61.3068 98.8801 61.131C98.6122 60.9552 98.2836 60.8673 97.8943 60.8673C97.6097 60.8673 97.3606 60.9133 97.1471 61.0054C96.9357 61.0975 96.7704 61.2241 96.6511 61.3853C96.5339 61.5464 96.4753 61.7296 96.4753 61.9347C96.4753 62.1063 96.5161 62.2539 96.5977 62.3773C96.6814 62.4987 96.7882 62.6002 96.918 62.6819C97.0477 62.7614 97.1838 62.8273 97.3261 62.8797C97.4684 62.9299 97.5992 62.9707 97.7185 63.0021L98.3715 63.1779C98.539 63.2219 98.7252 63.2826 98.9303 63.36C99.1375 63.4374 99.3353 63.5431 99.5237 63.6771C99.7142 63.8089 99.8711 63.9785 99.9946 64.1857C100.118 64.3929 100.18 64.6472 100.18 64.9486C100.18 65.296 100.089 65.6099 99.9067 65.8904C99.7267 66.1708 99.463 66.3938 99.1156 66.5591C98.7702 66.7244 98.3506 66.8071 97.8567 66.8071C97.3962 66.8071 96.9975 66.7328 96.6605 66.5842C96.3256 66.4356 96.0619 66.2284 95.8694 65.9626C95.6789 65.6968 95.5711 65.3881 95.546 65.0365H96.3497C96.3706 65.2792 96.4523 65.4802 96.5946 65.6392C96.739 65.7962 96.9211 65.9134 97.1409 65.9909C97.3627 66.0662 97.6013 66.1039 97.8567 66.1039C98.1539 66.1039 98.4207 66.0557 98.6572 65.9595C98.8937 65.8611 99.081 65.725 99.2192 65.5513C99.3573 65.3755 99.4264 65.1704 99.4264 64.936C99.4264 64.7225 99.3667 64.5488 99.2474 64.4148C99.1281 64.2809 98.9712 64.1721 98.7765 64.0883C98.5819 64.0046 98.3715 63.9314 98.1455 63.8686L97.3543 63.6425C96.852 63.4981 96.4544 63.292 96.1613 63.0241C95.8683 62.7562 95.7218 62.4056 95.7218 61.9724C95.7218 61.6124 95.8191 61.2984 96.0138 61.0305C96.2105 60.7605 96.4742 60.5512 96.8049 60.4026C97.1377 60.2519 97.5092 60.1766 97.9194 60.1766C98.3338 60.1766 98.7022 60.2509 99.0245 60.3995C99.3468 60.546 99.6022 60.7469 99.7906 61.0023C99.981 61.2576 100.081 61.5475 100.092 61.8719H99.3385ZM101.108 60.9552V60.2645H105.931V60.9552H103.909V66.6941H103.13V60.9552H101.108ZM111.352 60.2645H112.13V64.5216C112.13 64.9611 112.027 65.3535 111.819 65.6989C111.614 66.0421 111.324 66.3132 110.95 66.512C110.575 66.7087 110.136 66.8071 109.631 66.8071C109.127 66.8071 108.687 66.7087 108.313 66.512C107.938 66.3132 107.647 66.0421 107.44 65.6989C107.235 65.3535 107.132 64.9611 107.132 64.5216V60.2645H107.911V64.4588C107.911 64.7727 107.98 65.0522 108.118 65.297C108.256 65.5398 108.453 65.7313 108.708 65.8716C108.966 66.0097 109.273 66.0788 109.631 66.0788C109.989 66.0788 110.297 66.0097 110.554 65.8716C110.812 65.7313 111.008 65.5398 111.144 65.297C111.283 65.0522 111.352 64.7727 111.352 64.4588V60.2645ZM115.669 66.6941H113.685V60.2645H115.757C116.381 60.2645 116.914 60.3932 117.358 60.6506C117.802 60.906 118.142 61.2733 118.378 61.7526C118.615 62.2298 118.733 62.8012 118.733 63.4667C118.733 64.1365 118.614 64.7131 118.375 65.1966C118.137 65.678 117.789 66.0484 117.333 66.3079C116.877 66.5654 116.322 66.6941 115.669 66.6941ZM114.464 66.0034H115.619C116.151 66.0034 116.591 65.9009 116.941 65.6957C117.29 65.4906 117.551 65.1987 117.722 64.8198C117.894 64.441 117.98 63.99 117.98 63.4667C117.98 62.9477 117.895 62.5008 117.725 62.1262C117.556 61.7495 117.303 61.4606 116.966 61.2597C116.629 61.0567 116.209 60.9552 115.707 60.9552H114.464V66.0034ZM120.818 60.2645V66.6941H120.039V60.2645H120.818ZM127.804 63.4793C127.804 64.1574 127.681 64.7434 127.437 65.2374C127.192 65.7313 126.856 66.1122 126.429 66.3801C126.002 66.648 125.514 66.782 124.966 66.782C124.417 66.782 123.93 66.648 123.503 66.3801C123.076 66.1122 122.74 65.7313 122.495 65.2374C122.25 64.7434 122.128 64.1574 122.128 63.4793C122.128 62.8012 122.25 62.2151 122.495 61.7212C122.74 61.2273 123.076 60.8463 123.503 60.5784C123.93 60.3105 124.417 60.1766 124.966 60.1766C125.514 60.1766 126.002 60.3105 126.429 60.5784C126.856 60.8463 127.192 61.2273 127.437 61.7212C127.681 62.2151 127.804 62.8012 127.804 63.4793ZM127.05 63.4793C127.05 62.9226 126.957 62.4527 126.771 62.0697C126.587 61.6867 126.337 61.3968 126.021 61.2C125.707 61.0033 125.355 60.9049 124.966 60.9049C124.577 60.9049 124.224 61.0033 123.908 61.2C123.594 61.3968 123.344 61.6867 123.158 62.0697C122.973 62.4527 122.881 62.9226 122.881 63.4793C122.881 64.036 122.973 64.5059 123.158 64.8889C123.344 65.2719 123.594 65.5618 123.908 65.7585C124.224 65.9553 124.577 66.0536 124.966 66.0536C125.355 66.0536 125.707 65.9553 126.021 65.7585C126.337 65.5618 126.587 65.2719 126.771 64.8889C126.957 64.5059 127.05 64.036 127.05 63.4793Z" fill="black"/>
<path d="M144.82 27.9598C156.53 19.3288 169.278 24.2758 181.426 26.4048C194.783 28.7468 204.937 25.0548 216.937 14.9928" stroke="black" stroke-width="0.5083" stroke-miterlimit="10"/>
<path d="M149.513 24.9118C151.326 24.9118 152.796 23.442 152.796 21.6288C152.796 19.8157 151.326 18.3458 149.513 18.3458C147.7 18.3458 146.23 19.8157 146.23 21.6288C146.23 23.442 147.7 24.9118 149.513 24.9118Z" fill="#ADB5BD"/>
<path d="M198.025 25.7178C199.838 25.7178 201.308 24.2479 201.308 22.4348C201.308 20.6216 199.838 19.1518 198.025 19.1518C196.212 19.1518 194.742 20.6216 194.742 22.4348C194.742 24.2479 196.212 25.7178 198.025 25.7178Z" fill="#ADB5BD"/>
<path d="M171.601 26.9768C171.601 28.7898 170.131 30.2598 168.318 30.2598C166.505 30.2598 165.035 28.7898 165.035 26.9768C165.035 25.1638 166.505 23.6938 168.318 23.6938C170.131 23.6938 171.601 25.1638 171.601 26.9768Z" fill="#ADB5BD"/>
<path d="M194.742 30.2608C194.742 32.0738 193.272 33.5438 191.459 33.5438C189.646 33.5438 188.176 32.0738 188.176 30.2608C188.176 28.4478 189.646 26.9778 191.459 26.9778C193.272 26.9768 194.742 28.4468 194.742 30.2608Z" fill="#ADB5BD"/>
<path d="M157.8 23.7228C158.902 24.2888 159.336 25.6398 158.771 26.7418C158.206 27.8438 156.854 28.2778 155.752 27.7128C154.65 27.1468 154.216 25.7958 154.781 24.6938C155.347 23.5918 156.698 23.1578 157.8 23.7228Z" fill="#ADB5BD"/>
<path d="M164.19 18.5938C165.292 19.1598 165.726 20.5108 165.161 21.6128C164.596 22.7148 163.244 23.1488 162.142 22.5838C161.04 22.0178 160.606 20.6668 161.172 19.5648C161.736 18.4628 163.088 18.0278 164.19 18.5938Z" fill="#ADB5BD"/>
<path d="M207.492 22.9178C208.594 23.4828 209.028 24.8348 208.463 25.9358C207.898 27.0368 206.546 27.4718 205.445 26.9068C204.343 26.3418 203.909 24.9898 204.474 23.8888C205.039 22.7868 206.39 22.3518 207.492 22.9178Z" fill="#ADB5BD"/>
<path d="M211.601 14.9148C212.703 15.4798 213.137 16.8318 212.572 17.9328C212.006 19.0348 210.655 19.4688 209.553 18.9038C208.451 18.3388 208.017 16.9868 208.582 15.8858C209.148 14.7838 210.499 14.3488 211.601 14.9148Z" fill="#ADB5BD"/>
<path d="M185.622 22.9178C186.724 23.4828 187.158 24.8348 186.593 25.9358C186.027 27.0378 184.676 27.4718 183.574 26.9068C182.472 26.3418 182.038 24.9898 182.603 23.8888C183.169 22.7868 184.521 22.3518 185.622 22.9178Z" fill="#ADB5BD"/>
<path d="M177.627 25.4918C178.729 26.0578 179.163 27.4088 178.598 28.5108C178.032 29.6128 176.681 30.0468 175.579 29.4818C174.477 28.9168 174.043 27.5648 174.608 26.4628C175.174 25.3608 176.525 24.9268 177.627 25.4918Z" fill="#ADB5BD"/>
<path d="M232.369 15.7848C233.339 10.2368 223.243 10.0378 218.249 12.5028C216.26 13.4838 216.36 16.3488 218.435 17.1298C222.978 18.8388 231.418 21.2228 232.369 15.7848Z" stroke="black" stroke-width="0.5083" stroke-miterlimit="10"/>
<path d="M219.174 0.995803C224.805 0.908803 223.416 10.9108 220.197 15.4558C218.916 17.2648 216.102 16.7178 215.657 14.5448C214.683 9.7908 213.655 1.0808 219.174 0.995803Z" stroke="black" stroke-width="0.5083" stroke-miterlimit="10"/>
<path d="M216.206 13.8008C215.752 15.9718 218.069 17.6598 219.963 16.5068C224.109 13.9848 231.19 8.80981 227.496 4.70781C223.728 0.522808 217.345 8.3488 216.206 13.8008Z" fill="#343A40" stroke="black" stroke-width="0.5644" stroke-miterlimit="10"/>
<path d="M88.4713 69.4198C76.7613 60.7888 64.0132 65.7358 51.8652 67.8648C38.5092 70.2068 28.3552 66.5148 16.3542 56.4528" stroke="black" stroke-width="0.5083" stroke-miterlimit="10"/>
<path d="M80.4941 63.0888C80.4941 64.9018 81.9641 66.3718 83.7771 66.3718C85.5901 66.3718 87.0601 64.9018 87.0601 63.0888C87.0601 61.2758 85.5901 59.8058 83.7771 59.8058C81.9641 59.8058 80.4941 61.2758 80.4941 63.0888Z" fill="#ADB5BD"/>
<path d="M31.9812 63.8938C31.9812 65.7068 33.4512 67.1768 35.2642 67.1768C37.0772 67.1768 38.5472 65.7068 38.5472 63.8938C38.5472 62.0808 37.0772 60.6108 35.2642 60.6108C33.4512 60.6108 31.9812 62.0808 31.9812 63.8938Z" fill="#ADB5BD"/>
<path d="M64.9732 71.7198C66.7863 71.7198 68.2562 70.25 68.2562 68.4368C68.2562 66.6237 66.7863 65.1538 64.9732 65.1538C63.16 65.1538 61.6902 66.6237 61.6902 68.4368C61.6902 70.25 63.16 71.7198 64.9732 71.7198Z" fill="#ADB5BD"/>
<path d="M38.5481 71.7198C38.5481 73.5328 40.0181 75.0028 41.8311 75.0028C43.6441 75.0028 45.1141 73.5328 45.1141 71.7198C45.1141 69.9068 43.6441 68.4368 41.8311 68.4368C40.0181 68.4368 38.5481 69.9068 38.5481 71.7198Z" fill="#ADB5BD"/>
<path d="M75.4902 65.1828C74.3882 65.7478 73.9542 67.0998 74.5192 68.2018C75.0842 69.3038 76.4362 69.7378 77.5382 69.1718C78.6402 68.6068 79.0742 67.2548 78.5092 66.1538C77.9432 65.0518 76.5922 64.6178 75.4902 65.1828Z" fill="#ADB5BD"/>
<path d="M69.101 60.0538C67.999 60.6198 67.565 61.9708 68.13 63.0728C68.695 64.1748 70.047 64.6088 71.149 64.0438C72.251 63.4778 72.685 62.1268 72.12 61.0248C71.554 59.9228 70.202 59.4878 69.101 60.0538Z" fill="#ADB5BD"/>
<path d="M25.7981 64.3778C24.6961 64.9438 24.2621 66.2948 24.8271 67.3968C25.3931 68.4988 26.7441 68.9328 27.8461 68.3678C28.9471 67.8028 29.3821 66.4508 28.8171 65.3498C28.2511 64.2468 26.9001 63.8118 25.7981 64.3778Z" fill="#ADB5BD"/>
<path d="M21.6892 56.3738C20.5872 56.9398 20.1532 58.2908 20.7182 59.3928C21.2842 60.4948 22.6352 60.9288 23.7362 60.3638C24.8382 59.7978 25.2722 58.4468 24.7072 57.3458C24.1422 56.2428 22.7912 55.8088 21.6892 56.3738Z" fill="#ADB5BD"/>
<path d="M47.6682 64.3778C46.5662 64.9438 46.1322 66.2948 46.6972 67.3968C47.2632 68.4988 48.6142 68.9328 49.7162 68.3678C50.8182 67.8028 51.2522 66.4508 50.6872 65.3498C50.1212 64.2468 48.7692 63.8118 47.6682 64.3778Z" fill="#ADB5BD"/>
<path d="M55.6631 66.9518C54.5611 67.5178 54.1271 68.8688 54.6921 69.9708C55.2571 71.0728 56.6091 71.5068 57.7111 70.9418C58.8131 70.3758 59.2471 69.0248 58.6821 67.9228C58.1161 66.8208 56.7651 66.3868 55.6631 66.9518Z" fill="#ADB5BD"/>
<path d="M0.921158 57.2448C-0.0488423 51.6978 10.0472 51.4978 15.0412 53.9638C17.0292 54.9448 16.9302 57.8098 14.8552 58.5908C10.3122 60.2988 1.87216 62.6818 0.921158 57.2448Z" stroke="black" stroke-width="0.5083" stroke-miterlimit="10"/>
<path d="M14.1161 42.4558C8.48509 42.3688 9.87409 52.3708 13.0931 56.9158C14.3751 58.7258 17.1881 58.1778 17.6331 56.0048C18.6071 51.2508 19.6351 42.5408 14.1161 42.4558Z" stroke="black" stroke-width="0.5083" stroke-miterlimit="10"/>
<path d="M17.0842 55.2608C17.5372 57.4318 15.2212 59.1198 13.3272 57.9668C9.18125 55.4448 2.10025 50.2698 5.79425 46.1678C9.56225 41.9828 15.9452 49.8088 17.0842 55.2608Z" fill="#343A40" stroke="black" stroke-width="0.5644" stroke-miterlimit="10"/>
</svg>
