<svg width="147" height="97" viewBox="0 0 147 97" fill="none" xmlns="http://www.w3.org/2000/svg">
<path d="M21.4106 77.9994V66.363H28.3878V67.613H22.8196V71.5448H27.8651V72.7948H22.8196V77.9994H21.4106ZM31.9603 66.363V77.9994H30.6194V66.363H31.9603ZM37.9617 78.1812C37.1738 78.1812 36.4825 77.9937 35.8878 77.6187C35.2969 77.2437 34.8348 76.7191 34.5015 76.0448C34.1719 75.3706 34.0071 74.5827 34.0071 73.6812C34.0071 72.7721 34.1719 71.9785 34.5015 71.3005C34.8348 70.6225 35.2969 70.0959 35.8878 69.721C36.4825 69.346 37.1738 69.1585 37.9617 69.1585C38.7496 69.1585 39.439 69.346 40.0299 69.721C40.6246 70.0959 41.0867 70.6225 41.4162 71.3005C41.7496 71.9785 41.9162 72.7721 41.9162 73.6812C41.9162 74.5827 41.7496 75.3706 41.4162 76.0448C41.0867 76.7191 40.6246 77.2437 40.0299 77.6187C39.439 77.9937 38.7496 78.1812 37.9617 78.1812ZM37.9617 76.9766C38.5602 76.9766 39.0526 76.8232 39.439 76.5164C39.8253 76.2096 40.1113 75.8062 40.2969 75.3062C40.4825 74.8062 40.5753 74.2645 40.5753 73.6812C40.5753 73.0978 40.4825 72.5543 40.2969 72.0505C40.1113 71.5467 39.8253 71.1395 39.439 70.8289C39.0526 70.5183 38.5602 70.363 37.9617 70.363C37.3632 70.363 36.8708 70.5183 36.4844 70.8289C36.0981 71.1395 35.8121 71.5467 35.6265 72.0505C35.4409 72.5543 35.3481 73.0978 35.3481 73.6812C35.3481 74.2645 35.4409 74.8062 35.6265 75.3062C35.8121 75.8062 36.0981 76.2096 36.4844 76.5164C36.8708 76.8232 37.3632 76.9766 37.9617 76.9766ZM43.9631 77.9994V69.2721H45.2586V70.5903H45.3495C45.5086 70.1585 45.7964 69.8081 46.2131 69.5391C46.6298 69.2702 47.0995 69.1357 47.6222 69.1357C47.7207 69.1357 47.8438 69.1376 47.9915 69.1414C48.1392 69.1452 48.251 69.1509 48.3267 69.1585V70.5221C48.2813 70.5107 48.1771 70.4937 48.0142 70.4709C47.8552 70.4444 47.6866 70.4312 47.5086 70.4312C47.0843 70.4312 46.7055 70.5202 46.3722 70.6982C46.0427 70.8725 45.7813 71.1149 45.5881 71.4255C45.3987 71.7323 45.304 72.0827 45.304 72.4766V77.9994H43.9631ZM52.4844 78.2039C51.9314 78.2039 51.4295 78.0997 50.9787 77.8914C50.528 77.6793 50.17 77.3744 49.9049 76.9766C49.6397 76.5751 49.5071 76.0903 49.5071 75.5221C49.5071 75.0221 49.6056 74.6168 49.8026 74.3062C49.9996 73.9918 50.2628 73.7456 50.5924 73.5675C50.9219 73.3895 51.2856 73.2569 51.6833 73.1698C52.0848 73.0789 52.4882 73.0069 52.8935 72.9539C53.4238 72.8857 53.8537 72.8346 54.1833 72.8005C54.5166 72.7626 54.759 72.7001 54.9106 72.613C55.0659 72.5259 55.1435 72.3744 55.1435 72.1584V72.113C55.1435 71.5524 54.9901 71.1168 54.6833 70.8062C54.3803 70.4956 53.92 70.3403 53.3026 70.3403C52.6624 70.3403 52.1606 70.4804 51.7969 70.7607C51.4333 71.041 51.1776 71.3403 51.0299 71.6584L49.7571 71.2039C49.9844 70.6736 50.2874 70.2607 50.6662 69.9653C51.0488 69.666 51.4655 69.4577 51.9162 69.3403C52.3708 69.2191 52.8178 69.1585 53.2571 69.1585C53.5374 69.1585 53.8594 69.1925 54.2231 69.2607C54.5905 69.3251 54.9446 69.4596 55.2856 69.6641C55.6303 69.8687 55.9162 70.1774 56.1435 70.5903C56.3708 71.0031 56.4844 71.5562 56.4844 72.2494V77.9994H55.1435V76.8175H55.0753C54.9844 77.0069 54.8329 77.2096 54.6208 77.4255C54.4087 77.6414 54.1265 77.8251 53.7742 77.9766C53.4219 78.1281 52.992 78.2039 52.4844 78.2039ZM52.689 76.9994C53.2193 76.9994 53.6662 76.8952 54.0299 76.6869C54.3973 76.4785 54.6738 76.2096 54.8594 75.88C55.0488 75.5505 55.1435 75.2039 55.1435 74.8403V73.613C55.0867 73.6812 54.9617 73.7437 54.7685 73.8005C54.5791 73.8535 54.3594 73.9009 54.1094 73.9425C53.8632 73.9804 53.6227 74.0145 53.3878 74.0448C53.1568 74.0713 52.9693 74.0941 52.8253 74.113C52.4768 74.1584 52.1511 74.2323 51.8481 74.3346C51.5488 74.4331 51.3064 74.5827 51.1208 74.7834C50.939 74.9804 50.8481 75.2494 50.8481 75.5903C50.8481 76.0562 51.0204 76.4084 51.3651 76.6471C51.7136 76.8819 52.1549 76.9994 52.689 76.9994ZM60.2728 66.363V77.9994H58.9319V66.363H60.2728Z" fill="#ADB5BD"/>
<path d="M94.7742 69.2721C94.706 68.6963 94.4295 68.2494 93.9446 67.9312C93.4598 67.613 92.8651 67.4539 92.1606 67.4539C91.6454 67.4539 91.1946 67.5372 90.8083 67.7039C90.4257 67.8706 90.1265 68.0997 89.9106 68.3914C89.6984 68.6831 89.5924 69.0145 89.5924 69.3857C89.5924 69.6963 89.6662 69.9634 89.814 70.1869C89.9655 70.4066 90.1587 70.5903 90.3935 70.738C90.6284 70.8819 90.8746 71.0013 91.1321 71.0959C91.3897 71.1869 91.6265 71.2607 91.8424 71.3175L93.0242 71.6357C93.3272 71.7153 93.6643 71.8251 94.0356 71.9653C94.4106 72.1054 94.7685 72.2967 95.1094 72.5391C95.4541 72.7778 95.7382 73.0846 95.9617 73.4596C96.1852 73.8346 96.2969 74.2948 96.2969 74.8403C96.2969 75.4691 96.1321 76.0372 95.8026 76.5448C95.4768 77.0524 94.9996 77.4558 94.3708 77.755C93.7458 78.0543 92.9863 78.2039 92.0924 78.2039C91.259 78.2039 90.5374 78.0694 89.9276 77.8005C89.3215 77.5316 88.8443 77.1566 88.4958 76.6755C88.1511 76.1944 87.956 75.6357 87.9106 74.9994H89.3651C89.403 75.4388 89.5507 75.8024 89.8083 76.0903C90.0696 76.3744 90.3992 76.5865 90.7969 76.7266C91.1984 76.863 91.6303 76.9312 92.0924 76.9312C92.6303 76.9312 93.1132 76.8441 93.5412 76.6698C93.9693 76.4918 94.3083 76.2456 94.5583 75.9312C94.8083 75.613 94.9333 75.2418 94.9333 74.8175C94.9333 74.4312 94.8253 74.1168 94.6094 73.8744C94.3935 73.6319 94.1094 73.435 93.7571 73.2835C93.4049 73.1319 93.0242 72.9994 92.6151 72.8857L91.1833 72.4766C90.2742 72.2153 89.5545 71.8422 89.0242 71.3573C88.4939 70.8725 88.2287 70.238 88.2287 69.4539C88.2287 68.8024 88.4049 68.2342 88.7571 67.7494C89.1132 67.2607 89.5905 66.8819 90.189 66.613C90.7912 66.3403 91.4636 66.2039 92.206 66.2039C92.956 66.2039 93.6227 66.3384 94.206 66.6073C94.7893 66.8725 95.2515 67.2361 95.5924 67.6982C95.9371 68.1603 96.1189 68.685 96.1378 69.2721H94.7742ZM102.227 69.2721V70.4084H97.7046V69.2721H102.227ZM99.0228 67.1812H100.364V75.4994C100.364 75.8781 100.419 76.1622 100.528 76.3516C100.642 76.5372 100.786 76.6622 100.96 76.7266C101.138 76.7872 101.326 76.8175 101.523 76.8175C101.67 76.8175 101.792 76.81 101.886 76.7948C101.981 76.7759 102.057 76.7607 102.114 76.7494L102.386 77.9539C102.295 77.988 102.169 78.0221 102.006 78.0562C101.843 78.0941 101.636 78.113 101.386 78.113C101.008 78.113 100.636 78.0316 100.273 77.8687C99.9129 77.7058 99.6137 77.4577 99.375 77.1244C99.1402 76.791 99.0228 76.3706 99.0228 75.863V67.1812ZM109.744 74.4312V69.2721H111.085V77.9994H109.744V76.5221H109.653C109.449 76.9653 109.131 77.3422 108.699 77.6528C108.267 77.9596 107.722 78.113 107.063 78.113C106.517 78.113 106.032 77.9937 105.608 77.755C105.184 77.5126 104.85 77.149 104.608 76.6641C104.366 76.1755 104.244 75.56 104.244 74.8175V69.2721H105.585V74.7266C105.585 75.363 105.763 75.8706 106.119 76.2494C106.479 76.6281 106.938 76.8175 107.494 76.8175C107.828 76.8175 108.167 76.7323 108.511 76.5619C108.86 76.3914 109.152 76.13 109.386 75.7778C109.625 75.4255 109.744 74.9766 109.744 74.4312ZM116.837 78.1812C116.109 78.1812 115.467 77.9975 114.911 77.63C114.354 77.2588 113.918 76.7361 113.604 76.0619C113.289 75.3838 113.132 74.5827 113.132 73.6585C113.132 72.7418 113.289 71.9463 113.604 71.2721C113.918 70.5978 114.356 70.077 114.916 69.7096C115.477 69.3422 116.125 69.1585 116.859 69.1585C117.428 69.1585 117.876 69.2531 118.206 69.4425C118.539 69.6281 118.793 69.8403 118.967 70.0789C119.145 70.3138 119.284 70.5069 119.382 70.6584H119.496V66.363H120.837V77.9994H119.541V76.6585H119.382C119.284 76.8175 119.144 77.0183 118.962 77.2607C118.78 77.4994 118.52 77.7134 118.183 77.9028C117.846 78.0884 117.397 78.1812 116.837 78.1812ZM117.019 76.9766C117.556 76.9766 118.011 76.8365 118.382 76.5562C118.753 76.2721 119.036 75.88 119.229 75.38C119.422 74.8763 119.519 74.2948 119.519 73.6357C119.519 72.9842 119.424 72.4141 119.234 71.9255C119.045 71.4331 118.765 71.0505 118.394 70.7778C118.022 70.5013 117.564 70.363 117.019 70.363C116.45 70.363 115.977 70.5088 115.598 70.8005C115.223 71.0884 114.941 71.4804 114.751 71.9766C114.566 72.4691 114.473 73.0221 114.473 73.6357C114.473 74.2569 114.568 74.8213 114.757 75.3289C114.95 75.8327 115.234 76.2342 115.609 76.5335C115.988 76.8289 116.458 76.9766 117.019 76.9766ZM123.479 77.9994V69.2721H124.82V77.9994H123.479ZM124.161 67.8175C123.899 67.8175 123.674 67.7285 123.484 67.5505C123.299 67.3725 123.206 67.1585 123.206 66.9085C123.206 66.6585 123.299 66.4444 123.484 66.2664C123.674 66.0884 123.899 65.9994 124.161 65.9994C124.422 65.9994 124.645 66.0884 124.831 66.2664C125.02 66.4444 125.115 66.6585 125.115 66.9085C125.115 67.1585 125.02 67.3725 124.831 67.5505C124.645 67.7285 124.422 67.8175 124.161 67.8175ZM130.821 78.1812C130.033 78.1812 129.342 77.9937 128.747 77.6187C128.156 77.2437 127.694 76.7191 127.361 76.0448C127.031 75.3706 126.867 74.5827 126.867 73.6812C126.867 72.7721 127.031 71.9785 127.361 71.3005C127.694 70.6225 128.156 70.0959 128.747 69.721C129.342 69.346 130.033 69.1585 130.821 69.1585C131.609 69.1585 132.298 69.346 132.889 69.721C133.484 70.0959 133.946 70.6225 134.276 71.3005C134.609 71.9785 134.776 72.7721 134.776 73.6812C134.776 74.5827 134.609 75.3706 134.276 76.0448C133.946 76.7191 133.484 77.2437 132.889 77.6187C132.298 77.9937 131.609 78.1812 130.821 78.1812ZM130.821 76.9766C131.42 76.9766 131.912 76.8232 132.298 76.5164C132.685 76.2096 132.971 75.8062 133.156 75.3062C133.342 74.8062 133.435 74.2645 133.435 73.6812C133.435 73.0978 133.342 72.5543 133.156 72.0505C132.971 71.5467 132.685 71.1395 132.298 70.8289C131.912 70.5183 131.42 70.363 130.821 70.363C130.223 70.363 129.73 70.5183 129.344 70.8289C128.957 71.1395 128.671 71.5467 128.486 72.0505C128.3 72.5543 128.207 73.0978 128.207 73.6812C128.207 74.2645 128.3 74.8062 128.486 75.3062C128.671 75.8062 128.957 76.2096 129.344 76.5164C129.73 76.8232 130.223 76.9766 130.821 76.9766Z" fill="#ADB5BD"/>
<path d="M44.1715 92.9422C44.1715 92.9422 35.7345 88.3033 26.5635 93.3253" stroke="black" stroke-width="0.1018" stroke-miterlimit="10"/>
<path d="M29.0446 92.1632C29.0446 92.1632 25.4906 91.9362 25.6736 90.9832C25.8566 90.0302 28.9806 91.2492 29.0446 92.1632Z" stroke="black" stroke-width="0.1018" stroke-miterlimit="10" stroke-linecap="round" stroke-linejoin="round"/>
<path d="M25.6885 90.9262C25.6885 90.9262 26.7605 91.6132 29.0445 92.1632" stroke="black" stroke-width="0.1018" stroke-miterlimit="10" stroke-linecap="round" stroke-linejoin="round"/>
<path d="M25.8125 90.7602C25.8125 90.7602 26.6685 90.6502 29.0335 92.0962" stroke="black" stroke-width="0.1018" stroke-miterlimit="10" stroke-linecap="round" stroke-linejoin="round"/>
<path d="M33.9155 91.0623C33.9155 91.0623 30.4565 90.2122 30.8055 89.3062C31.1535 88.4002 34.0125 90.1513 33.9155 91.0623Z" stroke="black" stroke-width="0.1018" stroke-miterlimit="10" stroke-linecap="round" stroke-linejoin="round"/>
<path d="M30.8306 89.2522C30.8306 89.2522 31.7646 90.1173 33.9156 91.0623" stroke="black" stroke-width="0.1018" stroke-miterlimit="10" stroke-linecap="round" stroke-linejoin="round"/>
<path d="M30.9814 89.1112C30.9814 89.1112 31.8434 89.1542 33.9164 90.9942" stroke="black" stroke-width="0.1018" stroke-miterlimit="10" stroke-linecap="round" stroke-linejoin="round"/>
<path d="M39.6975 91.4362C39.6975 91.4362 36.2265 90.6362 36.5625 89.7252C36.8975 88.8152 39.7825 90.5242 39.6975 91.4362Z" stroke="black" stroke-width="0.1018" stroke-miterlimit="10" stroke-linecap="round" stroke-linejoin="round"/>
<path d="M36.5864 89.6722C36.5864 89.6722 37.5324 90.5243 39.6974 91.4373" stroke="black" stroke-width="0.1018" stroke-miterlimit="10" stroke-linecap="round" stroke-linejoin="round"/>
<path d="M36.7354 89.5282C36.7354 89.5282 37.5974 89.5592 39.6964 91.3692" stroke="black" stroke-width="0.1018" stroke-miterlimit="10" stroke-linecap="round" stroke-linejoin="round"/>
<path d="M31.7865 91.5292C31.7655 91.4412 31.6535 91.4132 31.5875 91.4752C31.0675 91.9592 29.1535 93.8142 29.7885 94.3672C30.4735 94.9632 32.0125 92.4732 31.7865 91.5292Z" stroke="black" stroke-width="0.1018" stroke-miterlimit="10" stroke-linecap="round" stroke-linejoin="round"/>
<path d="M29.8354 94.4023C29.8354 94.4023 30.2435 93.2882 31.7025 91.4462" stroke="black" stroke-width="0.1018" stroke-miterlimit="10" stroke-linecap="round" stroke-linejoin="round"/>
<path d="M30.0356 94.4562C30.0356 94.4562 30.7767 94.0152 31.7477 91.4182" stroke="black" stroke-width="0.1018" stroke-miterlimit="10" stroke-linecap="round" stroke-linejoin="round"/>
<path d="M27.1405 93.1603C27.1645 93.0733 27.0796 92.9952 26.9926 93.0172C26.3036 93.1902 23.7336 93.8952 24.0226 94.6852C24.3356 95.5372 26.8845 94.0963 27.1405 93.1603Z" stroke="black" stroke-width="0.1018" stroke-miterlimit="10" stroke-linecap="round" stroke-linejoin="round"/>
<path d="M24.0476 94.7392C24.0476 94.7392 24.9416 93.9592 27.1076 93.0472" stroke="black" stroke-width="0.1018" stroke-miterlimit="10" stroke-linecap="round" stroke-linejoin="round"/>
<path d="M24.1965 94.8822C24.1965 94.8822 25.0585 94.8523 27.1595 93.0443" stroke="black" stroke-width="0.1018" stroke-miterlimit="10" stroke-linecap="round" stroke-linejoin="round"/>
<path d="M36.4665 91.1142C36.4455 91.0262 36.3335 90.9982 36.2675 91.0602C35.7475 91.5442 33.8335 93.3992 34.4685 93.9522C35.1535 94.5482 36.6925 92.0582 36.4665 91.1142Z" stroke="black" stroke-width="0.1018" stroke-miterlimit="10" stroke-linecap="round" stroke-linejoin="round"/>
<path d="M34.5154 93.9872C34.5154 93.9872 34.9234 92.8722 36.3824 91.0312" stroke="black" stroke-width="0.1018" stroke-miterlimit="10" stroke-linecap="round" stroke-linejoin="round"/>
<path d="M34.7153 94.0412C34.7153 94.0412 35.4563 93.6002 36.4263 91.0032" stroke="black" stroke-width="0.1018" stroke-miterlimit="10" stroke-linecap="round" stroke-linejoin="round"/>
<path d="M50.028 94.999L48.3513 88.8671H49.1058L50.3873 93.8613H50.4472L51.7526 88.8671H52.5909L53.8964 93.8613H53.9562L55.2377 88.8671H55.9922L54.3155 94.999H53.549L52.1957 90.1126H52.1478L50.7945 94.999H50.028ZM56.9174 94.999V88.8671H60.6181V89.5258H57.66V91.5977H60.4265V92.2564H57.66V94.3403H60.666V94.999H56.9174ZM63.8488 94.999H61.9565V88.8671H63.9326C64.5274 88.8671 65.0364 88.9899 65.4596 89.2354C65.8828 89.4789 66.2071 89.8292 66.4327 90.2863C66.6582 90.7414 66.771 91.2863 66.771 91.9211C66.771 92.5598 66.6572 93.1097 66.4297 93.5708C66.2021 94.0299 65.8708 94.3832 65.4356 94.6307C65.0005 94.8763 64.4715 94.999 63.8488 94.999ZM62.699 94.3403H63.8009C64.3079 94.3403 64.728 94.2425 65.0614 94.0469C65.3947 93.8513 65.6432 93.5728 65.8069 93.2115C65.9706 92.8503 66.0524 92.4201 66.0524 91.9211C66.0524 91.4261 65.9716 90.9999 65.8099 90.6426C65.6482 90.2833 65.4067 90.0078 65.0853 89.8162C64.764 89.6226 64.3638 89.5258 63.8847 89.5258H62.699V94.3403ZM69.9088 94.999H68.0166V88.8671H69.9927C70.5875 88.8671 71.0965 88.9899 71.5197 89.2354C71.9428 89.4789 72.2672 89.8292 72.4927 90.2863C72.7183 90.7414 72.8311 91.2863 72.8311 91.9211C72.8311 92.5598 72.7173 93.1097 72.4898 93.5708C72.2622 94.0299 71.9309 94.3832 71.4957 94.6307C71.0606 94.8763 70.5316 94.999 69.9088 94.999ZM68.7591 94.3403H69.8609C70.3679 94.3403 70.7881 94.2425 71.1214 94.0469C71.4548 93.8513 71.7033 93.5728 71.867 93.2115C72.0307 92.8503 72.1125 92.4201 72.1125 91.9211C72.1125 91.4261 72.0317 90.9999 71.87 90.6426C71.7083 90.2833 71.4668 90.0078 71.1454 89.8162C70.824 89.6226 70.4238 89.5258 69.9448 89.5258H68.7591V94.3403ZM74.8192 88.8671V94.999H74.0766V88.8671H74.8192ZM81.1704 88.8671V94.999H80.4518L77.1104 90.1845H77.0505V94.999H76.308V88.8671H77.0266L80.38 93.6936H80.4399V88.8671H81.1704ZM86.848 90.7833C86.7821 90.5817 86.6953 90.4011 86.5875 90.2414C86.4817 90.0797 86.355 89.942 86.2072 89.8282C86.0615 89.7144 85.8959 89.6276 85.7102 89.5677C85.5246 89.5078 85.321 89.4779 85.0994 89.4779C84.7361 89.4779 84.4058 89.5717 84.1084 89.7593C83.811 89.947 83.5744 90.2234 83.3988 90.5887C83.2231 90.954 83.1353 91.4021 83.1353 91.9331C83.1353 92.464 83.2241 92.9121 83.4018 93.2774C83.5794 93.6427 83.8199 93.9191 84.1233 94.1068C84.4268 94.2944 84.7681 94.3882 85.1473 94.3882C85.4986 94.3882 85.808 94.3134 86.0755 94.1637C86.345 94.012 86.5546 93.7984 86.7043 93.5229C86.856 93.2455 86.9318 92.9191 86.9318 92.5439L87.1594 92.5918H85.315V91.9331H87.6504V92.5918C87.6504 93.0968 87.5426 93.5359 87.327 93.9092C87.1135 94.2824 86.818 94.5719 86.4408 94.7775C86.0655 94.9811 85.6344 95.0829 85.1473 95.0829C84.6044 95.0829 84.1273 94.9551 83.7162 94.6996C83.307 94.4441 82.9876 94.0808 82.758 93.6098C82.5305 93.1387 82.4167 92.5798 82.4167 91.9331C82.4167 91.448 82.4816 91.0119 82.6113 90.6246C82.7431 90.2354 82.9287 89.9041 83.1682 89.6306C83.4078 89.3571 83.6912 89.1475 84.0186 89.0018C84.3459 88.8561 84.7062 88.7833 85.0994 88.7833C85.4228 88.7833 85.7242 88.8322 86.0036 88.93C86.2851 89.0258 86.5356 89.1625 86.7552 89.3402C86.9767 89.5158 87.1614 89.7264 87.3091 89.9719C87.4568 90.2154 87.5586 90.4859 87.6145 90.7833H86.848ZM91.545 94.999H90.7665L93.0181 88.8671H93.7846L96.0361 94.999H95.2577L93.4253 89.8372H93.3774L91.545 94.999ZM91.8324 92.6037H94.9702V93.2624H91.8324V92.6037ZM96.9913 94.999V88.8671H99.0632C99.5422 88.8671 99.9355 88.9489 100.243 89.1126C100.55 89.2743 100.778 89.4969 100.926 89.7803C101.073 90.0637 101.147 90.3861 101.147 90.7474C101.147 91.1087 101.073 91.4291 100.926 91.7085C100.778 91.988 100.551 92.2075 100.246 92.3672C99.9405 92.5249 99.5502 92.6037 99.0752 92.6037H97.3985V91.9331H99.0512C99.3786 91.9331 99.642 91.8852 99.8417 91.7893C100.043 91.6935 100.189 91.5578 100.279 91.3821C100.371 91.2045 100.417 90.9929 100.417 90.7474C100.417 90.5019 100.371 90.2873 100.279 90.1037C100.187 89.92 100.04 89.7783 99.8387 89.6785C99.6371 89.5767 99.3706 89.5258 99.0392 89.5258H97.7338V94.999H96.9913ZM99.8776 92.2444L101.387 94.999H100.524L99.0392 92.2444H99.8776ZM102.049 89.5258V88.8671H106.648V89.5258H104.72V94.999H103.977V89.5258H102.049Z" fill="black"/>
<path d="M111.172 92.9422C111.172 92.9422 119.609 88.3033 128.78 93.3253" stroke="black" stroke-width="0.1018" stroke-miterlimit="10"/>
<path d="M126.299 92.1632C126.299 92.1632 129.853 91.9362 129.67 90.9832C129.487 90.0302 126.363 91.2492 126.299 92.1632Z" stroke="black" stroke-width="0.1018" stroke-miterlimit="10" stroke-linecap="round" stroke-linejoin="round"/>
<path d="M129.655 90.9262C129.655 90.9262 128.584 91.6132 126.299 92.1632" stroke="black" stroke-width="0.1018" stroke-miterlimit="10" stroke-linecap="round" stroke-linejoin="round"/>
<path d="M129.531 90.7602C129.531 90.7602 128.675 90.6502 126.31 92.0962" stroke="black" stroke-width="0.1018" stroke-miterlimit="10" stroke-linecap="round" stroke-linejoin="round"/>
<path d="M121.429 91.0623C121.429 91.0623 124.888 90.2122 124.539 89.3062C124.191 88.4002 121.331 90.1513 121.429 91.0623Z" stroke="black" stroke-width="0.1018" stroke-miterlimit="10" stroke-linecap="round" stroke-linejoin="round"/>
<path d="M124.514 89.2522C124.514 89.2522 123.581 90.1173 121.429 91.0623" stroke="black" stroke-width="0.1018" stroke-miterlimit="10" stroke-linecap="round" stroke-linejoin="round"/>
<path d="M124.363 89.1112C124.363 89.1112 123.501 89.1542 121.428 90.9942" stroke="black" stroke-width="0.1018" stroke-miterlimit="10" stroke-linecap="round" stroke-linejoin="round"/>
<path d="M115.646 91.4362C115.646 91.4362 119.116 90.6362 118.781 89.7252C118.446 88.8152 115.561 90.5242 115.646 91.4362Z" stroke="black" stroke-width="0.1018" stroke-miterlimit="10" stroke-linecap="round" stroke-linejoin="round"/>
<path d="M118.757 89.6722C118.757 89.6722 117.811 90.5243 115.646 91.4373" stroke="black" stroke-width="0.1018" stroke-miterlimit="10" stroke-linecap="round" stroke-linejoin="round"/>
<path d="M118.608 89.5282C118.608 89.5282 117.746 89.5592 115.646 91.3692" stroke="black" stroke-width="0.1018" stroke-miterlimit="10" stroke-linecap="round" stroke-linejoin="round"/>
<path d="M123.557 91.5292C123.578 91.4412 123.69 91.4132 123.756 91.4752C124.277 91.9592 126.19 93.8142 125.555 94.3672C124.871 94.9632 123.331 92.4732 123.557 91.5292Z" stroke="black" stroke-width="0.1018" stroke-miterlimit="10" stroke-linecap="round" stroke-linejoin="round"/>
<path d="M125.508 94.4023C125.508 94.4023 125.1 93.2882 123.641 91.4462" stroke="black" stroke-width="0.1018" stroke-miterlimit="10" stroke-linecap="round" stroke-linejoin="round"/>
<path d="M125.309 94.4562C125.309 94.4562 124.568 94.0152 123.598 91.4182" stroke="black" stroke-width="0.1018" stroke-miterlimit="10" stroke-linecap="round" stroke-linejoin="round"/>
<path d="M128.203 93.1603C128.179 93.0733 128.264 92.9952 128.351 93.0172C129.04 93.1902 131.61 93.8952 131.321 94.6852C131.008 95.5372 128.459 94.0963 128.203 93.1603Z" stroke="black" stroke-width="0.1018" stroke-miterlimit="10" stroke-linecap="round" stroke-linejoin="round"/>
<path d="M131.296 94.7392C131.296 94.7392 130.402 93.9592 128.236 93.0472" stroke="black" stroke-width="0.1018" stroke-miterlimit="10" stroke-linecap="round" stroke-linejoin="round"/>
<path d="M131.147 94.8822C131.147 94.8822 130.285 94.8523 128.184 93.0443" stroke="black" stroke-width="0.1018" stroke-miterlimit="10" stroke-linecap="round" stroke-linejoin="round"/>
<path d="M118.877 91.1142C118.898 91.0262 119.01 90.9982 119.076 91.0602C119.596 91.5442 121.51 93.3992 120.875 93.9522C120.191 94.5482 118.651 92.0582 118.877 91.1142Z" stroke="black" stroke-width="0.1018" stroke-miterlimit="10" stroke-linecap="round" stroke-linejoin="round"/>
<path d="M120.828 93.9872C120.828 93.9872 120.42 92.8722 118.961 91.0312" stroke="black" stroke-width="0.1018" stroke-miterlimit="10" stroke-linecap="round" stroke-linejoin="round"/>
<path d="M120.629 94.0412C120.629 94.0412 119.888 93.6002 118.917 91.0032" stroke="black" stroke-width="0.1018" stroke-miterlimit="10" stroke-linecap="round" stroke-linejoin="round"/>
<path d="M102.875 41.9829C102.875 41.9829 121.125 52.0189 140.964 41.1539" stroke="black" stroke-width="0.2203" stroke-miterlimit="10"/>
<path d="M135.597 43.6689C135.597 43.6689 143.286 44.1589 142.89 46.2209C142.494 48.2829 135.736 45.6449 135.597 43.6689Z" stroke="black" stroke-width="0.2203" stroke-miterlimit="10" stroke-linecap="round" stroke-linejoin="round"/>
<path d="M142.856 46.3449C142.856 46.3449 140.538 44.8579 135.597 43.6689" stroke="black" stroke-width="0.2203" stroke-miterlimit="10" stroke-linecap="round" stroke-linejoin="round"/>
<path d="M142.589 46.7039C142.589 46.7039 140.738 46.9409 135.622 43.8139" stroke="black" stroke-width="0.2203" stroke-miterlimit="10" stroke-linecap="round" stroke-linejoin="round"/>
<path d="M125.061 46.0509C125.061 46.0509 132.543 47.8899 131.789 49.8489C131.035 51.8079 124.85 48.0209 125.061 46.0509Z" stroke="black" stroke-width="0.2203" stroke-miterlimit="10" stroke-linecap="round" stroke-linejoin="round"/>
<path d="M131.735 49.9659C131.735 49.9659 129.716 48.0939 125.061 46.0509" stroke="black" stroke-width="0.2203" stroke-miterlimit="10" stroke-linecap="round" stroke-linejoin="round"/>
<path d="M131.408 50.2709C131.408 50.2709 129.544 50.1779 125.06 46.1969" stroke="black" stroke-width="0.2203" stroke-miterlimit="10" stroke-linecap="round" stroke-linejoin="round"/>
<path d="M112.553 45.2409C112.553 45.2409 120.06 46.9709 119.335 48.9419C118.61 50.9119 112.37 47.2129 112.553 45.2409Z" stroke="black" stroke-width="0.2203" stroke-miterlimit="10" stroke-linecap="round" stroke-linejoin="round"/>
<path d="M119.282 49.0579C119.282 49.0579 117.236 47.2149 112.553 45.2399" stroke="black" stroke-width="0.2203" stroke-miterlimit="10" stroke-linecap="round" stroke-linejoin="round"/>
<path d="M118.96 49.3689C118.96 49.3689 117.095 49.3029 112.554 45.3869" stroke="black" stroke-width="0.2203" stroke-miterlimit="10" stroke-linecap="round" stroke-linejoin="round"/>
<path d="M129.666 45.0399C129.711 45.2289 129.954 45.2899 130.096 45.1579C131.222 44.1109 135.361 40.0989 133.989 38.9029C132.507 37.6119 129.177 42.9989 129.666 45.0399Z" stroke="black" stroke-width="0.2203" stroke-miterlimit="10" stroke-linecap="round" stroke-linejoin="round"/>
<path d="M133.886 38.8259C133.886 38.8259 133.004 41.2369 129.847 45.2209" stroke="black" stroke-width="0.2203" stroke-miterlimit="10" stroke-linecap="round" stroke-linejoin="round"/>
<path d="M133.455 38.7089C133.455 38.7089 131.852 39.6639 129.753 45.2809" stroke="black" stroke-width="0.2203" stroke-miterlimit="10" stroke-linecap="round" stroke-linejoin="round"/>
<path d="M139.716 41.5119C139.665 41.6999 139.848 41.8699 140.037 41.8219C141.528 41.4469 147.088 39.9229 146.461 38.2139C145.783 36.3699 140.27 39.4869 139.716 41.5119Z" stroke="black" stroke-width="0.2203" stroke-miterlimit="10" stroke-linecap="round" stroke-linejoin="round"/>
<path d="M146.407 38.0969C146.407 38.0969 144.473 39.7849 139.788 41.7559" stroke="black" stroke-width="0.2203" stroke-miterlimit="10" stroke-linecap="round" stroke-linejoin="round"/>
<path d="M146.085 37.7869C146.085 37.7869 144.22 37.8519 139.676 41.7639" stroke="black" stroke-width="0.2203" stroke-miterlimit="10" stroke-linecap="round" stroke-linejoin="round"/>
<path d="M119.542 45.9379C119.587 46.1269 119.83 46.1879 119.972 46.0559C121.098 45.0089 125.237 40.9969 123.865 39.8009C122.383 38.5089 119.053 43.8959 119.542 45.9379Z" stroke="black" stroke-width="0.2203" stroke-miterlimit="10" stroke-linecap="round" stroke-linejoin="round"/>
<path d="M123.763 39.7229C123.763 39.7229 122.881 42.1339 119.724 46.1179" stroke="black" stroke-width="0.2203" stroke-miterlimit="10" stroke-linecap="round" stroke-linejoin="round"/>
<path d="M123.331 39.6059C123.331 39.6059 121.728 40.5609 119.629 46.1779" stroke="black" stroke-width="0.2203" stroke-miterlimit="10" stroke-linecap="round" stroke-linejoin="round"/>
<path d="M44.6351 41.9829C44.6351 41.9829 26.3851 52.0189 6.54712 41.1539" stroke="black" stroke-width="0.2203" stroke-miterlimit="10"/>
<path d="M11.913 43.6689C11.913 43.6689 4.22401 44.1589 4.62001 46.2209C5.01601 48.2829 11.773 45.6449 11.913 43.6689Z" stroke="black" stroke-width="0.2203" stroke-miterlimit="10" stroke-linecap="round" stroke-linejoin="round"/>
<path d="M4.65308 46.3449C4.65308 46.3449 6.97108 44.8579 11.9121 43.6689" stroke="black" stroke-width="0.2203" stroke-miterlimit="10" stroke-linecap="round" stroke-linejoin="round"/>
<path d="M4.9209 46.7039C4.9209 46.7039 6.77188 46.9409 11.8879 43.8139" stroke="black" stroke-width="0.2203" stroke-miterlimit="10" stroke-linecap="round" stroke-linejoin="round"/>
<path d="M22.4481 46.0509C22.4481 46.0509 14.9661 47.8899 15.7201 49.8489C16.4741 51.8079 22.6601 48.0209 22.4481 46.0509Z" stroke="black" stroke-width="0.2203" stroke-miterlimit="10" stroke-linecap="round" stroke-linejoin="round"/>
<path d="M15.7751 49.9659C15.7751 49.9659 17.7941 48.0939 22.4491 46.0509" stroke="black" stroke-width="0.2203" stroke-miterlimit="10" stroke-linecap="round" stroke-linejoin="round"/>
<path d="M16.1011 50.2709C16.1011 50.2709 17.9651 50.1779 22.4491 46.1969" stroke="black" stroke-width="0.2203" stroke-miterlimit="10" stroke-linecap="round" stroke-linejoin="round"/>
<path d="M34.9572 45.2409C34.9572 45.2409 27.4502 46.9709 28.1742 48.9419C28.8992 50.9119 35.1402 47.2129 34.9572 45.2409Z" stroke="black" stroke-width="0.2203" stroke-miterlimit="10" stroke-linecap="round" stroke-linejoin="round"/>
<path d="M28.2273 49.0579C28.2273 49.0579 30.2733 47.2149 34.9563 45.2399" stroke="black" stroke-width="0.2203" stroke-miterlimit="10" stroke-linecap="round" stroke-linejoin="round"/>
<path d="M28.5503 49.3689C28.5503 49.3689 30.4153 49.3029 34.9563 45.3869" stroke="black" stroke-width="0.2203" stroke-miterlimit="10" stroke-linecap="round" stroke-linejoin="round"/>
<path d="M17.8432 45.0399C17.7982 45.2289 17.5552 45.2899 17.4132 45.1579C16.2872 44.1109 12.1482 40.0989 13.5202 38.9029C15.0022 37.6119 18.3322 42.9989 17.8432 45.0399Z" stroke="black" stroke-width="0.2203" stroke-miterlimit="10" stroke-linecap="round" stroke-linejoin="round"/>
<path d="M13.6233 38.8259C13.6233 38.8259 14.5053 41.2369 17.6623 45.2209" stroke="black" stroke-width="0.2203" stroke-miterlimit="10" stroke-linecap="round" stroke-linejoin="round"/>
<path d="M14.0552 38.7089C14.0552 38.7089 15.6582 39.6639 17.7572 45.2809" stroke="black" stroke-width="0.2203" stroke-miterlimit="10" stroke-linecap="round" stroke-linejoin="round"/>
<path d="M7.79408 41.5119C7.84508 41.6999 7.66209 41.8699 7.47309 41.8219C5.98209 41.4469 0.422082 39.9229 1.04908 38.2139C1.72708 36.3699 7.23908 39.4869 7.79408 41.5119Z" stroke="black" stroke-width="0.2203" stroke-miterlimit="10" stroke-linecap="round" stroke-linejoin="round"/>
<path d="M1.10303 38.0969C1.10303 38.0969 3.03705 39.7849 7.72205 41.7559" stroke="black" stroke-width="0.2203" stroke-miterlimit="10" stroke-linecap="round" stroke-linejoin="round"/>
<path d="M1.42505 37.7869C1.42505 37.7869 3.29005 37.8519 7.83405 41.7639" stroke="black" stroke-width="0.2203" stroke-miterlimit="10" stroke-linecap="round" stroke-linejoin="round"/>
<path d="M27.9671 45.9379C27.9221 46.1269 27.6791 46.1879 27.5371 46.0559C26.4111 45.0089 22.2721 40.9969 23.6451 39.8009C25.1261 38.5089 28.4561 43.8959 27.9671 45.9379Z" stroke="black" stroke-width="0.2203" stroke-miterlimit="10" stroke-linecap="round" stroke-linejoin="round"/>
<path d="M23.7471 39.7229C23.7471 39.7229 24.6291 42.1339 27.7861 46.1179" stroke="black" stroke-width="0.2203" stroke-miterlimit="10" stroke-linecap="round" stroke-linejoin="round"/>
<path d="M24.1792 39.6059C24.1792 39.6059 25.7822 40.5609 27.8812 46.1779" stroke="black" stroke-width="0.2203" stroke-miterlimit="10" stroke-linecap="round" stroke-linejoin="round"/>
<path d="M71.846 40.8259C71.846 40.8259 51.406 36.8269 43.147 15.7699" stroke="black" stroke-width="0.2203" stroke-miterlimit="10"/>
<path d="M45.653 21.1409C45.653 21.1409 39.438 16.5879 38.42 18.4239C37.402 20.2599 44.279 22.5679 45.653 21.1409Z" stroke="black" stroke-width="0.2203" stroke-miterlimit="10" stroke-linecap="round" stroke-linejoin="round"/>
<path d="M38.3669 18.5409C38.3669 18.5409 41.099 18.8859 45.654 21.1409" stroke="black" stroke-width="0.2203" stroke-miterlimit="10" stroke-linecap="round" stroke-linejoin="round"/>
<path d="M38.342 18.9869C38.342 18.9869 39.6111 20.3559 45.5421 21.2359" stroke="black" stroke-width="0.2203" stroke-miterlimit="10" stroke-linecap="round" stroke-linejoin="round"/>
<path d="M52.2111 29.7239C52.2111 29.7239 45.2911 26.3379 44.6121 28.3249C43.9331 30.3119 51.1111 31.3709 52.2111 29.7239Z" stroke="black" stroke-width="0.2203" stroke-miterlimit="10" stroke-linecap="round" stroke-linejoin="round"/>
<path d="M44.5801 28.4489C44.5801 28.4489 47.3301 28.3069 52.2111 29.7229" stroke="black" stroke-width="0.2203" stroke-miterlimit="10" stroke-linecap="round" stroke-linejoin="round"/>
<path d="M44.635 28.8929C44.635 28.8929 46.125 30.0169 52.119 29.8369" stroke="black" stroke-width="0.2203" stroke-miterlimit="10" stroke-linecap="round" stroke-linejoin="round"/>
<path d="M62.3311 37.1209C62.3311 37.1209 55.4601 33.6359 54.7531 35.6129C54.0461 37.5899 61.2061 38.7529 62.3311 37.1209Z" stroke="black" stroke-width="0.2203" stroke-miterlimit="10" stroke-linecap="round" stroke-linejoin="round"/>
<path d="M54.718 35.7369C54.718 35.7369 57.47 35.6349 62.33 37.1209" stroke="black" stroke-width="0.2203" stroke-miterlimit="10" stroke-linecap="round" stroke-linejoin="round"/>
<path d="M54.7671 36.1819C54.7671 36.1819 56.2411 37.3269 62.2361 37.2339" stroke="black" stroke-width="0.2203" stroke-miterlimit="10" stroke-linecap="round" stroke-linejoin="round"/>
<path d="M49.326 25.9959C49.17 26.1119 48.945 26.0039 48.92 25.8099C48.727 24.2849 48.123 18.5519 49.943 18.5139C51.908 18.4729 51.01 24.7419 49.326 25.9959Z" stroke="black" stroke-width="0.2203" stroke-miterlimit="10" stroke-linecap="round" stroke-linejoin="round"/>
<path d="M50.071 18.5209C50.071 18.5209 49.202 20.9369 49.071 26.0179" stroke="black" stroke-width="0.2203" stroke-miterlimit="10" stroke-linecap="round" stroke-linejoin="round"/>
<path d="M50.4779 18.7079C50.4779 18.7079 51.096 20.4689 49.106 26.1249" stroke="black" stroke-width="0.2203" stroke-miterlimit="10" stroke-linecap="round" stroke-linejoin="round"/>
<path d="M43.8751 16.8449C43.7941 17.0219 43.5451 17.0349 43.4301 16.8779C42.5271 15.6339 39.2361 10.8999 40.8131 9.99092C42.5161 9.00892 44.7481 14.9349 43.8751 16.8449Z" stroke="black" stroke-width="0.2203" stroke-miterlimit="10" stroke-linecap="round" stroke-linejoin="round"/>
<path d="M40.9292 9.93393C40.9292 9.93393 41.3312 12.4689 43.6622 16.9859" stroke="black" stroke-width="0.2203" stroke-miterlimit="10" stroke-linecap="round" stroke-linejoin="round"/>
<path d="M41.375 9.90292C41.375 9.90292 42.765 11.1489 43.744 17.0639" stroke="black" stroke-width="0.2203" stroke-miterlimit="10" stroke-linecap="round" stroke-linejoin="round"/>
<path d="M56.5201 33.1749C56.3641 33.2909 56.1391 33.1829 56.1141 32.9889C55.9211 31.4639 55.3171 25.7309 57.1371 25.6929C59.1021 25.6529 58.2041 31.9219 56.5201 33.1749Z" stroke="black" stroke-width="0.2203" stroke-miterlimit="10" stroke-linecap="round" stroke-linejoin="round"/>
<path d="M57.2651 25.6999C57.2651 25.6999 56.3961 28.1159 56.2651 33.1969" stroke="black" stroke-width="0.2203" stroke-miterlimit="10" stroke-linecap="round" stroke-linejoin="round"/>
<path d="M57.672 25.8869C57.672 25.8869 58.29 27.6479 56.3 33.3039" stroke="black" stroke-width="0.2203" stroke-miterlimit="10" stroke-linecap="round" stroke-linejoin="round"/>
<path d="M76.4609 48.6689C76.4609 48.6689 96.9009 44.6699 105.16 23.6129" stroke="black" stroke-width="0.2203" stroke-miterlimit="10"/>
<path d="M102.654 28.9839C102.654 28.9839 108.869 24.4309 109.887 26.2669C110.905 28.1029 104.028 30.4109 102.654 28.9839Z" stroke="black" stroke-width="0.2203" stroke-miterlimit="10" stroke-linecap="round" stroke-linejoin="round"/>
<path d="M109.941 26.3839C109.941 26.3839 107.209 26.7289 102.654 28.9839" stroke="black" stroke-width="0.2203" stroke-miterlimit="10" stroke-linecap="round" stroke-linejoin="round"/>
<path d="M109.965 26.8299C109.965 26.8299 108.696 28.1989 102.765 29.0789" stroke="black" stroke-width="0.2203" stroke-miterlimit="10" stroke-linecap="round" stroke-linejoin="round"/>
<path d="M96.0959 37.5659C96.0959 37.5659 103.016 34.1799 103.695 36.1669C104.373 38.1549 97.1969 39.2139 96.0959 37.5659Z" stroke="black" stroke-width="0.2203" stroke-miterlimit="10" stroke-linecap="round" stroke-linejoin="round"/>
<path d="M103.727 36.2919C103.727 36.2919 100.977 36.1499 96.0959 37.5659" stroke="black" stroke-width="0.2203" stroke-miterlimit="10" stroke-linecap="round" stroke-linejoin="round"/>
<path d="M103.673 36.7359C103.673 36.7359 102.183 37.8589 96.189 37.6799" stroke="black" stroke-width="0.2203" stroke-miterlimit="10" stroke-linecap="round" stroke-linejoin="round"/>
<path d="M85.9771 44.9639C85.9771 44.9639 92.8481 41.4789 93.5551 43.4559C94.2621 45.4329 87.1011 46.5959 85.9771 44.9639Z" stroke="black" stroke-width="0.2203" stroke-miterlimit="10" stroke-linecap="round" stroke-linejoin="round"/>
<path d="M93.5891 43.5799C93.5891 43.5799 90.8371 43.4779 85.9771 44.9649" stroke="black" stroke-width="0.2203" stroke-miterlimit="10" stroke-linecap="round" stroke-linejoin="round"/>
<path d="M93.541 44.0239C93.541 44.0239 92.067 45.1689 86.072 45.0759" stroke="black" stroke-width="0.2203" stroke-miterlimit="10" stroke-linecap="round" stroke-linejoin="round"/>
<path d="M98.982 33.8379C99.138 33.9539 99.363 33.8459 99.388 33.6519C99.581 32.1269 100.185 26.3939 98.365 26.3559C96.4 26.3159 97.298 32.5849 98.982 33.8379Z" stroke="black" stroke-width="0.2203" stroke-miterlimit="10" stroke-linecap="round" stroke-linejoin="round"/>
<path d="M98.2361 26.3639C98.2361 26.3639 99.1051 28.7799 99.2361 33.8609" stroke="black" stroke-width="0.2203" stroke-miterlimit="10" stroke-linecap="round" stroke-linejoin="round"/>
<path d="M97.83 26.5499C97.83 26.5499 97.212 28.3109 99.202 33.9669" stroke="black" stroke-width="0.2203" stroke-miterlimit="10" stroke-linecap="round" stroke-linejoin="round"/>
<path d="M104.432 24.6879C104.513 24.8649 104.763 24.8779 104.877 24.7209C105.78 23.4769 109.071 18.7429 107.494 17.8339C105.791 16.8509 103.56 22.7779 104.432 24.6879Z" stroke="black" stroke-width="0.2203" stroke-miterlimit="10" stroke-linecap="round" stroke-linejoin="round"/>
<path d="M107.378 17.7769C107.378 17.7769 106.976 20.3119 104.645 24.8289" stroke="black" stroke-width="0.2203" stroke-miterlimit="10" stroke-linecap="round" stroke-linejoin="round"/>
<path d="M106.932 17.7459C106.932 17.7459 105.542 18.9919 104.563 24.9069" stroke="black" stroke-width="0.2203" stroke-miterlimit="10" stroke-linecap="round" stroke-linejoin="round"/>
<path d="M91.7879 41.0179C91.9439 41.1339 92.1689 41.0259 92.1939 40.8319C92.3869 39.3069 92.9909 33.5739 91.1709 33.5359C89.2059 33.4959 90.1039 39.7649 91.7879 41.0179Z" stroke="black" stroke-width="0.2203" stroke-miterlimit="10" stroke-linecap="round" stroke-linejoin="round"/>
<path d="M91.042 33.5429C91.042 33.5429 91.911 35.9589 92.042 41.0399" stroke="black" stroke-width="0.2203" stroke-miterlimit="10" stroke-linecap="round" stroke-linejoin="round"/>
<path d="M90.6359 33.7299C90.6359 33.7299 90.0179 35.4909 92.0079 41.1469" stroke="black" stroke-width="0.2203" stroke-miterlimit="10" stroke-linecap="round" stroke-linejoin="round"/>
<path d="M75.385 57.4269C75.385 57.4269 81.312 46.2989 84.118 48.2829C86.923 50.2659 78.425 58.5549 75.385 57.4269Z" stroke="black" stroke-width="0.3605" stroke-miterlimit="10" stroke-linecap="round" stroke-linejoin="round"/>
<path d="M84.28 48.4159C84.28 48.4159 80.498 50.8659 75.385 57.4269" stroke="black" stroke-width="0.3605" stroke-miterlimit="10" stroke-linecap="round" stroke-linejoin="round"/>
<path d="M84.633 49.0569C84.633 49.0569 83.735 51.9759 75.616 57.4869" stroke="black" stroke-width="0.3605" stroke-miterlimit="10" stroke-linecap="round" stroke-linejoin="round"/>
<path d="M76.664 47.2519C76.664 47.2519 78.8 34.8259 75.367 34.6739C71.934 34.5219 73.57 46.2799 76.664 47.2519Z" stroke="black" stroke-width="0.3605" stroke-miterlimit="10" stroke-linecap="round" stroke-linejoin="round"/>
<path d="M75.157 34.6799C75.157 34.6799 76.645 38.9339 76.664 47.2519" stroke="black" stroke-width="0.3605" stroke-miterlimit="10" stroke-linecap="round" stroke-linejoin="round"/>
<path d="M74.485 34.9699C74.485 34.9699 73.406 37.8269 76.443 47.1579" stroke="black" stroke-width="0.3605" stroke-miterlimit="10" stroke-linecap="round" stroke-linejoin="round"/>
<path d="M80.031 35.7489C80.031 35.7489 85.958 24.6209 88.764 26.6049C91.57 28.5889 83.071 36.8779 80.031 35.7489Z" stroke="black" stroke-width="0.3605" stroke-miterlimit="10" stroke-linecap="round" stroke-linejoin="round"/>
<path d="M88.926 26.7389C88.926 26.7389 85.144 29.1889 80.031 35.7499" stroke="black" stroke-width="0.3605" stroke-miterlimit="10" stroke-linecap="round" stroke-linejoin="round"/>
<path d="M89.279 27.3799C89.279 27.3799 88.381 30.2989 80.262 35.8099" stroke="black" stroke-width="0.3605" stroke-miterlimit="10" stroke-linecap="round" stroke-linejoin="round"/>
<path d="M89.937 17.5499C89.937 17.5499 95.864 6.42191 98.67 8.40591C101.475 10.3899 92.977 18.6789 89.937 17.5499Z" stroke="black" stroke-width="0.3605" stroke-miterlimit="10" stroke-linecap="round" stroke-linejoin="round"/>
<path d="M98.832 8.53992C98.832 8.53992 95.05 10.9899 89.937 17.5509" stroke="black" stroke-width="0.3605" stroke-miterlimit="10" stroke-linecap="round" stroke-linejoin="round"/>
<path d="M99.185 9.18091C99.185 9.18091 98.287 12.0999 90.168 17.6109" stroke="black" stroke-width="0.3605" stroke-miterlimit="10" stroke-linecap="round" stroke-linejoin="round"/>
<path d="M84.255 26.4619C84.255 26.4619 86.391 14.0369 82.958 13.8839C79.525 13.7329 81.161 25.4909 84.255 26.4619Z" stroke="black" stroke-width="0.3605" stroke-miterlimit="10" stroke-linecap="round" stroke-linejoin="round"/>
<path d="M82.748 13.8909C82.748 13.8909 84.236 18.1449 84.255 26.4629" stroke="black" stroke-width="0.3605" stroke-miterlimit="10" stroke-linecap="round" stroke-linejoin="round"/>
<path d="M82.0761 14.1809C82.0761 14.1809 80.9961 17.0379 84.0341 26.3689" stroke="black" stroke-width="0.3605" stroke-miterlimit="10" stroke-linecap="round" stroke-linejoin="round"/>
<path d="M93.225 14.5829C93.225 14.5829 73.497 30.4229 74.953 71.3939" stroke="black" stroke-width="0.3605" stroke-miterlimit="10" stroke-linecap="round" stroke-linejoin="round"/>
<path d="M70.7779 35.7489C70.7779 35.7489 70.3209 23.1489 73.7429 23.4569C77.1659 23.7649 73.9739 35.1999 70.7779 35.7489Z" stroke="black" stroke-width="0.3605" stroke-miterlimit="10" stroke-linecap="round" stroke-linejoin="round"/>
<path d="M73.9508 23.4919C73.9508 23.4919 71.9078 27.5089 70.7778 35.7499" stroke="black" stroke-width="0.3605" stroke-miterlimit="10" stroke-linecap="round" stroke-linejoin="round"/>
<path d="M74.5778 23.8689C74.5778 23.8689 75.2658 26.8449 71.0088 35.6859" stroke="black" stroke-width="0.3605" stroke-miterlimit="10" stroke-linecap="round" stroke-linejoin="round"/>
<path d="M65.9329 18.6289C65.9329 18.6289 65.4759 6.02991 68.8979 6.33691C72.3209 6.64491 69.1289 18.0789 65.9329 18.6289Z" stroke="black" stroke-width="0.3605" stroke-miterlimit="10" stroke-linecap="round" stroke-linejoin="round"/>
<path d="M69.1059 6.37091C69.1059 6.37091 67.0639 10.3879 65.9329 18.6289" stroke="black" stroke-width="0.3605" stroke-miterlimit="10" stroke-linecap="round" stroke-linejoin="round"/>
<path d="M69.7338 6.74792C69.7338 6.74792 70.4218 9.72391 66.1648 18.5649" stroke="black" stroke-width="0.3605" stroke-miterlimit="10" stroke-linecap="round" stroke-linejoin="round"/>
<path d="M62.5929 11.8159C62.5929 11.8159 52.9739 3.66495 55.5069 1.34395C58.0399 -0.978053 64.3399 9.08393 62.5929 11.8159Z" stroke="black" stroke-width="0.3605" stroke-miterlimit="10" stroke-linecap="round" stroke-linejoin="round"/>
<path d="M55.6719 1.21292C55.6719 1.21292 57.2639 5.42892 62.5929 11.8159" stroke="black" stroke-width="0.3605" stroke-miterlimit="10" stroke-linecap="round" stroke-linejoin="round"/>
<path d="M56.373 1.00391C56.373 1.00391 59.036 2.49993 62.701 11.6019" stroke="black" stroke-width="0.3605" stroke-miterlimit="10" stroke-linecap="round" stroke-linejoin="round"/>
<path d="M73.4489 52.6809C73.4489 52.6809 67.4679 41.5819 64.6719 43.5789C61.8759 45.5759 70.4149 53.8229 73.4489 52.6809Z" stroke="black" stroke-width="0.3605" stroke-miterlimit="10" stroke-linecap="round" stroke-linejoin="round"/>
<path d="M64.51 43.7129C64.51 43.7129 68.304 46.1439 73.449 52.6799" stroke="black" stroke-width="0.3605" stroke-miterlimit="10" stroke-linecap="round" stroke-linejoin="round"/>
<path d="M64.1599 44.3559C64.1599 44.3559 65.0719 47.2709 73.2169 52.7429" stroke="black" stroke-width="0.3605" stroke-miterlimit="10" stroke-linecap="round" stroke-linejoin="round"/>
<path d="M68.6889 26.9529C68.6889 26.9529 62.7079 15.8539 59.9119 17.8509C57.1159 19.8479 65.6539 28.0959 68.6889 26.9529Z" stroke="black" stroke-width="0.3605" stroke-miterlimit="10" stroke-linecap="round" stroke-linejoin="round"/>
<path d="M59.75 17.9859C59.75 17.9859 63.544 20.4169 68.689 26.9529" stroke="black" stroke-width="0.3605" stroke-miterlimit="10" stroke-linecap="round" stroke-linejoin="round"/>
<path d="M59.3999 18.6289C59.3999 18.6289 60.3119 21.5439 68.4569 27.0159" stroke="black" stroke-width="0.3605" stroke-miterlimit="10" stroke-linecap="round" stroke-linejoin="round"/>
<path d="M74.877 67.5149C74.877 67.5149 72.1869 24.2239 61.4089 9.97992" stroke="black" stroke-width="0.3605" stroke-miterlimit="10" stroke-linecap="round" stroke-linejoin="round"/>
</svg>
