<svg width="163" height="99" viewBox="0 0 163 99" fill="none" xmlns="http://www.w3.org/2000/svg">
<path d="M60.4515 96.999L58.8606 91.1808H59.5765L60.7925 95.9195H60.8493L62.0879 91.1808H62.8834L64.122 95.9195H64.1788L65.3947 91.1808H66.1106L64.5197 96.999H63.7925L62.5084 92.3627H62.4629L61.1788 96.999H60.4515ZM66.9885 96.999V91.1808H70.4998V91.8058H67.693V93.7718H70.318V94.3968H67.693V96.374H70.5453V96.999H66.9885ZM73.5652 96.999H71.7697V91.1808H73.6447C74.2091 91.1808 74.6921 91.2973 75.0936 91.5303C75.4951 91.7613 75.8029 92.0937 76.0169 92.5274C76.2309 92.9593 76.3379 93.4763 76.3379 94.0786C76.3379 94.6846 76.23 95.2064 76.014 95.6439C75.7981 96.0795 75.4837 96.4147 75.0709 96.6496C74.658 96.8825 74.1561 96.999 73.5652 96.999ZM72.4743 96.374H73.5197C74.0008 96.374 74.3995 96.2812 74.7158 96.0956C75.032 95.91 75.2678 95.6458 75.4231 95.303C75.5784 94.9602 75.6561 94.5521 75.6561 94.0786C75.6561 93.6089 75.5794 93.2045 75.426 92.8655C75.2726 92.5246 75.0434 92.2632 74.7385 92.0814C74.4336 91.8977 74.0538 91.8058 73.5993 91.8058H72.4743V96.374ZM79.3152 96.999H77.5197V91.1808H79.3947C79.9591 91.1808 80.4421 91.2973 80.8436 91.5303C81.2451 91.7613 81.5529 92.0937 81.7669 92.5274C81.9809 92.9593 82.0879 93.4763 82.0879 94.0786C82.0879 94.6846 81.98 95.2064 81.764 95.6439C81.5481 96.0795 81.2337 96.4147 80.8209 96.6496C80.408 96.8825 79.9061 96.999 79.3152 96.999ZM78.2243 96.374H79.2697C79.7508 96.374 80.1495 96.2812 80.4658 96.0956C80.782 95.91 81.0178 95.6458 81.1731 95.303C81.3284 94.9602 81.4061 94.5521 81.4061 94.0786C81.4061 93.6089 81.3294 93.2045 81.176 92.8655C81.0226 92.5246 80.7934 92.2632 80.4885 92.0814C80.1836 91.8977 79.8038 91.8058 79.3493 91.8058H78.2243V96.374ZM83.9743 91.1808V96.999H83.2697V91.1808H83.9743ZM90.0006 91.1808V96.999H89.3187L86.1483 92.4308H86.0915V96.999H85.3869V91.1808H86.0687L89.2506 95.7604H89.3074V91.1808H90.0006ZM95.3876 92.999C95.3251 92.8077 95.2427 92.6363 95.1405 92.4848C95.0401 92.3314 94.9198 92.2007 94.7797 92.0928C94.6414 91.9848 94.4842 91.9024 94.3081 91.8456C94.1319 91.7888 93.9388 91.7604 93.7285 91.7604C93.3838 91.7604 93.0704 91.8494 92.7882 92.0274C92.506 92.2055 92.2816 92.4678 92.1149 92.8144C91.9482 93.161 91.8649 93.5861 91.8649 94.0899C91.8649 94.5937 91.9492 95.0189 92.1177 95.3655C92.2863 95.7121 92.5145 95.9744 92.8024 96.1524C93.0903 96.3305 93.4141 96.4195 93.774 96.4195C94.1073 96.4195 94.4009 96.3485 94.6547 96.2064C94.9104 96.0625 95.1092 95.8598 95.2513 95.5985C95.3952 95.3352 95.4672 95.0255 95.4672 94.6695L95.6831 94.7149H93.9331V94.0899H96.149V94.7149C96.149 95.1941 96.0467 95.6108 95.8422 95.9649C95.6395 96.3191 95.3592 96.5937 95.0013 96.7888C94.6452 96.982 94.2361 97.0786 93.774 97.0786C93.2588 97.0786 92.8062 96.9574 92.416 96.7149C92.0278 96.4725 91.7248 96.1278 91.5069 95.6808C91.291 95.2339 91.1831 94.7036 91.1831 94.0899C91.1831 93.6297 91.2446 93.2159 91.3677 92.8485C91.4927 92.4791 91.6689 92.1647 91.8962 91.9053C92.1234 91.6458 92.3924 91.4469 92.703 91.3087C93.0136 91.1704 93.3554 91.1013 93.7285 91.1013C94.0354 91.1013 94.3213 91.1477 94.5865 91.2405C94.8535 91.3314 95.0912 91.4611 95.2996 91.6297C95.5098 91.7964 95.685 91.9962 95.8251 92.2291C95.9653 92.4602 96.0619 92.7168 96.1149 92.999H95.3876ZM99.8443 96.999H99.1057L101.242 91.1808H101.969L104.106 96.999H103.367L101.628 92.1013H101.583L99.8443 96.999ZM100.117 94.7263H103.094V95.3513H100.117V94.7263ZM105.012 96.999V91.1808H106.978C107.432 91.1808 107.805 91.2585 108.097 91.4138C108.389 91.5672 108.605 91.7784 108.745 92.0473C108.885 92.3163 108.955 92.6221 108.955 92.9649C108.955 93.3077 108.885 93.6117 108.745 93.8769C108.605 94.142 108.39 94.3503 108.1 94.5019C107.81 94.6515 107.44 94.7263 106.989 94.7263H105.398V94.0899H106.966C107.277 94.0899 107.527 94.0445 107.716 93.9536C107.908 93.8627 108.046 93.7339 108.131 93.5672C108.218 93.3986 108.262 93.1979 108.262 92.9649C108.262 92.732 108.218 92.5284 108.131 92.3541C108.044 92.1799 107.905 92.0454 107.714 91.9507C107.522 91.8541 107.269 91.8058 106.955 91.8058H105.716V96.999H105.012ZM107.751 94.3854L109.182 96.999H108.364L106.955 94.3854H107.751ZM109.811 91.8058V91.1808H114.175V91.8058H112.345V96.999H111.64V91.8058H109.811Z" fill="black"/>
<path d="M5.79026 52.3484C5.79026 53.7528 6.1888 54.5025 6.98588 54.5973C6.92894 54.863 6.7107 54.9959 6.33113 54.9959C5.55303 54.9959 5.00266 54.5214 4.68004 53.5725C4.52821 53.136 4.4523 52.6046 4.4523 51.9784C4.4523 51.3331 4.69901 50.5645 5.19245 49.6725C6.31215 47.6039 8.34282 46.2754 11.2844 45.6871C12.2903 45.4973 13.3625 45.4024 14.5012 45.4024C15.6589 45.4024 16.6457 45.2886 17.4618 45.0608C18.2779 44.8331 18.8377 44.5769 19.1414 44.2922C19.9385 43.5521 20.5268 43.182 20.9063 43.182C21.2859 43.182 21.4757 43.2959 21.4757 43.5236C21.4757 43.5805 21.4757 43.6375 21.4757 43.6944C21.3428 44.2258 20.7735 44.7287 19.7677 45.2032C19.1604 45.4689 18.4771 45.6776 17.718 45.8295C17.0917 46.0951 16.5698 46.8258 16.1523 48.0214C15.7348 49.1981 15.2983 50.9061 14.8428 53.1455C15.8297 53.0506 16.6457 53.0032 17.291 53.0032C17.4618 53.0032 17.5377 53.1076 17.5187 53.3163C17.4428 53.5441 17.2436 53.6674 16.9209 53.6864C16.5983 53.6864 15.8487 53.7813 14.672 53.9711C13.78 58.374 13.0019 61.4864 12.3377 63.3083C10.6676 67.92 8.28588 70.2258 5.19245 70.2258C2.972 70.2258 1.5866 69.2105 1.03623 67.1798C0.827475 66.4777 0.723095 65.7755 0.723095 65.0733C0.723095 63.7448 1.07419 62.4163 1.77638 61.0879C2.83916 59.0572 4.23405 58.0419 5.96106 58.0419C6.20778 58.0419 6.40705 58.0988 6.55887 58.2127C6.72967 58.3266 6.84354 58.4974 6.90048 58.7251C5.26836 58.7251 3.92091 59.5696 2.85813 61.2587C2.0231 62.5682 1.60558 63.9251 1.60558 65.3295C1.60558 67.3791 2.32675 68.6317 3.76909 69.0872C4.11069 69.182 4.55668 69.2295 5.10704 69.2295C5.65741 69.2295 6.23624 69.0682 6.84354 68.7455C7.46982 68.4419 8.02968 67.8726 8.52311 67.0375C9.03552 66.2215 9.45304 65.5382 9.77566 64.9879C10.0983 64.4185 10.4684 63.4127 10.8859 61.9704C11.3793 60.2054 11.7968 58.5733 12.1384 57.074C12.48 55.5557 12.6888 54.6448 12.7647 54.3411C11.7019 54.5119 10.8954 54.5973 10.345 54.5973C9.81362 54.5973 9.50997 54.3601 9.43406 53.8857C9.41508 53.5061 9.51946 53.2879 9.7472 53.2309C9.84209 53.3448 10.1362 53.4017 10.6297 53.4017C11.1421 53.4017 11.9392 53.3543 13.0209 53.2594C13.4954 51.3995 13.9509 49.8908 14.3873 48.7331C14.8238 47.5565 15.3363 46.6645 15.9246 46.0572C15.6209 46.0762 15.1465 46.0857 14.5012 46.0857C10.8574 46.0857 8.30486 47.1579 6.84354 49.3024C6.14135 50.3083 5.79026 51.3236 5.79026 52.3484ZM18.3158 58.1842C18.3158 58.2791 18.2304 58.3266 18.0596 58.3266C17.8888 58.3266 17.718 58.2886 17.5472 58.2127C17.3954 58.1368 17.3195 58.0324 17.3195 57.8995C17.3195 55.9638 17.5377 54.4076 17.9742 53.2309C18.4107 52.0353 18.9895 51.4375 19.7107 51.4375C19.9005 51.4375 20.0618 51.5039 20.1947 51.6368C20.3275 51.7696 20.3939 51.9499 20.3939 52.1776C19.5399 53.0317 18.9231 54.3032 18.5436 55.9922C18.3917 56.6944 18.3158 57.4251 18.3158 58.1842ZM24.3205 71.0799C23.2197 71.0799 22.4037 70.501 21.8723 69.3434C21.3599 68.1857 21.1037 66.4492 21.1037 64.1339C21.1037 61.8185 21.4453 59.0762 22.1285 55.9068C22.8117 52.7375 23.6088 50.109 24.5197 48.0214C25.4497 45.9338 26.2562 44.89 26.9394 44.89C27.2621 44.89 27.4234 45.0798 27.4234 45.4594C27.0248 46.3703 26.5219 47.7462 25.9146 49.5871C25.3073 51.409 24.7949 53.0981 24.3774 54.6543C23.9789 56.2105 23.6088 58.0324 23.2672 60.12C22.9445 62.2076 22.7832 64.001 22.7832 65.5003C22.7832 66.9806 22.9256 68.1193 23.2102 68.9163C23.5139 69.7324 23.9219 70.1404 24.4343 70.1404C24.8708 70.1404 25.2883 69.9317 25.6869 69.5142C26.0854 69.1156 26.3701 68.7171 26.5409 68.3185C26.6358 68.1098 26.8066 68.0528 27.0533 68.1477C27.1482 68.1857 27.1672 68.2616 27.1102 68.3755C27.0723 68.5083 26.9964 68.6696 26.8825 68.8594C26.7876 69.0492 26.6073 69.3434 26.3416 69.7419C25.7723 70.6339 25.0986 71.0799 24.3205 71.0799ZM31.1085 67.1798C28.7742 67.1798 27.607 65.5762 27.607 62.3689C27.607 60.566 28.0625 58.763 28.9735 56.9601C30.1311 54.6827 31.507 53.5441 33.1012 53.5441C33.3289 53.5441 33.5187 53.601 33.6705 53.7149C33.8224 53.8287 33.9267 53.9995 33.9837 54.2273C32.7881 54.2273 31.7538 55.1857 30.8808 57.1025C30.0078 59.0193 29.5713 60.9076 29.5713 62.7674C29.5713 65.0258 30.1881 66.155 31.4216 66.155C32.1238 66.155 32.8545 65.6236 33.6136 64.5609C34.3727 63.4791 34.999 62.0652 35.4924 60.3193C36.0049 58.5733 36.2611 56.8178 36.2611 55.0528V54.7112C35.6727 54.3317 35.1888 53.8572 34.8092 53.2879C34.4297 52.7185 34.2399 52.301 34.2399 52.0353C34.2399 51.7696 34.3538 51.5229 34.5815 51.2952C34.8282 51.0484 35.0749 50.9251 35.3216 50.9251C35.6822 50.9251 36.0333 51.2477 36.3749 51.893C36.7165 52.5382 36.9538 53.2689 37.0866 54.0849C37.6749 54.4835 38.1873 54.6827 38.6238 54.6827C39.0793 54.6827 39.4399 54.6068 39.7056 54.455C39.7056 54.7207 39.6107 54.9579 39.4209 55.1667C39.2311 55.3755 38.937 55.4798 38.5384 55.4798C38.1399 55.4798 37.6844 55.3849 37.172 55.1952C37.153 57.0171 36.8778 58.8484 36.3465 60.6893C35.8151 62.5302 35.0749 64.0769 34.126 65.3295C33.1771 66.5631 32.1713 67.1798 31.1085 67.1798ZM48.4051 58.7536C47.6839 58.7536 47.3233 57.966 47.3233 56.3908C47.3233 55.4988 47.4941 54.6638 47.8358 53.8857C46.5452 55.0054 45.1029 57.093 43.5087 60.1485C41.9146 63.185 41.1175 65.1682 41.1175 66.0981C41.1175 66.3258 40.9657 66.4397 40.662 66.4397C40.1117 66.4397 39.8365 65.6901 39.8365 64.1908C39.8365 61.3631 40.1211 58.801 40.6905 56.5047C41.2598 54.2083 41.9525 53.0601 42.7686 53.0601C43.1292 53.0601 43.3095 53.2689 43.3095 53.6864C42.4365 56.4572 41.8102 59.2944 41.4306 62.1981H41.6299C43.1671 58.6492 44.8657 55.8784 46.7255 53.8857C47.7883 52.747 48.7562 52.1776 49.6292 52.1776C49.819 52.1776 49.9708 52.2346 50.0847 52.3484C50.2175 52.4623 50.2839 52.6046 50.2839 52.7754C50.1511 52.9083 49.9898 53.1076 49.8 53.3733C49.6102 53.639 49.354 54.2747 49.0314 55.2806C48.7087 56.2674 48.5474 57.3492 48.5474 58.5258C48.5474 58.6776 48.5 58.7536 48.4051 58.7536ZM52.6553 66.9236C51.0991 66.9236 50.321 65.6996 50.321 63.2514C50.321 61.7901 50.6815 60.1864 51.4027 58.4404C52.4086 55.9922 53.7275 54.3222 55.3597 53.4302C56.0618 53.0506 56.7166 52.8608 57.3239 52.8608C57.9312 52.8608 58.4056 52.9937 58.7473 53.2594C59.1078 53.5251 59.3356 53.7908 59.4305 54.0565L59.6013 54.4265C59.5443 54.7492 59.383 54.9105 59.1173 54.9105C58.8137 54.9105 58.6334 54.8441 58.5764 54.7112C58.5385 54.5594 58.491 54.436 58.4341 54.3411C58.3772 54.2273 58.2443 54.0849 58.0356 53.9141C57.8268 53.7244 57.5896 53.6295 57.3239 53.6295C56.0903 53.6295 54.9706 54.7397 53.9648 56.9601C52.8261 59.5222 52.2567 61.9324 52.2567 64.1908C52.2567 65.3295 52.4845 65.8988 52.9399 65.8988C53.3005 65.8988 53.8034 65.5003 54.4487 64.7032C55.1129 63.8871 55.8056 62.8718 56.5268 61.6572C57.7794 59.5696 58.7947 57.7572 59.5728 56.22C60.2181 54.8536 60.8823 54.1703 61.5655 54.1703C61.9261 54.1703 62.1064 54.3886 62.1064 54.8251C61.9356 55.1857 61.7173 55.6981 61.4516 56.3623C61.1859 57.0265 60.8348 58.3455 60.3983 60.3193C59.9619 62.293 59.7436 64.2572 59.7436 66.212C59.7436 68.1667 60.0378 69.1441 60.6261 69.1441C60.8538 69.1441 61.0626 69.0397 61.2524 68.8309C61.4421 68.6412 61.613 68.347 61.7648 67.9485C61.8217 67.7397 61.9546 67.6353 62.1633 67.6353C62.2392 67.6353 62.2962 67.6638 62.3341 67.7207C62.3721 67.7777 62.3721 67.8726 62.3341 68.0054C62.2962 68.1382 62.2297 68.3185 62.1348 68.5463C62.04 68.793 61.8312 69.1156 61.5086 69.5142C61.2049 69.9127 60.8823 70.112 60.5407 70.112C59.7436 70.112 59.1268 69.5901 58.6903 68.5463C58.2728 67.5025 58.064 66.2689 58.064 64.8455C58.064 63.4222 58.1684 62.0558 58.3772 60.7463H58.0925C55.6823 64.8645 53.8699 66.9236 52.6553 66.9236ZM68.0707 71.0799C66.97 71.0799 66.1539 70.501 65.6225 69.3434C65.1101 68.1857 64.8539 66.4492 64.8539 64.1339C64.8539 61.8185 65.1955 59.0762 65.8787 55.9068C66.5619 52.7375 67.359 50.109 68.27 48.0214C69.1999 45.9338 70.0065 44.89 70.6897 44.89C71.0123 44.89 71.1736 45.0798 71.1736 45.4594C70.7751 46.3703 70.2722 47.7462 69.6649 49.5871C69.0576 51.409 68.5452 53.0981 68.1276 54.6543C67.7291 56.2105 67.359 58.0324 67.0174 60.12C66.6948 62.2076 66.5335 64.001 66.5335 65.5003C66.5335 66.9806 66.6758 68.1193 66.9605 68.9163C67.2641 69.7324 67.6722 70.1404 68.1846 70.1404C68.6211 70.1404 69.0386 69.9317 69.4371 69.5142C69.8357 69.1156 70.1203 68.7171 70.2911 68.3185C70.386 68.1098 70.5568 68.0528 70.8036 68.1477C70.8984 68.1857 70.9174 68.2616 70.8605 68.3755C70.8225 68.5083 70.7466 68.6696 70.6328 68.8594C70.5379 69.0492 70.3576 69.3434 70.0919 69.7419C69.5225 70.6339 68.8488 71.0799 68.0707 71.0799Z" fill="#ADB5BD"/>
<path d="M93.1837 68.0908C93.1837 69.4952 93.9239 70.3397 95.4042 70.6244C95.6888 70.6813 96.0115 70.7098 96.372 70.7098C98.7443 70.7098 100.623 69.9412 102.009 68.4039C103.394 66.8857 104.087 64.9689 104.087 62.6536C104.087 61.7426 103.916 60.9076 103.574 60.1485C103.252 59.3703 102.844 58.7346 102.35 58.2411C101.857 57.7287 101.316 57.2163 100.728 56.7039C100.158 56.1915 99.6268 55.7265 99.1334 55.309C98.6399 54.8915 98.2224 54.3886 97.8808 53.8003C97.5582 53.2119 97.3969 52.5857 97.3969 51.9214C97.3969 50.1754 98.175 48.5718 99.7312 47.1105C101.306 45.6302 102.995 44.89 104.798 44.89C105.159 44.89 105.425 45.0229 105.595 45.2886C105.766 45.5543 105.852 45.82 105.852 46.0857L105.823 46.4557C105.69 46.3798 105.358 46.3419 104.827 46.3419C103.612 46.3419 102.436 46.9112 101.297 48.0499C100.158 49.1886 99.5888 50.5076 99.5888 52.0068C99.5888 52.6141 99.7501 53.2119 100.073 53.8003C100.414 54.3696 100.832 54.8725 101.325 55.309C101.819 55.7455 102.35 56.239 102.919 56.7893C103.489 57.3207 104.02 57.8521 104.514 58.3835C105.007 58.8959 105.415 59.5317 105.738 60.2908C106.079 61.0309 106.25 61.8185 106.25 62.6536C106.25 64.9499 105.301 66.9901 103.403 68.774C101.506 70.558 99.1618 71.4499 96.372 71.4499C94.0187 71.4499 92.529 70.6908 91.9027 69.1726C91.4093 67.92 91.599 66.5346 92.472 65.0163C93.345 63.4981 94.6071 62.4733 96.2582 61.9419C96.8655 61.7521 97.4063 61.6572 97.8808 61.6572C98.3553 61.6572 98.6779 61.7426 98.8487 61.9134C99.0385 62.0652 99.1618 62.312 99.2188 62.6536C97.4348 62.6536 95.9071 63.3747 94.6355 64.8171C93.6677 65.8988 93.1837 66.9901 93.1837 68.0908ZM106.392 52.3484C106.392 52.4433 106.298 52.4908 106.108 52.4908C105.937 52.4908 105.776 52.4528 105.624 52.3769C105.472 52.301 105.396 52.1966 105.396 52.0638C105.396 50.128 105.614 48.5718 106.051 47.3951C106.487 46.2185 107.066 45.6302 107.787 45.6302C107.977 45.6302 108.138 45.6966 108.271 45.8295C108.404 45.9623 108.471 46.1331 108.471 46.3419C107.617 47.1959 107 48.4769 106.62 50.1849C106.468 50.8681 106.392 51.5893 106.392 52.3484ZM110.635 54.5973C109.895 54.5973 109.525 54.2937 109.525 53.6864C109.525 53.4587 109.62 53.3163 109.809 53.2594C109.828 53.2404 109.857 53.2309 109.895 53.2309C110.009 53.3638 110.217 53.4302 110.521 53.4302C110.844 53.4302 111.347 53.4112 112.03 53.3733C112.922 50.963 113.776 49.7579 114.592 49.7579C114.914 49.7579 115.076 49.9382 115.076 50.2988C114.772 51.0579 114.431 52.0353 114.051 53.2309C115.93 53.0222 117.154 52.9178 117.723 52.9178C117.875 52.9178 117.951 52.9937 117.951 53.1455C117.951 53.4492 117.752 53.601 117.353 53.601C117.144 53.601 115.939 53.8003 113.738 54.1988C112.239 58.9433 111.489 62.7864 111.489 65.728C111.489 68.6696 112.077 70.1404 113.254 70.1404C113.728 70.1404 114.174 69.9317 114.592 69.5142C115.009 69.1156 115.304 68.7171 115.474 68.3185C115.55 68.1098 115.712 68.0528 115.958 68.1477C116.072 68.1857 116.11 68.2426 116.072 68.3185C115.958 68.5653 115.816 68.8499 115.645 69.1726C115.474 69.4952 115.142 69.8937 114.649 70.3682C114.155 70.8426 113.652 71.0799 113.14 71.0799C110.882 71.0799 109.752 69.1156 109.752 65.1871C109.752 61.866 110.369 58.3171 111.603 54.5404C111.337 54.5784 111.014 54.5973 110.635 54.5973ZM127.183 69.0587C127.411 69.0587 127.62 68.9543 127.809 68.7455C128.018 68.5558 128.208 68.2521 128.379 67.8346C128.398 67.6638 128.512 67.5784 128.72 67.5784C128.929 67.5784 129.005 67.6638 128.948 67.8346C128.91 68.0054 128.834 68.2142 128.72 68.4609C128.625 68.7076 128.407 69.0302 128.066 69.4288C127.743 69.8463 127.411 70.055 127.069 70.055C126.31 70.055 125.722 69.5806 125.304 68.6317C124.868 67.6828 124.649 66.5156 124.649 65.1302C124.649 63.7258 124.754 62.2835 124.963 60.8032H124.706C122.41 64.8076 120.645 66.8098 119.412 66.8098C117.95 66.8098 117.22 65.6996 117.22 63.4791C117.22 61.2397 117.694 59.0098 118.643 56.7893C119.687 54.3411 120.607 53.1171 121.404 53.1171C121.746 53.1171 121.917 53.3258 121.917 53.7433C121.12 55.8499 120.436 57.8995 119.867 59.8922C119.298 61.885 119.013 63.3747 119.013 64.3616C119.013 65.3295 119.241 65.8134 119.696 65.8134C120.019 65.8134 120.493 65.4244 121.12 64.6463C121.765 63.8682 122.42 62.9193 123.084 61.7995C124.507 59.3893 125.589 57.3397 126.329 55.6506C127.088 53.9616 127.866 53.1171 128.663 53.1171C129.043 53.1171 129.233 53.3258 129.233 53.7433C128.018 56.1536 127.155 59.0287 126.642 62.3689C126.433 63.6974 126.329 64.9974 126.329 66.2689C126.329 68.1288 126.614 69.0587 127.183 69.0587ZM133.1 66.9236C131.506 66.9236 130.709 65.6996 130.709 63.2514C130.709 61.828 131.069 60.2623 131.791 58.5543C132.777 56.163 134.077 54.5404 135.691 53.6864C136.393 53.3068 137.029 53.1171 137.598 53.1171C138.167 53.1171 138.604 53.2214 138.907 53.4302C139.211 53.62 139.41 53.8192 139.505 54.028L139.648 54.3411C139.591 54.6638 139.42 54.8251 139.135 54.8251C138.85 54.8251 138.642 54.6733 138.509 54.3696C138.395 54.047 138.11 53.8857 137.655 53.8857C136.421 53.8857 135.321 54.9769 134.353 57.1594C133.233 59.6266 132.673 61.9609 132.673 64.1623C132.673 65.32 132.91 65.8988 133.385 65.8988C133.764 65.8988 134.315 65.4339 135.036 64.5039C135.776 63.555 136.535 62.4068 137.313 61.0594C138.376 59.1995 139.315 57.501 140.131 55.9638C140.815 53.0032 141.64 50.4222 142.608 48.2207C143.595 46.0003 144.411 44.89 145.056 44.89C145.379 44.89 145.54 45.0513 145.54 45.374C145.085 46.3608 144.544 47.7083 143.918 49.4163C143.31 51.1243 142.788 52.7565 142.352 54.3127C141.934 55.8499 141.545 57.6908 141.185 59.8353C140.843 61.9798 140.672 64.001 140.672 65.8988C140.672 68.7266 141.289 70.1404 142.523 70.1404C142.997 70.1404 143.434 69.9317 143.832 69.5142C144.25 69.1156 144.544 68.7171 144.715 68.3185C144.81 68.1098 144.98 68.0528 145.227 68.1477C145.322 68.1857 145.36 68.2426 145.341 68.3185C145.227 68.5653 145.085 68.8499 144.914 69.1726C144.743 69.4952 144.402 69.8937 143.889 70.3682C143.396 70.8426 142.893 71.0799 142.38 71.0799C140.122 71.0799 138.993 68.9543 138.993 64.7032C138.993 63.2039 139.126 61.6003 139.391 59.8922H139.021C136.345 64.5798 134.372 66.9236 133.1 66.9236ZM145.314 64.5039C145.314 61.6952 145.599 59.1901 146.168 56.9886C146.757 54.7871 147.497 53.6864 148.389 53.6864C148.825 53.6864 149.043 53.9236 149.043 54.3981C148.854 54.8915 148.616 55.5463 148.332 56.3623C148.047 57.1784 147.668 58.6587 147.193 60.8032C146.738 62.9287 146.51 64.8266 146.51 66.4966C146.51 66.7623 146.367 66.8952 146.083 66.8952C145.57 66.8952 145.314 66.0981 145.314 64.5039ZM149.129 51.0105C148.73 51.0105 148.531 50.6309 148.531 49.8718C148.531 49.4163 148.654 48.9419 148.901 48.4484C149.148 47.936 149.499 47.6798 149.954 47.6798C150.334 47.6798 150.524 47.8981 150.524 48.3346C150.524 48.7711 150.173 49.5017 149.47 50.5265L149.129 51.0105ZM154.296 67.1798C151.961 67.1798 150.794 65.5762 150.794 62.3689C150.794 60.566 151.25 58.763 152.161 56.9601C153.318 54.6827 154.694 53.5441 156.288 53.5441C156.516 53.5441 156.706 53.601 156.858 53.7149C157.01 53.8287 157.114 53.9995 157.171 54.2273C155.975 54.2273 154.941 55.1857 154.068 57.1025C153.195 59.0193 152.759 60.9076 152.759 62.7674C152.759 65.0258 153.375 66.155 154.609 66.155C155.311 66.155 156.042 65.6236 156.801 64.5609C157.56 63.4791 158.186 62.0652 158.68 60.3193C159.192 58.5733 159.448 56.8178 159.448 55.0528V54.7112C158.86 54.3317 158.376 53.8572 157.997 53.2879C157.617 52.7185 157.427 52.301 157.427 52.0353C157.427 51.7696 157.541 51.5229 157.769 51.2952C158.015 51.0484 158.262 50.9251 158.509 50.9251C158.87 50.9251 159.221 51.2477 159.562 51.893C159.904 52.5382 160.141 53.2689 160.274 54.0849C160.862 54.4835 161.375 54.6827 161.811 54.6827C162.267 54.6827 162.627 54.6068 162.893 54.455C162.893 54.7207 162.798 54.9579 162.608 55.1667C162.418 55.3755 162.124 55.4798 161.726 55.4798C161.327 55.4798 160.872 55.3849 160.359 55.1952C160.34 57.0171 160.065 58.8484 159.534 60.6893C159.002 62.5302 158.262 64.0769 157.313 65.3295C156.364 66.5631 155.359 67.1798 154.296 67.1798Z" fill="#ADB5BD"/>
<path d="M93.1148 29.6968C93.1148 29.6968 100.278 31.1319 100.494 29.0799C100.709 27.0279 91.6558 28.1908 93.1148 29.6968Z" fill="black"/>
<path d="M93.1218 29.1359C94.9848 29.0289 96.8418 28.9949 98.6958 29.0799C96.8448 29.1639 94.9998 29.3669 93.1778 29.6409C93.0388 29.6639 92.9078 29.5709 92.8848 29.4319C92.8618 29.2929 92.9548 29.1619 93.0938 29.1389C93.1018 29.1379 93.1148 29.1359 93.1218 29.1359Z" fill="#343A40"/>
<path d="M96.5749 24.9098C96.5749 24.9098 97.5538 17.4738 95.5468 17.3788C93.5388 17.2838 95.1949 26.4988 96.5749 24.9098Z" fill="black"/>
<path d="M96.0618 24.8188L95.8228 20.1118L96.5677 24.7658C96.5897 24.9048 96.4958 25.0348 96.3568 25.0568C96.2178 25.0788 96.0878 24.9848 96.0648 24.8458C96.0638 24.8368 96.0628 24.8278 96.0618 24.8188Z" fill="#343A40"/>
<path d="M89.9477 34.1278C89.9477 34.1278 90.9267 26.6918 88.9197 26.5968C86.9127 26.5008 88.5687 35.7168 89.9477 34.1278Z" fill="black"/>
<path d="M89.4118 34.3288L89.2278 29.7748L89.9178 34.2808C89.9388 34.4198 89.8438 34.5498 89.7048 34.5708C89.5658 34.5918 89.4358 34.4968 89.4148 34.3578C89.4128 34.3478 89.4118 34.3388 89.4118 34.3288Z" fill="#343A40"/>
<path d="M87.157 41.3999C87.157 41.3999 94.368 41.3688 94.199 39.4438C94.03 37.5189 85.465 40.2909 87.157 41.3999Z" fill="black"/>
<path d="M86.8919 40.8659L92.1709 39.9669L87.0009 41.3629C86.8649 41.3999 86.7259 41.3189 86.6889 41.1839C86.6519 41.0479 86.7329 40.9089 86.8679 40.8719C86.8759 40.8689 86.8839 40.8669 86.8919 40.8659Z" fill="#343A40"/>
<path d="M84.6838 49.1868C84.6838 49.1868 86.5528 32.5238 103.362 18.2418" stroke="black" stroke-width="0.5083" stroke-miterlimit="10"/>
<path d="M114.073 1.23782C112.817 1.87682 111.561 2.51582 110.304 3.15482C108.171 4.23982 105.727 5.14882 103.839 6.62782C100.157 9.51182 100.03 15.1978 103.424 18.3538C105.641 20.4148 109.055 20.7158 111.774 19.5468C114.873 18.2148 115.755 15.3978 116.901 12.4968C117.736 10.3858 118.546 8.26382 119.341 6.13682" stroke="black" stroke-width="0.3812" stroke-miterlimit="10"/>
<path d="M114.073 1.23784C113.505 1.84884 114.224 3.44084 115.679 4.79384C117.134 6.14684 118.774 6.74883 119.343 6.13683C119.911 5.52583 119.192 3.93384 117.737 2.58083C116.282 1.22883 114.642 0.626836 114.073 1.23784Z" stroke="black" stroke-width="0.3812" stroke-miterlimit="10"/>
<path d="M106.305 16.4758C106.305 16.4758 110.752 13.1928 109.459 11.6648C108.165 10.1368 104.526 14.8208 104.526 14.8208C104.526 14.8208 104.543 8.67283 102.722 8.78383C100.901 8.89483 101.083 14.1448 101.083 14.1448C101.083 14.1448 101.965 20.2318 108.743 20.3268C108.741 20.3278 116.569 19.6428 106.305 16.4758Z" stroke="black" stroke-width="0.3812" stroke-miterlimit="10" stroke-linecap="round" stroke-linejoin="round"/>
<path d="M116.35 5.35284C116.35 5.35284 115.86 13.6598 111.054 18.4438" stroke="black" stroke-width="0.3812" stroke-miterlimit="10" stroke-linecap="round" stroke-linejoin="round"/>
<path d="M115.039 4.12183C115.039 4.12183 108.473 4.88783 103.962 10.1898" stroke="black" stroke-width="0.3812" stroke-miterlimit="10" stroke-linecap="round" stroke-linejoin="round"/>
<path d="M115.679 4.79483L109.459 11.6648" stroke="black" stroke-width="0.3812" stroke-miterlimit="10" stroke-linecap="round" stroke-linejoin="round"/>
<path d="M76.4809 30.4048C76.4809 30.4048 69.3179 31.8398 69.1019 29.7878C68.8869 27.7358 77.9399 28.8988 76.4809 30.4048Z" fill="black"/>
<path d="M76.4169 30.3488C74.5949 30.0758 72.7499 29.8718 70.8989 29.7878C72.7529 29.7028 74.6109 29.7358 76.4729 29.8438C76.6129 29.8518 76.7199 29.9718 76.7119 30.1128C76.7039 30.2528 76.5839 30.3598 76.4429 30.3518C76.4359 30.3518 76.4239 30.3498 76.4169 30.3488Z" fill="#343A40"/>
<path d="M73.0207 25.6188C73.0207 25.6188 72.0417 18.1828 74.0487 18.0878C76.0557 17.9918 74.3997 27.2068 73.0207 25.6188Z" fill="black"/>
<path d="M73.0278 25.4739L73.7728 20.8199L73.5338 25.5279C73.5268 25.6679 73.4068 25.7759 73.2668 25.7689C73.1268 25.7619 73.0188 25.6419 73.0258 25.5019C73.0248 25.4919 73.0258 25.4829 73.0278 25.4739Z" fill="#343A40"/>
<path d="M79.6469 34.8358C79.6469 34.8358 78.6679 27.3998 80.6749 27.3048C82.6829 27.2098 81.0269 36.4248 79.6469 34.8358Z" fill="black"/>
<path d="M79.678 34.9888L80.368 30.4828L80.184 35.0378C80.178 35.1778 80.06 35.2878 79.919 35.2818C79.779 35.2758 79.669 35.1578 79.675 35.0168C79.676 35.0078 79.676 34.9978 79.678 34.9888Z" fill="#343A40"/>
<path d="M82.8208 42.2318C82.8208 42.2318 75.6098 42.2008 75.7788 40.2758C75.9468 38.3518 84.5128 41.1238 82.8208 42.2318Z" fill="black"/>
<path d="M82.9769 42.1948L77.8069 40.7988L83.0859 41.6978C83.2249 41.7218 83.3179 41.8528 83.2939 41.9918C83.2699 42.1308 83.1389 42.2238 83.0009 42.1998C82.9929 42.1988 82.9849 42.1968 82.9769 42.1948Z" fill="#343A40"/>
<path d="M84.6839 49.1868C84.6839 49.1868 83.0419 33.2318 66.2329 18.9508" stroke="black" stroke-width="0.5083" stroke-miterlimit="10" stroke-linecap="round" stroke-linejoin="round"/>
<path d="M49.3438 7.94585C49.9567 9.21485 50.5688 10.4848 51.1818 11.7538C52.2218 13.9088 53.0798 16.3718 54.5178 18.2908C57.3238 22.0328 63.0058 22.2788 66.2328 18.9508C68.3398 16.7778 68.7128 13.3708 67.6008 10.6268C66.3338 7.50085 63.5358 6.55985 60.6608 5.35285C58.5668 4.47385 56.4628 3.61985 54.3538 2.77985" stroke="black" stroke-width="0.3812" stroke-miterlimit="10"/>
<path d="M49.3438 7.94584C49.9428 8.52684 51.5498 7.84183 52.9338 6.41483C54.3168 4.98783 54.9528 3.36084 54.3538 2.77984C53.7548 2.19884 52.1478 2.88383 50.7648 4.31083C49.3808 5.73683 48.7448 7.36484 49.3438 7.94584Z" stroke="black" stroke-width="0.3812" stroke-miterlimit="10"/>
<path d="M64.4148 16.0318C64.4148 16.0318 61.2258 11.5168 59.6708 12.7778C58.1158 14.0388 62.7228 17.7758 62.7228 17.7758C62.7228 17.7758 56.5768 17.6298 56.6488 19.4528C56.7218 21.2758 61.9748 21.2048 61.9748 21.2048C61.9748 21.2048 68.0788 20.4498 68.3168 13.6768C68.3168 13.6768 67.7968 5.83683 64.4148 16.0318Z" stroke="black" stroke-width="0.3812" stroke-miterlimit="10" stroke-linecap="round" stroke-linejoin="round"/>
<path d="M53.5059 5.75482C53.5059 5.75482 61.8008 6.41982 66.4828 11.3238" stroke="black" stroke-width="0.3812" stroke-miterlimit="10" stroke-linecap="round" stroke-linejoin="round"/>
<path d="M52.2478 7.04083C52.2478 7.04083 52.8758 13.6218 58.0818 18.2428" stroke="black" stroke-width="0.3812" stroke-miterlimit="10" stroke-linecap="round" stroke-linejoin="round"/>
<path d="M52.9338 6.41483L59.6718 12.7778" stroke="black" stroke-width="0.3812" stroke-miterlimit="10" stroke-linecap="round" stroke-linejoin="round"/>
<path d="M84.9888 47.4578C84.9888 47.4578 82.3588 69.7928 86.5538 85.1898" stroke="black" stroke-width="0.5083" stroke-miterlimit="10"/>
</svg>
