<svg width="181" height="84" viewBox="0 0 181 84" fill="none" xmlns="http://www.w3.org/2000/svg">
<path d="M68.2395 73.4989L66.2509 66.2262H67.1458L68.6657 72.1495H68.7367L70.285 66.2262H71.2793L72.8276 72.1495H72.8986L74.4185 66.2262H75.3134L73.3248 73.4989H72.4157L70.8106 67.7035H70.7538L69.1486 73.4989H68.2395ZM76.4107 73.4989V66.2262H80.7999V67.0075H77.2914V69.4648H80.5726V70.2461H77.2914V72.7177H80.8567V73.4989H76.4107ZM84.6316 73.4989H82.3873V66.2262H84.731C85.4365 66.2262 86.0402 66.3718 86.5421 66.663C87.044 66.9518 87.4287 67.3673 87.6962 67.9094C87.9637 68.4492 88.0975 69.0955 88.0975 69.8484C88.0975 70.6059 87.9626 71.2582 87.6927 71.805C87.4228 72.3495 87.0298 72.7686 86.5137 73.0621C85.9976 73.3533 85.3702 73.4989 84.6316 73.4989ZM83.268 72.7177H84.5748C85.1761 72.7177 85.6744 72.6017 86.0698 72.3697C86.4652 72.1377 86.7599 71.8074 86.954 71.3789C87.1482 70.9504 87.2452 70.4402 87.2452 69.8484C87.2452 69.2612 87.1493 68.7558 86.9576 68.332C86.7658 67.9059 86.4794 67.5792 86.0982 67.3519C85.7171 67.1223 85.2424 67.0075 84.6742 67.0075H83.268V72.7177ZM91.8191 73.4989H89.5748V66.2262H91.9185C92.624 66.2262 93.2277 66.3718 93.7296 66.663C94.2315 66.9518 94.6162 67.3673 94.8837 67.9094C95.1512 68.4492 95.285 69.0955 95.285 69.8484C95.285 70.6059 95.1501 71.2582 94.8802 71.805C94.6103 72.3495 94.2173 72.7686 93.7012 73.0621C93.1851 73.3533 92.5577 73.4989 91.8191 73.4989ZM90.4555 72.7177H91.7623C92.3636 72.7177 92.8619 72.6017 93.2573 72.3697C93.6527 72.1377 93.9474 71.8074 94.1415 71.3789C94.3357 70.9504 94.4327 70.4402 94.4327 69.8484C94.4327 69.2612 94.3368 68.7558 94.1451 68.332C93.9533 67.9059 93.6669 67.5792 93.2857 67.3519C92.9046 67.1223 92.4299 67.0075 91.8617 67.0075H90.4555V72.7177ZM97.643 66.2262V73.4989H96.7623V66.2262H97.643ZM105.176 66.2262V73.4989H104.324L100.36 67.7887H100.289V73.4989H99.4088V66.2262H100.261L104.238 71.9506H104.309V66.2262H105.176ZM111.91 68.4989C111.832 68.2598 111.729 68.0456 111.601 67.8562C111.475 67.6644 111.325 67.5011 111.15 67.3661C110.977 67.2312 110.78 67.1282 110.56 67.0572C110.34 66.9861 110.099 66.9506 109.836 66.9506C109.405 66.9506 109.013 67.0619 108.66 67.2844C108.308 67.507 108.027 67.8349 107.819 68.2681C107.61 68.7013 107.506 69.2328 107.506 69.8626C107.506 70.4923 107.612 71.0238 107.822 71.457C108.033 71.8903 108.318 72.2182 108.678 72.4407C109.038 72.6632 109.443 72.7745 109.893 72.7745C110.309 72.7745 110.676 72.6857 110.993 72.5082C111.313 72.3282 111.562 72.0749 111.739 71.7482C111.919 71.4191 112.009 71.0321 112.009 70.587L112.279 70.6438H110.091V69.8626H112.861V70.6438C112.861 71.2428 112.734 71.7636 112.478 72.2063C112.225 72.649 111.874 72.9923 111.427 73.2361C110.982 73.4776 110.47 73.5984 109.893 73.5984C109.249 73.5984 108.683 73.4468 108.195 73.1438C107.71 72.8408 107.331 72.4099 107.059 71.8512C106.789 71.2925 106.654 70.6296 106.654 69.8626C106.654 69.2873 106.731 68.77 106.885 68.3107C107.041 67.8491 107.261 67.4561 107.545 67.1317C107.829 66.8074 108.166 66.5588 108.554 66.386C108.942 66.2132 109.369 66.1268 109.836 66.1268C110.219 66.1268 110.577 66.1848 110.908 66.3008C111.242 66.4144 111.539 66.5766 111.8 66.7873C112.062 66.9956 112.281 67.2454 112.457 67.5366C112.632 67.8254 112.752 68.1462 112.819 68.4989H111.91Z" fill="black"/>
<path d="M75.106 79.9989C75.106 80.6891 74.5461 81.2489 73.856 81.2489C73.1658 81.2489 72.606 80.6891 72.606 79.9989C72.606 79.3087 73.1658 78.7489 73.856 78.7489C74.5461 78.7489 75.106 79.3087 75.106 79.9989Z" fill="black"/>
<path d="M82.0207 79.2262C81.9952 79.0103 81.8915 78.8427 81.7097 78.7234C81.5278 78.604 81.3048 78.5444 81.0406 78.5444C80.8474 78.5444 80.6784 78.5756 80.5335 78.6381C80.39 78.7006 80.2778 78.7866 80.1969 78.8959C80.1173 79.0053 80.0775 79.1296 80.0775 79.2688C80.0775 79.3853 80.1052 79.4854 80.1606 79.5692C80.2175 79.6516 80.2899 79.7205 80.378 79.7759C80.466 79.8299 80.5584 79.8746 80.655 79.9102C80.7516 79.9442 80.8403 79.9719 80.9213 79.9932L81.3645 80.1126C81.4781 80.1424 81.6045 80.1836 81.7437 80.2361C81.8844 80.2887 82.0186 80.3604 82.1464 80.4513C82.2757 80.5408 82.3822 80.6559 82.466 80.7965C82.5498 80.9371 82.5918 81.1097 82.5918 81.3143C82.5918 81.5501 82.53 81.7631 82.4064 81.9535C82.2842 82.1438 82.1052 82.2951 81.8695 82.4073C81.6351 82.5195 81.3503 82.5756 81.015 82.5756C80.7025 82.5756 80.432 82.5252 80.2033 82.4244C79.976 82.3235 79.797 82.1829 79.6663 82.0025C79.5371 81.8221 79.4639 81.6126 79.4469 81.3739H79.9923C80.0065 81.5387 80.0619 81.6751 80.1585 81.783C80.2565 81.8896 80.3801 81.9691 80.5293 82.0217C80.6798 82.0728 80.8418 82.0984 81.015 82.0984C81.2168 82.0984 81.3979 82.0657 81.5584 82.0004C81.7189 81.9336 81.846 81.8413 81.9398 81.7234C82.0335 81.604 82.0804 81.4648 82.0804 81.3058C82.0804 81.1609 82.0399 81.043 81.9589 80.9521C81.878 80.8611 81.7714 80.7873 81.6393 80.7305C81.5072 80.6736 81.3645 80.6239 81.2111 80.5813L80.6741 80.4279C80.3332 80.3299 80.0633 80.19 79.8645 80.0082C79.6656 79.8263 79.5662 79.5884 79.5662 79.2944C79.5662 79.0501 79.6322 78.837 79.7643 78.6552C79.8979 78.4719 80.0768 78.3299 80.3013 78.229C80.5271 78.1268 80.7793 78.0756 81.0577 78.0756C81.3389 78.0756 81.5889 78.1261 81.8077 78.2269C82.0264 78.3263 82.1997 78.4627 82.3275 78.636C82.4568 78.8093 82.525 79.006 82.5321 79.2262H82.0207ZM83.2219 78.604V78.1353H86.4946V78.604H85.1225V82.4989H84.5941V78.604H83.2219ZM90.1738 78.1353H90.7022V81.0245C90.7022 81.3228 90.6319 81.5891 90.4913 81.8235C90.3521 82.0565 90.1553 82.2404 89.9011 82.3754C89.6468 82.5089 89.3485 82.5756 89.0062 82.5756C88.6638 82.5756 88.3655 82.5089 88.1113 82.3754C87.857 82.2404 87.6596 82.0565 87.519 81.8235C87.3797 81.5891 87.3101 81.3228 87.3101 81.0245V78.1353H87.8386V80.9819C87.8386 81.195 87.8854 81.3846 87.9792 81.5508C88.0729 81.7156 88.2065 81.8455 88.3797 81.9407C88.5545 82.0344 88.7633 82.0813 89.0062 82.0813C89.2491 82.0813 89.4579 82.0344 89.6326 81.9407C89.8073 81.8455 89.9408 81.7156 90.0332 81.5508C90.1269 81.3846 90.1738 81.195 90.1738 80.9819V78.1353ZM93.104 82.4989H91.7574V78.1353H93.1637C93.587 78.1353 93.9492 78.2227 94.2503 78.3974C94.5514 78.5707 94.7823 78.82 94.9428 79.1452C95.1033 79.4691 95.1835 79.8569 95.1835 80.3086C95.1835 80.7631 95.1026 81.1545 94.9407 81.4826C94.7787 81.8093 94.5429 82.0607 94.2333 82.2369C93.9236 82.4116 93.5472 82.4989 93.104 82.4989ZM92.2858 82.0302H93.0699C93.4307 82.0302 93.7297 81.9606 93.9669 81.8214C94.2041 81.6822 94.381 81.484 94.4975 81.2269C94.6139 80.9698 94.6722 80.6637 94.6722 80.3086C94.6722 79.9563 94.6147 79.6531 94.4996 79.3988C94.3845 79.1431 94.2127 78.9471 93.984 78.8107C93.7553 78.6729 93.4705 78.604 93.1296 78.604H92.2858V82.0302ZM96.5983 78.1353V82.4989H96.0699V78.1353H96.5983ZM101.34 80.3171C101.34 80.7773 101.257 81.1751 101.09 81.5103C100.924 81.8455 100.696 82.104 100.406 82.2859C100.117 82.4677 99.7856 82.5586 99.4135 82.5586C99.0413 82.5586 98.7104 82.4677 98.4206 82.2859C98.1308 82.104 97.9028 81.8455 97.7366 81.5103C97.5704 81.1751 97.4873 80.7773 97.4873 80.3171C97.4873 79.8569 97.5704 79.4592 97.7366 79.1239C97.9028 78.7887 98.1308 78.5302 98.4206 78.3484C98.7104 78.1665 99.0413 78.0756 99.4135 78.0756C99.7856 78.0756 100.117 78.1665 100.406 78.3484C100.696 78.5302 100.924 78.7887 101.09 79.1239C101.257 79.4592 101.34 79.8569 101.34 80.3171ZM100.828 80.3171C100.828 79.9393 100.765 79.6204 100.639 79.3604C100.514 79.1005 100.344 78.9038 100.129 78.7702C99.9163 78.6367 99.6777 78.57 99.4135 78.57C99.1493 78.57 98.9099 78.6367 98.6954 78.7702C98.4824 78.9038 98.3126 79.1005 98.1862 79.3604C98.0612 79.6204 97.9987 79.9393 97.9987 80.3171C97.9987 80.695 98.0612 81.0138 98.1862 81.2738C98.3126 81.5337 98.4824 81.7305 98.6954 81.864C98.9099 81.9975 99.1493 82.0643 99.4135 82.0643C99.6777 82.0643 99.9163 81.9975 100.129 81.864C100.344 81.7305 100.514 81.5337 100.639 81.2738C100.765 81.0138 100.828 80.695 100.828 80.3171Z" fill="black"/>
<path d="M108.606 79.9989C108.606 80.6891 108.046 81.2489 107.356 81.2489C106.666 81.2489 106.106 80.6891 106.106 79.9989C106.106 79.3087 106.666 78.7489 107.356 78.7489C108.046 78.7489 108.606 79.3087 108.606 79.9989Z" fill="black"/>
<path d="M61.6767 44.7947C60.4547 44.2017 59.5557 43.5446 58.9817 42.8226C58.4077 42.0996 58.0557 41.3326 57.9267 40.5166C57.7977 39.7026 57.8437 38.8597 58.0657 37.9887C58.2877 37.1187 58.6217 36.2476 59.0657 35.3776C59.5107 34.5076 60.0187 33.6467 60.5937 32.7936C61.1677 31.9426 61.7137 31.1456 62.2327 30.4046C62.2697 29.9606 62.3527 29.2197 62.4827 28.1827C62.6117 27.1457 62.7967 25.9696 63.0387 24.6546C63.2787 23.3406 63.5847 21.9696 63.9547 20.5436C64.3247 19.1186 64.7787 17.7846 65.3167 16.5436C65.8527 15.3026 66.4837 14.2386 67.2057 13.3486C67.9287 12.4596 68.7697 11.9037 69.7337 11.6827C70.3627 11.4977 70.9737 11.5716 71.5667 11.9046C72.1587 12.2386 72.5297 12.7756 72.6777 13.5156C72.7887 14.1086 72.6407 14.8957 72.2327 15.8767C71.8247 16.8587 71.2787 17.9417 70.5937 19.1267C69.9077 20.3127 69.1217 21.5526 68.2327 22.8486C67.3437 24.1456 66.4737 25.4047 65.6217 26.6267C65.5107 27.5907 65.3717 28.8486 65.2047 30.4046C65.0387 31.9606 64.9177 33.6087 64.8437 35.3496C64.7687 37.0906 64.7967 38.8496 64.9267 40.6276C65.0557 42.4056 65.3437 44.0066 65.7877 45.4336C66.2317 46.8586 66.8987 48.0076 67.7877 48.8776C68.6767 49.7476 69.8437 50.1456 71.2877 50.0726C73.0657 49.9976 74.5377 49.5256 75.7047 48.6556C76.8717 47.7846 77.8247 46.6457 78.5657 45.2387C78.3067 44.4607 78.0657 43.2296 77.8437 41.5436C77.6217 39.8586 77.4547 37.9697 77.3437 35.8767C77.2327 33.7847 77.2137 31.5987 77.2887 29.3207C77.3627 27.0427 77.5667 24.8947 77.8997 22.8757C78.2327 20.8577 78.7137 19.0887 79.3447 17.5697C79.9737 16.0517 80.8257 15.0137 81.9007 14.4587C81.9367 14.4967 82.0207 14.5236 82.1507 14.5416C82.2797 14.5606 82.4187 14.5977 82.5677 14.6527C82.7157 14.7087 82.8537 14.7637 82.9847 14.8197C83.1137 14.8747 83.1787 14.9587 83.1787 15.0697C83.2157 15.1807 83.1417 15.7736 82.9567 16.8476C82.7707 17.9216 82.5577 19.3016 82.3177 20.9866C82.0757 22.6716 81.8457 24.5797 81.6227 26.7087C81.4007 28.8387 81.2427 31.0146 81.1507 33.2366C81.0577 35.4586 81.0677 37.6537 81.1777 39.8197C81.2887 41.9867 81.5857 43.9586 82.0667 45.7366C82.5477 47.5146 83.2337 49.0146 84.1227 50.2366C85.0117 51.4586 86.1777 52.2177 87.6227 52.5147C88.5477 52.6997 89.4187 52.4126 90.2337 51.6536C91.0477 50.8946 91.8077 49.8006 92.5117 48.3756C93.2147 46.9496 93.8727 45.2736 94.4837 43.3476C95.0947 41.4216 95.6417 39.3947 96.1227 37.2637C96.6037 35.1347 97.0297 32.9867 97.4007 30.8197C97.7707 28.6527 98.0677 26.6167 98.2897 24.7087C98.5117 22.8007 98.6697 21.0976 98.7617 19.5976C98.8537 18.0976 98.8817 16.9586 98.8447 16.1806C97.4737 16.7736 96.3807 16.9956 95.5667 16.8476C94.7517 16.6996 94.1307 16.3567 93.7057 15.8197C93.2797 15.2827 93.0477 14.6167 93.0117 13.8197C92.9737 13.0237 93.0677 12.2636 93.2897 11.5416C93.5117 10.8196 93.8457 10.2087 94.2897 9.70765C94.7347 9.20765 95.2347 8.99564 95.7897 9.06864C96.8257 9.17964 97.6317 9.80064 98.2067 10.9296C98.7807 12.0596 99.1787 13.5317 99.4017 15.3467C100.254 14.9397 101.226 14.3466 102.319 13.5686C103.411 12.7906 104.643 11.7906 106.013 10.5686C106.161 10.4206 106.291 10.4396 106.402 10.6246C106.513 10.7726 106.513 10.9027 106.402 11.0137C104.994 12.2737 103.708 13.3006 102.541 14.0976C101.374 14.8946 100.346 15.5147 99.4567 15.9587C99.5307 17.0697 99.4847 18.7456 99.3177 20.9866C99.1517 23.2276 98.8547 25.7187 98.4287 28.4587C98.0027 31.2007 97.4567 34.0146 96.7897 36.9036C96.1227 39.7926 95.3357 42.4317 94.4287 44.8207C93.5207 47.2097 92.5027 49.1816 91.3737 50.7376C90.2437 52.2926 89.0127 53.0897 87.6787 53.1267C85.4567 53.2007 83.6317 52.5796 82.2067 51.2656C80.7797 49.9506 79.6417 48.1636 78.7897 45.9046C77.9367 47.2006 76.8917 48.2846 75.6507 49.1546C74.4097 50.0246 72.9367 50.4226 71.2337 50.3496C69.3807 50.3116 67.8537 49.9886 66.6497 49.3776C65.4457 48.7666 64.4917 47.9697 63.7887 46.9887C63.0847 46.0067 62.5847 44.8866 62.2887 43.6276C61.9917 42.3686 61.8157 41.0446 61.7607 39.6556C61.7047 38.2666 61.7327 36.8876 61.8437 35.5166C61.9547 34.1466 62.0467 32.8496 62.1217 31.6276C61.3807 32.6276 60.6677 33.7027 59.9827 34.8496C59.2967 35.9977 58.8347 37.1467 58.5937 38.2947C58.3517 39.4427 58.4547 40.5267 58.8997 41.5447C59.3437 42.5637 60.3437 43.4616 61.8997 44.2396C62.0847 44.3136 62.1407 44.4426 62.0667 44.6286C61.9907 44.8126 61.8617 44.8677 61.6767 44.7947ZM65.7327 25.4056C66.5467 24.2576 67.3527 23.0906 68.1487 21.9046C68.9447 20.7196 69.6487 19.5996 70.2597 18.5436C70.8707 17.4876 71.3427 16.5256 71.6767 15.6546C72.0097 14.7846 72.1397 14.0906 72.0657 13.5716C71.9907 13.0536 71.7407 12.6556 71.3157 12.3776C70.8897 12.0996 70.4347 12.0537 69.9537 12.2387C69.3237 12.4607 68.7597 13.1646 68.2597 14.3496C67.7597 15.5356 67.3337 16.8497 66.9817 18.2947C66.6297 19.7387 66.3517 21.1466 66.1487 22.5166C65.9447 23.8866 65.8057 24.8496 65.7327 25.4056ZM98.8447 15.6267C98.6587 13.8867 98.3257 12.4786 97.8447 11.4046C97.3627 10.3306 96.6777 9.75666 95.7887 9.68266C95.3807 9.64566 95.0017 9.84063 94.6497 10.2656C94.2977 10.6916 94.0287 11.2096 93.8447 11.8216C93.6587 12.4326 93.5847 13.0806 93.6227 13.7656C93.6587 14.4516 93.8537 15.0257 94.2057 15.4876C94.5577 15.9516 95.1127 16.2297 95.8727 16.3207C96.6307 16.4137 97.6217 16.1827 98.8447 15.6267Z" fill="black"/>
<path d="M102.011 55.0726C101.752 53.9246 101.613 52.7846 101.594 51.6556C101.575 50.5256 101.658 49.3857 101.844 48.2387C101.14 46.9057 100.658 45.4606 100.4 43.9056C100.141 42.3506 100.113 40.8776 100.317 39.4886C100.52 38.0996 100.964 36.9056 101.65 35.9056C102.335 34.9056 103.27 34.3316 104.456 34.1836C104.641 34.1836 104.734 34.2766 104.734 34.4616C104.734 34.6836 104.641 34.7946 104.456 34.7946C103.456 34.9056 102.669 35.3876 102.095 36.2396C101.52 37.0926 101.131 38.1286 100.928 39.3506C100.724 40.5726 100.714 41.8876 100.901 43.2956C101.086 44.7026 101.456 46.0186 102.012 47.2406C102.382 45.3516 102.947 43.4626 103.707 41.5736C104.466 39.6846 105.327 37.8426 106.29 36.0456C107.253 34.2496 108.271 32.4896 109.346 30.7676C110.42 29.0456 111.457 27.4066 112.457 25.8506C111.79 24.5546 111.364 23.0086 111.179 21.2116C110.993 19.4156 111.086 17.6936 111.457 16.0446C111.827 14.3966 112.476 12.9616 113.402 11.7396C114.328 10.5176 115.55 9.83263 117.069 9.68363C118.291 9.57263 119.115 9.80463 119.541 10.3776C119.966 10.9516 120.115 11.7207 119.986 12.6827C119.855 13.6467 119.532 14.7206 119.014 15.9046C118.495 17.0906 117.93 18.2386 117.319 19.3496C116.708 20.4606 116.115 21.4606 115.541 22.3496C114.966 23.2386 114.569 23.8497 114.346 24.1827C115.235 25.5167 115.994 27.1746 116.624 29.1556C117.253 31.1376 117.68 33.2116 117.902 35.3786C118.124 37.5456 118.124 39.7037 117.902 41.8507C117.68 43.9986 117.18 45.8967 116.402 47.5447C115.624 49.1926 114.522 50.4896 113.096 51.4336C111.669 52.3776 109.864 52.7576 107.679 52.5726C106.493 52.4616 105.465 52.0816 104.596 51.4336C103.725 50.7846 102.975 49.9796 102.346 49.0166C102.049 51.0526 102.124 53.0166 102.568 54.9056C102.568 55.1276 102.493 55.2387 102.346 55.2387C102.122 55.3137 102.011 55.2576 102.011 55.0726ZM102.455 48.1276C103.047 49.1646 103.779 50.0347 104.649 50.7387C105.519 51.4417 106.547 51.8496 107.732 51.9606C109.695 52.1826 111.26 51.8397 112.427 50.9327C113.594 50.0247 114.445 48.8026 114.983 47.2656C115.519 45.7286 115.816 43.9786 115.872 42.0156C115.928 40.0526 115.817 38.0986 115.539 36.1546C115.261 34.2106 114.872 32.3856 114.372 30.6816C113.872 28.9786 113.363 27.6077 112.844 26.5707C111.733 28.2747 110.622 30.0156 109.511 31.7926C108.4 33.5706 107.372 35.3676 106.427 37.1816C105.483 38.9966 104.658 40.8206 103.955 42.6536C103.251 44.4886 102.752 46.3126 102.455 48.1276ZM113.956 23.5716C114.215 23.1646 114.613 22.5256 115.151 21.6546C115.687 20.7846 116.253 19.8216 116.845 18.7656C117.437 17.7096 117.975 16.6366 118.456 15.5436C118.937 14.4516 119.261 13.4797 119.428 12.6267C119.594 11.7747 119.512 11.1176 119.178 10.6546C118.845 10.1916 118.159 10.0716 117.123 10.2936C116.234 10.4796 115.447 11.0526 114.762 12.0156C114.076 12.9796 113.576 14.1177 113.262 15.4327C112.947 16.7477 112.826 18.1366 112.901 19.5996C112.974 21.0626 113.325 22.3866 113.956 23.5716Z" fill="black"/>
<path d="M158.751 16.8786C158.751 16.8786 140.039 16.8786 137.12 36.6346C134.237 56.1556 121.326 59.2156 121.326 59.2156" stroke="black" stroke-width="0.4321" stroke-miterlimit="10"/>
<path d="M155.604 24.3857C153.677 20.9267 154.919 16.5596 158.378 14.6326C161.837 12.7056 166.204 13.9477 168.131 17.4067C170.058 20.8657 168.816 25.2326 165.357 27.1596C161.898 29.0866 157.531 27.8447 155.604 24.3857Z" fill="#ADB5BD" stroke="black" stroke-width="0.4248" stroke-miterlimit="10"/>
<path d="M144.315 18.8526C142.388 15.3936 143.63 11.0267 147.089 9.09965C150.548 7.17265 154.915 8.41464 156.842 11.8736C158.769 15.3326 157.527 19.6997 154.067 21.6267C150.608 23.5537 146.242 22.3116 144.315 18.8526Z" fill="#ADB5BD" stroke="black" stroke-width="0.4248" stroke-miterlimit="10"/>
<path d="M155.071 12.8606C153.144 9.40164 154.386 5.03465 157.845 3.10765C161.304 1.18065 165.671 2.42263 167.598 5.88163C169.525 9.34063 168.283 13.7077 164.824 15.6347C161.365 17.5617 156.998 16.3196 155.071 12.8606Z" fill="#ADB5BD" stroke="black" stroke-width="0.4248" stroke-miterlimit="10"/>
<path d="M156.313 22.5286C154.863 19.9246 155.797 16.6386 158.401 15.1886C161.005 13.7386 164.291 14.6736 165.741 17.2766C167.191 19.8796 166.257 23.1666 163.653 24.6166C161.05 26.0666 157.763 25.1316 156.313 22.5286Z" fill="#ADB5BD" stroke="black" stroke-width="0.4248" stroke-miterlimit="10"/>
<path d="M147.816 18.3636C146.366 15.7596 147.301 12.4736 149.904 11.0236C152.508 9.57364 155.794 10.5076 157.244 13.1116C158.694 15.7156 157.76 19.0016 155.156 20.4516C152.553 21.9026 149.267 20.9676 147.816 18.3636Z" fill="#ADB5BD" stroke="black" stroke-width="0.4248" stroke-miterlimit="10"/>
<path d="M155.912 13.8546C154.462 11.2516 155.397 7.96465 158 6.51465C160.604 5.06465 163.89 5.99963 165.34 8.60263C166.79 11.2056 165.855 14.4926 163.252 15.9426C160.649 17.3926 157.362 16.4576 155.912 13.8546Z" fill="#ADB5BD" stroke="black" stroke-width="0.4248" stroke-miterlimit="10"/>
<path d="M155.52 17.9306C154.549 15.8776 155.427 13.4266 157.48 12.4556C159.533 11.4846 161.984 12.3627 162.955 14.4157C163.926 16.4687 163.048 18.9196 160.995 19.8906C158.941 20.8606 156.49 19.9836 155.52 17.9306Z" fill="#ADB5BD" stroke="black" stroke-width="0.4248" stroke-miterlimit="10"/>
<path d="M158.541 14.5057C158.541 14.6457 158.428 14.7586 158.288 14.7586C158.148 14.7586 158.035 14.6457 158.035 14.5057C158.035 14.3657 158.148 14.2526 158.288 14.2526C158.428 14.2516 158.541 14.3657 158.541 14.5057Z" fill="black"/>
<path d="M161.84 14.2516C161.84 14.3916 161.727 14.5046 161.587 14.5046C161.447 14.5046 161.334 14.3916 161.334 14.2516C161.334 14.1116 161.447 13.9986 161.587 13.9986C161.727 13.9986 161.84 14.1126 161.84 14.2516Z" fill="black"/>
<path d="M162.094 17.2186C162.094 17.3586 161.981 17.4716 161.841 17.4716C161.701 17.4716 161.588 17.3586 161.588 17.2186C161.588 17.0786 161.701 16.9656 161.841 16.9656C161.981 16.9656 162.094 17.0786 162.094 17.2186Z" fill="black"/>
<path d="M159.974 16.2056C159.974 16.3456 159.861 16.4586 159.721 16.4586C159.581 16.4586 159.468 16.3456 159.468 16.2056C159.468 16.0656 159.581 15.9526 159.721 15.9526C159.861 15.9526 159.974 16.0656 159.974 16.2056Z" fill="black"/>
<path d="M156.723 15.7376C156.723 15.8776 156.61 15.9906 156.47 15.9906C156.33 15.9906 156.217 15.8776 156.217 15.7376C156.217 15.5976 156.33 15.4846 156.47 15.4846C156.61 15.4846 156.723 15.5986 156.723 15.7376Z" fill="black"/>
<path d="M158.003 18.6796C158.003 18.8196 157.89 18.9326 157.75 18.9326C157.61 18.9326 157.497 18.8196 157.497 18.6796C157.497 18.5396 157.61 18.4266 157.75 18.4266C157.89 18.4266 158.003 18.5396 158.003 18.6796Z" fill="black"/>
<path d="M159.974 19.1856C160.113 19.1856 160.227 19.0724 160.227 18.9326C160.227 18.7929 160.113 18.6796 159.974 18.6796C159.834 18.6796 159.721 18.7929 159.721 18.9326C159.721 19.0724 159.834 19.1856 159.974 19.1856Z" fill="black"/>
<path d="M138.445 31.3826C138.445 31.3826 143.221 34.4676 151.277 26.3666C151.277 26.3666 142.641 24.5666 138.445 31.3826Z" stroke="black" stroke-width="0.4321" stroke-miterlimit="10"/>
<path d="M138.445 31.3826L151.277 26.3666" stroke="black" stroke-width="0.4321" stroke-miterlimit="10"/>
<path d="M135.844 42.5166C135.844 42.5166 130.629 40.2506 132.909 29.0556C132.909 29.0556 139.194 35.2466 135.844 42.5166Z" stroke="black" stroke-width="0.4321" stroke-miterlimit="10"/>
<path d="M135.844 42.5166L132.91 29.0556" stroke="black" stroke-width="0.4321" stroke-miterlimit="10"/>
<path d="M131.605 51.2177C131.605 51.2177 136.381 54.3036 144.437 46.2016C144.437 46.2016 135.801 44.4007 131.605 51.2177Z" stroke="black" stroke-width="0.4321" stroke-miterlimit="10"/>
<path d="M131.605 51.2177L144.437 46.2016" stroke="black" stroke-width="0.4321" stroke-miterlimit="10"/>
<path d="M127.272 55.9776C127.272 55.9776 122.057 53.7116 124.337 42.5166C124.337 42.5166 130.621 48.7076 127.272 55.9776Z" stroke="black" stroke-width="0.4321" stroke-miterlimit="10"/>
<path d="M127.272 55.9776L124.337 42.5166" stroke="black" stroke-width="0.4321" stroke-miterlimit="10"/>
<path d="M134.584 45.9856C134.584 45.9856 155.839 36.1527 173.479 48.7087" stroke="black" stroke-width="0.4321" stroke-miterlimit="10"/>
<path d="M169.845 53.5827C168.388 50.9677 169.327 47.6666 171.942 46.2106C174.557 44.7536 177.858 45.6927 179.314 48.3077C180.771 50.9227 179.832 54.2236 177.217 55.6796C174.602 57.1366 171.302 56.1977 169.845 53.5827Z" fill="#ADB5BD" stroke="black" stroke-width="0.3211" stroke-miterlimit="10"/>
<path d="M161.311 49.3996C159.854 46.7846 160.793 43.4836 163.408 42.0276C166.023 40.5706 169.324 41.5096 170.78 44.1246C172.237 46.7396 171.298 50.0406 168.683 51.4966C166.068 52.9536 162.767 52.0146 161.311 49.3996Z" fill="#ADB5BD" stroke="black" stroke-width="0.3211" stroke-miterlimit="10"/>
<path d="M169.442 44.8706C167.985 42.2556 168.924 38.9546 171.539 37.4986C174.154 36.0416 177.455 36.9807 178.911 39.5957C180.368 42.2107 179.429 45.5117 176.814 46.9677C174.199 48.4247 170.898 47.4856 169.442 44.8706Z" fill="#ADB5BD" stroke="black" stroke-width="0.3211" stroke-miterlimit="10"/>
<path d="M170.381 52.1786C169.285 50.2106 169.991 47.7266 171.959 46.6306C173.927 45.5346 176.411 46.2406 177.507 48.2086C178.603 50.1766 177.897 52.6606 175.929 53.7566C173.961 54.8536 171.477 54.1466 170.381 52.1786Z" fill="#ADB5BD" stroke="black" stroke-width="0.3211" stroke-miterlimit="10"/>
<path d="M163.958 49.0306C162.862 47.0626 163.568 44.5786 165.536 43.4826C167.504 42.3866 169.988 43.0926 171.085 45.0606C172.181 47.0286 171.475 49.5126 169.507 50.6086C167.538 51.7056 165.054 50.9986 163.958 49.0306Z" fill="#ADB5BD" stroke="black" stroke-width="0.3211" stroke-miterlimit="10"/>
<path d="M170.077 45.6216C168.981 43.6536 169.687 41.1696 171.655 40.0736C173.623 38.9776 176.107 39.6836 177.203 41.6516C178.299 43.6196 177.593 46.1036 175.625 47.1996C173.658 48.2966 171.174 47.5896 170.077 45.6216Z" fill="#ADB5BD" stroke="black" stroke-width="0.3211" stroke-miterlimit="10"/>
<path d="M169.781 48.7026C169.047 47.1506 169.71 45.2976 171.262 44.5646C172.814 43.8306 174.667 44.4936 175.4 46.0456C176.134 47.5976 175.471 49.4506 173.919 50.1836C172.367 50.9176 170.515 50.2546 169.781 48.7026Z" fill="#ADB5BD" stroke="black" stroke-width="0.3211" stroke-miterlimit="10"/>
<path d="M172.065 46.1136C172.065 46.2196 171.979 46.3046 171.874 46.3046C171.768 46.3046 171.683 46.2186 171.683 46.1136C171.683 46.0076 171.769 45.9226 171.874 45.9226C171.979 45.9226 172.065 46.0086 172.065 46.1136Z" fill="black"/>
<path d="M174.559 45.9226C174.559 46.0286 174.473 46.1136 174.368 46.1136C174.263 46.1136 174.177 46.0276 174.177 45.9226C174.177 45.8166 174.263 45.7316 174.368 45.7316C174.473 45.7316 174.559 45.8166 174.559 45.9226Z" fill="black"/>
<path d="M174.751 48.1646C174.751 48.2706 174.665 48.3557 174.56 48.3557C174.455 48.3557 174.369 48.2696 174.369 48.1646C174.369 48.0586 174.455 47.9736 174.56 47.9736C174.665 47.9736 174.751 48.0596 174.751 48.1646Z" fill="black"/>
<path d="M173.148 47.3987C173.148 47.5047 173.062 47.5896 172.957 47.5896C172.851 47.5896 172.766 47.5037 172.766 47.3987C172.766 47.2927 172.852 47.2076 172.957 47.2076C173.062 47.2076 173.148 47.2937 173.148 47.3987Z" fill="black"/>
<path d="M170.691 47.0456C170.691 47.1516 170.605 47.2366 170.5 47.2366C170.394 47.2366 170.309 47.1506 170.309 47.0456C170.309 46.9396 170.395 46.8546 170.5 46.8546C170.605 46.8546 170.691 46.9396 170.691 47.0456Z" fill="black"/>
<path d="M171.658 49.2696C171.658 49.3756 171.572 49.4606 171.467 49.4606C171.361 49.4606 171.276 49.3746 171.276 49.2696C171.276 49.1636 171.362 49.0787 171.467 49.0787C171.572 49.0777 171.658 49.1636 171.658 49.2696Z" fill="black"/>
<path d="M173.339 49.4606C173.339 49.5666 173.253 49.6516 173.148 49.6516C173.043 49.6516 172.957 49.5656 172.957 49.4606C172.957 49.3546 173.043 49.2696 173.148 49.2696C173.253 49.2696 173.339 49.3546 173.339 49.4606Z" fill="black"/>
<path d="M146.705 42.7316C146.705 42.7316 145.661 48.3216 156.213 52.7026C156.213 52.7026 154.603 44.0286 146.705 42.7316Z" stroke="black" stroke-width="0.4321" stroke-miterlimit="10"/>
<path d="M146.705 42.7316L156.213 52.7026" stroke="black" stroke-width="0.4321" stroke-miterlimit="10"/>
<path d="M153.505 42.2737C153.505 42.2737 152.257 36.7256 162.639 31.9596C162.639 31.9596 161.351 40.6867 153.505 42.2737Z" stroke="black" stroke-width="0.4321" stroke-miterlimit="10"/>
<path d="M153.505 42.2737L162.64 31.9596" stroke="black" stroke-width="0.4321" stroke-miterlimit="10"/>
<path d="M22.3838 16.8786C22.3838 16.8786 41.0958 16.8786 44.0148 36.6346C46.8978 56.1556 59.8088 59.2156 59.8088 59.2156" stroke="black" stroke-width="0.4321" stroke-miterlimit="10"/>
<path d="M25.5308 24.3857C27.4578 20.9267 26.2158 16.5596 22.7568 14.6326C19.2978 12.7056 14.9308 13.9477 13.0038 17.4067C11.0768 20.8657 12.3188 25.2326 15.7788 27.1596C19.2368 29.0866 23.6038 27.8447 25.5308 24.3857Z" fill="#ADB5BD" stroke="black" stroke-width="0.4248" stroke-miterlimit="10"/>
<path d="M36.8199 18.8526C38.7469 15.3936 37.5049 11.0267 34.0459 9.09965C30.5869 7.17265 26.2199 8.41464 24.2929 11.8736C22.3659 15.3326 23.6079 19.6997 27.0669 21.6267C30.5269 23.5537 34.8929 22.3116 36.8199 18.8526Z" fill="#ADB5BD" stroke="black" stroke-width="0.4248" stroke-miterlimit="10"/>
<path d="M21.7541 16.253C25.5627 15.1696 27.7719 11.2038 26.6885 7.39521C25.6051 3.5866 21.6393 1.37738 17.8307 2.4608C14.0221 3.54423 11.8129 7.51002 12.8963 11.3186C13.9797 15.1272 17.9455 17.3365 21.7541 16.253Z" fill="#ADB5BD" stroke="black" stroke-width="0.4248" stroke-miterlimit="10"/>
<path d="M24.8218 22.5286C26.2718 19.9246 25.3368 16.6386 22.7338 15.1886C20.1298 13.7386 16.8438 14.6736 15.3938 17.2766C13.9438 19.8796 14.8788 23.1666 17.4818 24.6166C20.0848 26.0666 23.3708 25.1316 24.8218 22.5286Z" fill="#ADB5BD" stroke="black" stroke-width="0.4248" stroke-miterlimit="10"/>
<path d="M33.3179 18.3636C34.7679 15.7596 33.8329 12.4736 31.2299 11.0236C28.6259 9.57364 25.3399 10.5076 23.8899 13.1116C22.4399 15.7156 23.3749 19.0016 25.9779 20.4516C28.5819 21.9026 31.8679 20.9676 33.3179 18.3636Z" fill="#ADB5BD" stroke="black" stroke-width="0.4248" stroke-miterlimit="10"/>
<path d="M25.2229 13.8546C26.6729 11.2516 25.7389 7.96465 23.1349 6.51465C20.5309 5.06465 17.2448 5.99963 15.7948 8.60263C14.3448 11.2056 15.2789 14.4926 17.8829 15.9426C20.4869 17.3926 23.7729 16.4576 25.2229 13.8546Z" fill="#ADB5BD" stroke="black" stroke-width="0.4248" stroke-miterlimit="10"/>
<path d="M25.6148 17.9306C26.5858 15.8776 25.7078 13.4266 23.6558 12.4556C21.6028 11.4846 19.1518 12.3627 18.1808 14.4157C17.2098 16.4687 18.0878 18.9196 20.1408 19.8906C22.1928 20.8606 24.6448 19.9836 25.6148 17.9306Z" fill="#ADB5BD" stroke="black" stroke-width="0.4248" stroke-miterlimit="10"/>
<path d="M22.8467 14.7586C22.9865 14.7586 23.0997 14.6454 23.0997 14.5056C23.0997 14.3659 22.9865 14.2526 22.8467 14.2526C22.707 14.2526 22.5938 14.3659 22.5938 14.5056C22.5938 14.6454 22.707 14.7586 22.8467 14.7586Z" fill="black"/>
<path d="M19.2939 14.2516C19.2939 14.3916 19.4069 14.5046 19.5469 14.5046C19.6869 14.5046 19.7999 14.3916 19.7999 14.2516C19.7999 14.1116 19.6869 13.9986 19.5469 13.9986C19.4069 13.9986 19.2939 14.1126 19.2939 14.2516Z" fill="black"/>
<path d="M19.0408 17.2186C19.0408 17.3586 19.1538 17.4716 19.2938 17.4716C19.4338 17.4716 19.5468 17.3586 19.5468 17.2186C19.5468 17.0786 19.4338 16.9656 19.2938 16.9656C19.1538 16.9656 19.0408 17.0786 19.0408 17.2186Z" fill="black"/>
<path d="M21.1609 16.2056C21.1609 16.3456 21.2739 16.4587 21.4139 16.4587C21.5539 16.4587 21.6669 16.3456 21.6669 16.2056C21.6669 16.0656 21.5539 15.9526 21.4139 15.9526C21.2739 15.9516 21.1609 16.0656 21.1609 16.2056Z" fill="black"/>
<path d="M24.4119 15.7376C24.4119 15.8776 24.5249 15.9906 24.6649 15.9906C24.8049 15.9906 24.9179 15.8776 24.9179 15.7376C24.9179 15.5976 24.8049 15.4846 24.6649 15.4846C24.5249 15.4846 24.4119 15.5986 24.4119 15.7376Z" fill="black"/>
<path d="M23.3848 18.9326C23.5246 18.9326 23.6378 18.8194 23.6378 18.6796C23.6378 18.5399 23.5246 18.4266 23.3848 18.4266C23.2451 18.4266 23.1318 18.5399 23.1318 18.6796C23.1318 18.8194 23.2451 18.9326 23.3848 18.9326Z" fill="black"/>
<path d="M20.908 18.9326C20.908 19.0726 21.021 19.1856 21.161 19.1856C21.301 19.1856 21.414 19.0726 21.414 18.9326C21.414 18.7926 21.301 18.6796 21.161 18.6796C21.021 18.6796 20.908 18.7926 20.908 18.9326Z" fill="black"/>
<path d="M42.6889 31.3826C42.6889 31.3826 37.9129 34.4676 29.8569 26.3666C29.8569 26.3666 38.4939 24.5666 42.6889 31.3826Z" stroke="black" stroke-width="0.4321" stroke-miterlimit="10"/>
<path d="M42.6889 31.3826L29.8579 26.3666" stroke="black" stroke-width="0.4321" stroke-miterlimit="10"/>
<path d="M45.291 42.5166C45.291 42.5166 50.5059 40.2506 48.2259 29.0556C48.2259 29.0556 41.941 35.2466 45.291 42.5166Z" stroke="black" stroke-width="0.4321" stroke-miterlimit="10"/>
<path d="M45.291 42.5166L48.225 29.0556" stroke="black" stroke-width="0.4321" stroke-miterlimit="10"/>
<path d="M49.5298 51.2177C49.5298 51.2177 44.7538 54.3036 36.6978 46.2016C36.6978 46.2016 45.3338 44.4007 49.5298 51.2177Z" stroke="black" stroke-width="0.4321" stroke-miterlimit="10"/>
<path d="M49.5298 51.2177L36.6978 46.2016" stroke="black" stroke-width="0.4321" stroke-miterlimit="10"/>
<path d="M53.863 55.9776C53.863 55.9776 59.078 53.7116 56.798 42.5166C56.798 42.5166 50.513 48.7076 53.863 55.9776Z" stroke="black" stroke-width="0.4321" stroke-miterlimit="10"/>
<path d="M53.863 55.9776L56.797 42.5166" stroke="black" stroke-width="0.4321" stroke-miterlimit="10"/>
<path d="M46.5508 45.9856C46.5508 45.9856 25.2958 36.1527 7.65576 48.7087" stroke="black" stroke-width="0.4321" stroke-miterlimit="10"/>
<path d="M11.2898 53.5827C12.7468 50.9677 11.8078 47.6666 9.19279 46.2106C6.57779 44.7536 3.27679 45.6927 1.82079 48.3077C0.363786 50.9227 1.30279 54.2236 3.91779 55.6796C6.53279 57.1366 9.83279 56.1977 11.2898 53.5827Z" fill="#ADB5BD" stroke="black" stroke-width="0.3211" stroke-miterlimit="10"/>
<path d="M19.8237 49.3996C21.2807 46.7846 20.3417 43.4836 17.7267 42.0276C15.1117 40.5706 11.8107 41.5096 10.3547 44.1246C8.89772 46.7396 9.83672 50.0406 12.4517 51.4966C15.0667 52.9536 18.3667 52.0146 19.8237 49.3996Z" fill="#ADB5BD" stroke="black" stroke-width="0.3211" stroke-miterlimit="10"/>
<path d="M11.6929 44.8706C13.1499 42.2556 12.2109 38.9546 9.59586 37.4986C6.98086 36.0416 3.67986 36.9807 2.22386 39.5957C0.766862 42.2107 1.70586 45.5117 4.32086 46.9677C6.93586 48.4247 10.2359 47.4856 11.6929 44.8706Z" fill="#ADB5BD" stroke="black" stroke-width="0.3211" stroke-miterlimit="10"/>
<path d="M10.7539 52.1786C11.8499 50.2106 11.1439 47.7266 9.17586 46.6306C7.20786 45.5346 4.72385 46.2406 3.62785 48.2086C2.53185 50.1766 3.23786 52.6606 5.20586 53.7566C7.17386 54.8536 9.65785 54.1466 10.7539 52.1786Z" fill="#ADB5BD" stroke="black" stroke-width="0.3211" stroke-miterlimit="10"/>
<path d="M17.1767 49.0306C18.2727 47.0626 17.5667 44.5786 15.5987 43.4826C13.6307 42.3866 11.1467 43.0926 10.0507 45.0606C8.95471 47.0286 9.6607 49.5126 11.6287 50.6086C13.5957 51.7056 16.0807 50.9986 17.1767 49.0306Z" fill="#ADB5BD" stroke="black" stroke-width="0.3211" stroke-miterlimit="10"/>
<path d="M11.0578 45.6216C12.1538 43.6536 11.4478 41.1696 9.47984 40.0736C7.51184 38.9776 5.02783 39.6836 3.93083 41.6516C2.83483 43.6196 3.54084 46.1036 5.50884 47.1996C7.47684 48.2966 9.96083 47.5896 11.0578 45.6216Z" fill="#ADB5BD" stroke="black" stroke-width="0.3211" stroke-miterlimit="10"/>
<path d="M11.3537 48.7026C12.0877 47.1506 11.4247 45.2976 9.87273 44.5646C8.32073 43.8306 6.46773 44.4936 5.73473 46.0456C5.00073 47.5976 5.66373 49.4506 7.21573 50.1836C8.76773 50.9176 10.6197 50.2546 11.3537 48.7026Z" fill="#ADB5BD" stroke="black" stroke-width="0.3211" stroke-miterlimit="10"/>
<path d="M9.06982 46.1136C9.06982 46.2196 9.15583 46.3046 9.26083 46.3046C9.36683 46.3046 9.45183 46.2186 9.45183 46.1136C9.45183 46.0076 9.36583 45.9226 9.26083 45.9226C9.15583 45.9226 9.06982 46.0086 9.06982 46.1136Z" fill="black"/>
<path d="M6.57568 45.9226C6.57568 46.0286 6.66169 46.1136 6.76669 46.1136C6.87169 46.1136 6.95769 46.0276 6.95769 45.9226C6.95769 45.8166 6.87169 45.7316 6.76669 45.7316C6.66169 45.7316 6.57568 45.8166 6.57568 45.9226Z" fill="black"/>
<path d="M6.38379 48.1646C6.38379 48.2706 6.46978 48.3557 6.57478 48.3557C6.68078 48.3557 6.76579 48.2696 6.76579 48.1646C6.76579 48.0586 6.67978 47.9736 6.57478 47.9736C6.46978 47.9736 6.38379 48.0596 6.38379 48.1646Z" fill="black"/>
<path d="M7.98682 47.3987C7.98682 47.5047 8.07282 47.5896 8.17782 47.5896C8.28282 47.5896 8.36882 47.5037 8.36882 47.3987C8.36882 47.2927 8.28282 47.2076 8.17782 47.2076C8.07282 47.2076 7.98682 47.2937 7.98682 47.3987Z" fill="black"/>
<path d="M10.4438 47.0456C10.4438 47.1516 10.5298 47.2366 10.6348 47.2366C10.7408 47.2366 10.8258 47.1506 10.8258 47.0456C10.8258 46.9396 10.7398 46.8546 10.6348 46.8546C10.5298 46.8546 10.4438 46.9396 10.4438 47.0456Z" fill="black"/>
<path d="M9.47681 49.2696C9.47681 49.3756 9.56281 49.4606 9.66781 49.4606C9.77381 49.4606 9.85881 49.3746 9.85881 49.2696C9.85881 49.1636 9.77281 49.0787 9.66781 49.0787C9.56281 49.0777 9.47681 49.1636 9.47681 49.2696Z" fill="black"/>
<path d="M7.79468 49.4606C7.79468 49.5666 7.88068 49.6516 7.98568 49.6516C8.09168 49.6516 8.17668 49.5656 8.17668 49.4606C8.17668 49.3546 8.09068 49.2696 7.98568 49.2696C7.88068 49.2696 7.79468 49.3546 7.79468 49.4606Z" fill="black"/>
<path d="M34.4299 42.7316C34.4299 42.7316 35.4739 48.3216 24.9229 52.7026C24.9229 52.7026 26.5309 44.0286 34.4299 42.7316Z" stroke="black" stroke-width="0.4321" stroke-miterlimit="10"/>
<path d="M34.4299 42.7316L24.9219 52.7026" stroke="black" stroke-width="0.4321" stroke-miterlimit="10"/>
<path d="M27.6298 42.2737C27.6298 42.2737 28.8789 36.7256 18.4959 31.9596C18.4959 31.9596 19.7838 40.6867 27.6298 42.2737Z" stroke="black" stroke-width="0.4321" stroke-miterlimit="10"/>
<path d="M27.6299 42.2737L18.4949 31.9596" stroke="black" stroke-width="0.4321" stroke-miterlimit="10"/>
</svg>
