<svg width="24" height="24" viewBox="0 0 24 24" fill="none" xmlns="http://www.w3.org/2000/svg">
<path d="M23.9921 11.9975C23.9921 18.0582 19.5008 23.0688 13.6663 23.8819C13.1208 23.9576 12.5626 23.9971 11.996 23.9971C11.3421 23.9971 10.6999 23.9449 10.0745 23.844C4.36266 22.9242 0 17.97 0 11.9975C0 5.37001 5.37136 -0.00292969 11.9969 -0.00292969C18.6224 -0.00292969 23.9938 5.37001 23.9938 11.9975H23.9921Z" fill="white"/>
<path d="M4.86455 5.29028L10.3973 12.6896L4.83008 18.7058H6.0834L10.958 13.4388L14.8961 18.7058H19.1604L13.3167 10.8903L18.4989 5.29028H17.2456L12.7568 10.1411L9.12969 5.29028H4.86538H4.86455ZM6.70711 6.21352H8.66569L17.3162 17.7826H15.3576L6.70711 6.21352Z" fill="black"/>
</svg>
