<svg width="24" height="24" viewBox="0 0 24 24" fill="none" xmlns="http://www.w3.org/2000/svg">
<path d="M23.9866 11.9971C23.9866 5.36965 18.6156 -0.00292969 11.9901 -0.00292969C5.36466 -0.00292969 -0.00634766 5.36965 -0.00634766 11.9971C-0.00634766 18.6245 5.36466 23.9971 11.9901 23.9971C18.6156 23.9971 23.9866 18.6245 23.9866 11.9971Z" fill="white"/>
<path d="M19.5444 9.51047C19.45 8.59894 19.2468 7.59129 18.4991 7.06174C17.92 6.65109 17.1588 6.6359 16.4481 6.63675C14.9459 6.63675 13.4429 6.63928 11.9407 6.64012C10.4958 6.64181 9.05096 6.64265 7.60609 6.64434C7.00252 6.64434 6.4158 6.59796 5.85522 6.85936C5.37388 7.08366 4.99706 7.51034 4.7703 7.98508C4.45587 8.64532 4.39012 9.39327 4.35219 10.1235C4.28222 11.4533 4.2898 12.7864 4.37326 14.1154C4.4348 15.0851 4.59075 16.1568 5.34016 16.7749C6.00443 17.3222 6.94182 17.3491 7.80335 17.35C10.538 17.3525 13.2735 17.355 16.0089 17.3567C16.3596 17.3576 16.7255 17.3508 17.0829 17.312C17.7859 17.2361 18.4561 17.0346 18.9079 16.5135C19.364 15.9882 19.4812 15.2571 19.5503 14.5648C19.7189 12.8851 19.7172 11.1893 19.5444 9.51047ZM10.3593 14.3515V9.64202L14.4359 11.9963L10.3593 14.3515Z" fill="black"/>
</svg>
